<?xml version="1.0" standalone="no"?>
<!DOCTYPE svg PUBLIC "-//W3C//DTD SVG 1.1//EN" "http://www.w3.org/Graphics/SVG/1.1/DTD/svg11.dtd" >
<svg>
<metadata>
Created by FontForge 20110222 at Mon May 19 06:20:46 2014
 By deploy user
Copyright (C) 2004, 2009 Hoefler &#38; Frere-Jones. http://www.typography.com
</metadata>
<defs>
<font id="Sentinel-SemiboldItalic" horiz-adv-x="673" >
  <font-face 
    font-family="Sentinel Semibold"
    font-weight="375"
    font-style="italic"
    font-stretch="normal"
    units-per-em="1000"
    panose-1="0 0 0 0 0 0 0 0 0 0"
    ascent="800"
    descent="-200"
    x-height="471"
    cap-height="658"
    bbox="-139 -337 1144 1107"
    underline-thickness="50"
    underline-position="-50"
    slope="-12"
    unicode-range="U+0020-FB04"
  />
<missing-glyph horiz-adv-x="500" 
d="M0 -200v1000h500v-1000h-500zM71 750l179 -390l179 390h-358zM50 -76l172 376l-172 376v-752zM450 676l-172 -376l172 -376v752zM250 240l-179 -390h358z" />
    <glyph glyph-name="f_f" unicode="ff" horiz-adv-x="644" 
d="M259 -170q-44 0 -67.5 20.5t-23.5 50.5q0 29 18.5 50t47.5 21q24 0 37.5 -15t13.5 -36q0 -30 -14 -44q27 -1 42.5 26t34.5 117l76 369h-174l-67 -318q-27 -127 -84 -184t-127 -57q-44 0 -67.5 20.5t-23.5 50.5q0 29 18.5 50t47.5 21q24 0 37.5 -15t13.5 -36
q0 -30 -14 -44q27 -1 41 25.5t33 117.5l76 369h-92l16 61h89q26 118 91 180.5t155 62.5q102 0 132 -61q62 62 148 62q62 0 94 -26.5t32 -64.5q0 -35 -20.5 -59.5t-51.5 -24.5q-25 0 -41 14.5t-16 40.5q0 39 28 62q-9 6 -27 6q-50 0 -72 -37.5t-41 -129.5l-6 -25h133l-17 -61
h-129l-67 -318q-26 -127 -84.5 -184t-128.5 -57zM268 474l-5 -24h174q9 39 19 68q-23 2 -36.5 16.5t-13.5 38.5q0 34 24 58q-12 10 -40 10q-52 0 -78 -38.5t-44 -128.5z" />
    <glyph glyph-name="fi" unicode="fi" horiz-adv-x="594" 
d="M402 389h-152l-67 -318q-27 -127 -84 -184t-127 -57q-44 0 -67.5 20.5t-23.5 50.5q0 29 18.5 50t47.5 21q24 0 37.5 -15t13.5 -36q0 -30 -14 -44q27 -1 41 25.5t33 117.5l76 369h-92l16 61h89q24 111 89 177.5t167 66.5q75 0 115 -29.5t40 -71.5q0 -33 -21 -57t-56 -24
q-29 0 -46 15t-17 42q0 38 26 62q-14 11 -48 11q-54 0 -81.5 -38.5t-46.5 -128.5l-5 -25h269l-78 -283q-15 -55 -15 -72q0 -24 21 -24q17 0 33 22.5t37 78.5l48 -15q-55 -167 -156 -167q-44 0 -68.5 25t-24.5 69q0 36 27 136z" />
    <glyph glyph-name="fl" unicode="fl" horiz-adv-x="597" 
d="M392 694q48 0 84 -17l126 17l-143 -526q-16 -53 -16 -72q0 -25 21 -25q17 0 33 22.5t37 78.5l48 -15q-55 -167 -156 -167q-44 0 -68.5 25t-24.5 69q0 37 27 137l44 168h-155l-66 -318q-27 -127 -84 -184t-127 -57q-44 0 -67.5 20.5t-23.5 50.5q0 29 18.5 50t47.5 21
q24 0 37.5 -15t13.5 -36q0 -30 -14 -44q27 -1 41 25.5t33 117.5l76 369h-92l16 61h89q22 108 85 176t160 68zM268 476l-6 -26h158l19 72q-36 11 -36 52q0 33 25 58q-12 10 -39 10q-51 0 -76.5 -38t-44.5 -128z" />
    <glyph glyph-name="f_f_i" unicode="ffi" horiz-adv-x="883" 
d="M393 693q51 0 85.5 -18.5t47.5 -46.5q68 66 166 66q75 0 115 -29.5t40 -71.5q0 -33 -21 -57t-56 -24q-29 0 -46 15t-17 42q0 38 26 62q-14 11 -48 11q-54 0 -81.5 -38.5t-46.5 -128.5l-5 -25h269l-78 -283q-15 -55 -15 -72q0 -24 21 -24q17 0 33 22.5t37 78.5l48 -15
q-55 -167 -156 -167q-44 0 -68.5 25t-24.5 69q0 36 27 136l46 169h-152l-67 -318q-27 -127 -85 -184t-129 -57q-43 0 -67 20.5t-24 50.5q0 29 18.5 50t47.5 21q24 0 37.5 -15t13.5 -36q0 -30 -14 -44q27 -1 42.5 26t34.5 117l76 369h-173l-67 -318q-27 -127 -84 -184
t-127 -57q-44 0 -67.5 20.5t-23.5 50.5q0 29 18.5 50t47.5 21q24 0 37.5 -15t13.5 -36q0 -30 -14 -44q27 -1 41 25.5t33 117.5l76 369h-92l16 61h89q26 118 91 180.5t155 62.5zM268 474l-5 -24h173q6 30 20 68q-23 2 -36.5 16.5t-13.5 38.5q0 34 24 58q-12 10 -40 10
q-52 0 -78 -38.5t-44 -128.5z" />
    <glyph glyph-name="f_f_l" unicode="ffl" horiz-adv-x="887" 
d="M259 -170q-44 0 -67.5 20.5t-23.5 50.5q0 29 18.5 50t47.5 21q24 0 37.5 -15t13.5 -36q0 -30 -14 -44q27 -1 42.5 26t34.5 117l76 369h-174l-67 -318q-27 -127 -84 -184t-127 -57q-44 0 -67.5 20.5t-23.5 50.5q0 29 18.5 50t47.5 21q24 0 37.5 -15t13.5 -36
q0 -30 -14 -44q27 -1 41 25.5t33 117.5l76 369h-92l16 61h89q26 118 91 180.5t155 62.5q102 0 133 -63q64 64 156 64q48 0 84 -17l125 17l-143 -526q-15 -58 -15 -72q0 -25 21 -25q31 0 70 101l47 -15q-55 -167 -155 -167q-44 0 -68.5 25t-24.5 69q0 35 26 137l45 168h-155
l-67 -318q-26 -127 -84.5 -184t-128.5 -57zM268 474l-5 -24h174q9 39 19 68q-23 2 -36.5 16.5t-13.5 38.5q0 34 24 58q-12 10 -40 10q-52 0 -78 -38.5t-44 -128.5zM558 476l-6 -26h158l19 72q-36 11 -36 52q0 35 25 58q-12 10 -39 10q-51 0 -77 -38.5t-44 -127.5z" />
    <glyph glyph-name="f_b" unicode="fb" horiz-adv-x="818" 
d="M597 694l-101 -339l7 -3q31 58 72 88.5t84 30.5q62 0 96.5 -46t34.5 -118q0 -125 -84.5 -221t-193.5 -96q-80 0 -122 43.5t-42 115.5q0 50 31 163l21 77h-151l-66 -318q-27 -127 -84 -184t-127 -57q-44 0 -67.5 20.5t-23.5 50.5q0 29 18.5 50t47.5 21q24 0 37.5 -15
t13.5 -36q0 -30 -14 -44q27 -1 41 25.5t33 117.5l76 369h-92l16 61h89q22 108 85 176t160 68q48 0 84 -17zM615 393q-38 0 -74 -43.5t-57 -102t-21 -106.5q0 -86 62 -86q43 0 78 47.5t51 104t16 100.5q0 86 -55 86zM268 476l-6 -26h155l20 72q-34 13 -34 52q0 33 25 58
q-12 10 -39 10q-51 0 -76.5 -38t-44.5 -128z" />
    <glyph glyph-name="f_h" unicode="fh" horiz-adv-x="867" 
d="M610 694l-129 -431l7 -3q47 104 104 157.5t113 53.5q41 0 65.5 -29t24.5 -75q0 -45 -37 -146t-37 -128q0 -22 18 -22q30 0 68 101l47 -15q-55 -167 -153 -167q-40 0 -64.5 25t-24.5 68q0 54 33 145.5t33 121.5q0 33 -27 33q-19 0 -42.5 -17.5t-53 -57.5t-63 -119.5
t-62.5 -188.5h-120l103 389h-164l-66 -318q-27 -127 -84 -184t-127 -57q-44 0 -67.5 20.5t-23.5 50.5q0 29 18.5 50t47.5 21q24 0 37.5 -15t13.5 -36q0 -30 -14 -44q27 -1 41 25.5t33 117.5l76 369h-92l16 61h89q22 108 85 176t160 68q52 0 86 -18zM268 476l-6 -26h167
l19 70q-45 7 -45 54q0 33 25 58q-12 10 -39 10q-51 0 -76.5 -38t-44.5 -128z" />
    <glyph glyph-name="f_j" unicode="fj" horiz-adv-x="555" 
d="M418 389h-168l-67 -318q-27 -127 -84 -184t-127 -57q-44 0 -67.5 20.5t-23.5 50.5q0 29 18.5 50t47.5 21q24 0 37.5 -15t13.5 -36q0 -30 -14 -44q27 -1 41 25.5t33 117.5l76 369h-92l16 61h89q24 111 89 177.5t167 66.5q75 0 115 -29.5t40 -71.5q0 -33 -21 -57t-56 -24
q-29 0 -46 15t-17 42q0 38 26 62q-14 11 -48 11q-54 0 -81.5 -38.5t-46.5 -128.5l-5 -25h283l-107 -403q-59 -217 -205 -217q-44 0 -68 20.5t-24 50.5q0 28 17.5 48.5t45.5 20.5q24 0 38 -15t14 -36q0 -29 -19 -46q29 -1 46 27t43 130z" />
    <glyph glyph-name="f_k" unicode="fk" horiz-adv-x="828" 
d="M586 258q52 -4 73.5 -25.5t21.5 -58.5q0 -16 -4.5 -42t-4.5 -34q0 -27 19 -27q29 0 67 101l47 -15q-52 -167 -148 -167q-42 0 -67.5 27t-25.5 75q0 15 5.5 47.5t5.5 42.5q0 28 -17 37t-71 9h-2l-61 -228h-114l103 389h-164l-66 -318q-27 -127 -84 -184t-127 -57
q-44 0 -67.5 20.5t-23.5 50.5q0 29 18.5 50t47.5 21q24 0 37.5 -15t13.5 -36q0 -30 -14 -44q27 -1 41 25.5t33 117.5l76 369h-92l16 61h89q22 108 85 176t160 68q52 0 86 -18l132 18l-113 -421h4q37 0 60 21.5t59 81.5q29 47 56.5 71t68.5 24q35 0 54.5 -20t19.5 -53
t-19 -58.5t-48 -25.5q-30 0 -44 22.5t-3 53.5q-21 -4 -52 -58q-31 -55 -67 -74zM268 476l-6 -26h167l19 70q-45 7 -45 54q0 33 25 58q-12 10 -39 10q-51 0 -76.5 -38t-44.5 -128z" />
    <glyph glyph-name="f_f_b" unicode="ffb" horiz-adv-x="1108" 
d="M259 -170q-44 0 -67.5 20.5t-23.5 50.5q0 29 18.5 50t47.5 21q24 0 37.5 -15t13.5 -36q0 -30 -14 -44q27 -1 42.5 26t34.5 117l76 369h-174l-67 -318q-27 -127 -84 -184t-127 -57q-44 0 -67.5 20.5t-23.5 50.5q0 29 18.5 50t47.5 21q24 0 37.5 -15t13.5 -36
q0 -30 -14 -44q27 -1 41 25.5t33 117.5l76 369h-92l16 61h89q26 118 91 180.5t155 62.5q102 0 133 -63q64 64 156 64q47 0 83 -17l122 17l-101 -339l7 -3q30 58 71 88.5t85 30.5q62 0 96.5 -46t34.5 -118q0 -125 -84.5 -221t-193.5 -96q-80 0 -122 43.5t-42 115.5
q0 54 30 163l21 77h-150l-67 -318q-26 -127 -84.5 -184t-128.5 -57zM904 393q-56 0 -103.5 -87t-47.5 -165q0 -86 62 -86q42 0 77 47.5t51 104t16 100.5q0 86 -55 86zM268 474l-5 -24h174q9 39 19 68q-23 2 -36.5 16.5t-13.5 38.5q0 34 24 58q-12 10 -40 10q-52 0 -78 -38.5
t-44 -128.5zM558 476l-6 -26h154l20 73q-33 12 -33 51q0 35 25 58q-12 10 -39 10q-51 0 -77 -38.5t-44 -127.5z" />
    <glyph glyph-name="f_f_h" unicode="ffh" horiz-adv-x="1157" 
d="M259 -170q-44 0 -67.5 20.5t-23.5 50.5q0 29 18.5 50t47.5 21q24 0 37.5 -15t13.5 -36q0 -30 -14 -44q27 -1 42.5 26t34.5 117l76 369h-174l-67 -318q-27 -127 -84 -184t-127 -57q-44 0 -67.5 20.5t-23.5 50.5q0 29 18.5 50t47.5 21q24 0 37.5 -15t13.5 -36
q0 -30 -14 -44q27 -1 41 25.5t33 117.5l76 369h-92l16 61h89q26 118 91 180.5t155 62.5q102 0 133 -63q64 64 156 64q50 0 86 -18l132 18l-129 -431l7 -3q47 104 104 157.5t112 53.5q41 0 66 -29t25 -75q0 -45 -37 -146t-37 -128q0 -22 17 -22q29 0 69 101l47 -15
q-55 -167 -153 -167q-41 0 -65 25t-24 68q0 54 33 145.5t33 121.5q0 33 -27 33q-19 0 -43 -17.5t-53.5 -57.5t-62.5 -119.5t-62 -188.5h-120l103 389h-164l-67 -318q-26 -127 -84.5 -184t-128.5 -57zM268 474l-5 -24h174q9 39 19 68q-23 2 -36.5 16.5t-13.5 38.5q0 34 24 58
q-12 10 -40 10q-52 0 -78 -38.5t-44 -128.5zM558 476l-6 -26h167l19 70q-45 7 -45 54q0 35 25 58q-12 10 -39 10q-51 0 -77 -38.5t-44 -127.5z" />
    <glyph glyph-name="f_f_j" unicode="ffj" horiz-adv-x="844" 
d="M393 693q51 0 85.5 -18.5t47.5 -46.5q68 66 166 66q75 0 115 -29.5t40 -71.5q0 -33 -21 -57t-56 -24q-29 0 -46 15t-17 42q0 38 26 62q-14 11 -48 11q-54 0 -81.5 -38.5t-46.5 -128.5l-5 -25h283l-107 -403q-59 -217 -205 -217q-44 0 -68 20.5t-24 50.5q0 28 17.5 48.5
t45.5 20.5q24 0 38 -15t14 -36q0 -29 -19 -46q29 -1 46 27t43 130l91 359h-168l-67 -318q-27 -127 -85 -184t-129 -57q-43 0 -67 20.5t-24 50.5q0 29 18.5 50t47.5 21q24 0 37.5 -15t13.5 -36q0 -30 -14 -44q27 -1 42.5 26t34.5 117l76 369h-173l-67 -318q-27 -127 -84 -184
t-127 -57q-44 0 -67.5 20.5t-23.5 50.5q0 29 18.5 50t47.5 21q24 0 37.5 -15t13.5 -36q0 -30 -14 -44q27 -1 41 25.5t33 117.5l76 369h-92l16 61h89q26 118 91 180.5t155 62.5zM268 474l-5 -24h173q6 30 20 68q-23 2 -36.5 16.5t-13.5 38.5q0 34 24 58q-12 10 -40 10
q-52 0 -78 -38.5t-44 -128.5z" />
    <glyph glyph-name="f_f_k" unicode="ffk" horiz-adv-x="1118" 
d="M259 -170q-44 0 -67.5 20.5t-23.5 50.5q0 29 18.5 50t47.5 21q24 0 37.5 -15t13.5 -36q0 -30 -14 -44q27 -1 42.5 26t34.5 117l76 369h-174l-67 -318q-27 -127 -84 -184t-127 -57q-44 0 -67.5 20.5t-23.5 50.5q0 29 18.5 50t47.5 21q24 0 37.5 -15t13.5 -36
q0 -30 -14 -44q27 -1 41 25.5t33 117.5l76 369h-92l16 61h89q26 118 91 180.5t155 62.5q102 0 133 -63q64 64 156 64q50 0 86 -18l131 18l-113 -421h5q37 0 60 21.5t59 81.5q29 47 56.5 71t68.5 24q35 0 54.5 -20t19.5 -53t-19.5 -58.5t-48.5 -25.5q-30 0 -44 22.5t-3 53.5
q-19 -4 -52 -58q-32 -56 -66 -74q51 -4 72.5 -25.5t21.5 -58.5q0 -16 -4 -42t-4 -34q0 -27 19 -27q29 0 67 101l47 -15q-52 -167 -148 -167q-43 0 -68 27t-25 75q0 15 5 47.5t5 42.5q0 28 -17 37t-71 9h-2l-61 -228h-113l103 389h-164l-67 -318q-26 -127 -84.5 -184
t-128.5 -57zM268 474l-5 -24h174q9 39 19 68q-23 2 -36.5 16.5t-13.5 38.5q0 34 24 58q-12 10 -40 10q-52 0 -78 -38.5t-44 -128.5zM558 476l-6 -26h167l19 70q-45 7 -45 54q0 35 25 58q-12 10 -39 10q-51 0 -77 -38.5t-44 -127.5z" />
    <glyph glyph-name=".notdef" horiz-adv-x="500" 
d="M0 -200v1000h500v-1000h-500zM71 750l179 -390l179 390h-358zM50 -76l172 376l-172 376v-752zM450 676l-172 -376l172 -376v752zM250 240l-179 -390h358z" />
    <glyph glyph-name=".null" horiz-adv-x="0" 
 />
    <glyph glyph-name="nonmarkingreturn" horiz-adv-x="333" 
 />
    <glyph glyph-name="space" unicode=" " horiz-adv-x="174" 
 />
    <glyph glyph-name="exclam" unicode="!" horiz-adv-x="288" 
d="M107 195q14 82 30.5 215t23.5 174q7 49 25.5 74.5t55.5 25.5q32 0 52 -18t20 -48q0 -7 -1 -14t-3.5 -17.5t-5 -19t-8.5 -24.5t-10.5 -28.5t-14 -37t-16.5 -43.5q-55 -140 -94 -250zM101 -16q-29 0 -48.5 18.5t-19.5 49.5q0 29 21 53.5t54 24.5q29 0 48.5 -18.5
t19.5 -48.5t-21 -54.5t-54 -24.5z" />
    <glyph glyph-name="quotedbl" unicode="&#x22;" horiz-adv-x="421" 
d="M136 400l-36 21l68 153q22 51 38 71.5t41 20.5q24 0 42 -16.5t18 -39.5q0 -20 -17.5 -43.5t-66.5 -74.5zM322 400l-36 21l68 153q22 51 38 71.5t41 20.5q24 0 42 -16.5t18 -39.5q0 -20 -17.5 -43.5t-66.5 -74.5z" />
    <glyph glyph-name="numbersign" unicode="#" horiz-adv-x="659" 
d="M85 409l15 68h142l52 190l75 -8l-50 -182h142l53 190l75 -8l-50 -182h124l-15 -68h-128l-52 -188h139l-15 -68h-142l-54 -197l-75 8l52 189h-142l-54 -197l-75 8l51 189h-124l15 68h128l51 188h-138zM301 409l-52 -188h142l52 188h-142z" />
    <glyph glyph-name="dollar" unicode="$" horiz-adv-x="551" 
d="M364 710l65 -10l-17 -70q71 -13 112 -50.5t41 -78.5q0 -36 -19.5 -60t-51.5 -24q-27 0 -43.5 15.5t-16.5 39.5q0 42 34 62q-16 29 -70 42l-52 -208q75 -34 113.5 -70.5t38.5 -97.5q0 -83 -61 -141.5t-171 -58.5h-11l-21 -88l-66 10l21 85q-74 15 -120.5 53t-46.5 86
q0 35 22 60t55 25q27 0 45 -17.5t18 -41.5q0 -20 -12 -38.5t-30 -26.5q17 -29 84 -46l53 216q-35 16 -57.5 29.5t-45 32.5t-33.5 43.5t-11 54.5q0 87 68.5 142.5t166.5 56.5zM393 156q0 53 -77 93l-49 -195q63 1 94.5 29t31.5 73zM221 480q0 -48 66 -84l46 185
q-52 -5 -82 -34t-30 -67z" />
    <glyph glyph-name="percent" unicode="%" horiz-adv-x="794" 
d="M179 266q-64 0 -99.5 35t-35.5 98q0 85 66 157.5t149 72.5q66 0 99 -45q44 -15 96 -15q120 0 225 84l42 -38l-564 -644l-56 41l488 537l-3 3q-66 -41 -146 -41q-36 0 -61 4v-3q0 -50 -24.5 -106t-72 -98t-103.5 -42zM578 -14q-64 0 -99.5 35t-35.5 97q0 85 66 157.5
t149 72.5q54 0 87 -30.5t33 -85.5q0 -50 -24.5 -106t-72 -98t-103.5 -42zM587 39q49 0 91.5 65.5t42.5 127.5q0 59 -49 59q-48 0 -91 -67.5t-43 -128.5q0 -56 49 -56zM188 319q49 0 91.5 65.5t42.5 127.5q0 7 -2 19q-36 15 -61 38q-45 -11 -82.5 -74.5t-37.5 -119.5t49 -56z
" />
    <glyph glyph-name="ampersand" unicode="&#x26;" horiz-adv-x="696" 
d="M611 391q32 0 53.5 -19.5t21.5 -51.5q0 -34 -19.5 -60.5t-48.5 -26.5q-30 0 -44.5 21t-5.5 50q-12 -7 -22.5 -17t-24 -28.5t-19.5 -27t-24.5 -36.5t-21.5 -33q42 -95 72 -95q18 0 33.5 15.5t40.5 62.5l44 -25q-33 -74 -67 -104.5t-78 -30.5q-47 0 -74 21.5t-54 72.5
q-40 -47 -83 -71t-99 -24q-78 0 -126 41.5t-48 110.5q0 148 210 209q-46 68 -46 122q0 75 55 120.5t132 45.5q71 0 113.5 -36.5t42.5 -92.5q0 -107 -162 -165q46 -70 69 -128q7 11 26.5 42.5t27.5 44t26 35t30.5 32t31 18t38.5 8.5zM228 65q67 0 119 60q-32 86 -93 179
q-112 -50 -112 -148q0 -42 23 -66.5t63 -24.5zM292 491q0 -42 44 -111q93 46 93 126q0 29 -17 48.5t-48 19.5q-30 0 -51 -23t-21 -60z" />
    <glyph glyph-name="quotesingle" unicode="'" horiz-adv-x="234" 
d="M136 400l-36 21l68 153q22 51 38 71.5t41 20.5q24 0 42 -16.5t18 -39.5q0 -20 -17.5 -43.5t-66.5 -74.5z" />
    <glyph glyph-name="parenleft" unicode="(" horiz-adv-x="373" 
d="M261 -158q-91 60 -144 150.5t-53 204.5q0 183 112.5 326.5t293.5 199.5l21 -55q-140 -61 -225.5 -195t-85.5 -288q0 -188 124 -296z" />
    <glyph glyph-name="parenright" unicode=")" horiz-adv-x="373" 
d="M138 722q91 -60 144 -150.5t53 -204.5q0 -183 -112.5 -326.5t-293.5 -199.5l-21 55q140 61 225.5 195t85.5 288q0 188 -124 296z" />
    <glyph glyph-name="asterisk" unicode="*" horiz-adv-x="434" 
d="M318 360q-10 29 -10 121l-13 4q-50 -82 -71 -100q-38 -31 -66 3q-30 36 11 66q22 18 112 47l-1 14q-98 23 -116 36q-40 27 -16 65q25 37 65 9q23 -16 78 -93l13 5q-5 105 0 122q13 47 56 36q42 -12 29 -60q-8 -27 -63 -103l8 -11q86 36 116 39q49 3 51 -42q3 -44 -48 -46
q-28 -1 -117 27l-9 -10q65 -77 74 -99q18 -46 -25 -61q-42 -17 -58 31z" />
    <glyph glyph-name="plus" unicode="+" horiz-adv-x="525" 
d="M185 68l44 180h-175l17 70h176l45 179h76l-45 -179h175l-17 -70h-176l-44 -180h-76z" />
    <glyph glyph-name="comma" unicode="," horiz-adv-x="242" 
d="M-50 -153l-12 45q117 33 146 104l-6 4q-9 -6 -21 -6q-24 0 -39 16t-15 43q0 33 21.5 58.5t54.5 25.5q38 0 59.5 -25.5t21.5 -64.5q0 -68 -54 -121.5t-156 -78.5z" />
    <glyph glyph-name="hyphen" unicode="-" horiz-adv-x="358" 
d="M46 208l22 86h254l-22 -86h-254z" />
    <glyph glyph-name="period" unicode="." horiz-adv-x="242" 
d="M77 -16q-29 0 -48 19.5t-19 51.5t21.5 58t55.5 26q29 0 48 -19.5t19 -51.5t-21.5 -58t-55.5 -26z" />
    <glyph glyph-name="slash" unicode="/" horiz-adv-x="429" 
d="M-139 -186l600 910l67 -32l-601 -910z" />
    <glyph glyph-name="zero" unicode="0" horiz-adv-x="576" 
d="M256 -16q-97 0 -152.5 68t-55.5 186q0 102 38 196t110 155t160 61q96 0 151.5 -68t55.5 -186q0 -102 -38 -196t-110 -155t-159 -61zM355 582q-42 0 -78 -43.5t-57.5 -107.5t-33.5 -128.5t-12 -114.5q0 -136 82 -136q42 0 78 43.5t57.5 107.5t33.5 128.5t12 114.5
q0 136 -82 136z" />
    <glyph glyph-name="one" unicode="1" horiz-adv-x="475" 
d="M2 0l17 74h138l107 428q-30 -11 -73 -11q-49 0 -73 10l14 62q60 -3 117 18t89 61h81l-141 -568h138l-14 -74h-400z" />
    <glyph glyph-name="two" unicode="2" horiz-adv-x="568" 
d="M220 545q36 -22 36 -68q0 -30 -19 -53t-54 -24q-35 0 -56.5 22t-21.5 59q0 66 66.5 117.5t169.5 51.5q100 0 157.5 -50t57.5 -122q0 -85 -55.5 -131t-153.5 -76q-115 -36 -163.5 -69.5t-74.5 -81.5l3 -3q48 28 101 28q41 0 89 -23.5t68 -23.5q30 0 53 23.5t50 81.5
l50 -10q-30 -112 -73 -160.5t-106 -48.5q-34 0 -63 15t-45.5 33.5t-36.5 33.5t-39 15q-14 0 -28 -5q5 -15 5 -27q0 -30 -16.5 -47.5t-43.5 -17.5q-26 0 -44 20t-18 58q0 43 22 82t61.5 70.5t72.5 51.5t77 41q95 46 139.5 84t44.5 98q0 44 -29 69.5t-78 25.5q-68 0 -105 -39z
" />
    <glyph glyph-name="three" unicode="3" horiz-adv-x="532" 
d="M119 88q10 -17 38 -28.5t66 -11.5q66 0 99 44t33 106q0 93 -135 93h-24l18 67h23q89 0 126 37q43 43 43 107q0 84 -95 84q-55 0 -82 -22q20 -22 20 -53q0 -32 -19.5 -53.5t-52.5 -21.5q-31 0 -50 18.5t-19 48.5q0 64 67 105.5t151 41.5q99 0 153.5 -43.5t54.5 -106.5
q0 -70 -50.5 -119t-157.5 -57l-1 -3q158 -27 158 -139q0 -81 -68.5 -139.5t-175.5 -58.5q-101 0 -162.5 44t-61.5 110q0 37 23.5 64t59.5 27q30 0 47.5 -19t17.5 -46q0 -51 -44 -76z" />
    <glyph glyph-name="four" unicode="4" horiz-adv-x="567" 
d="M323 256l71 283h-5l-270 -283h204zM392 73h95l-18 -73h-309l18 73h99l28 109h-290l17 75l378 388h124l-97 -389h127l-18 -74h-127z" />
    <glyph glyph-name="five" unicode="5" horiz-adv-x="531" 
d="M224 526l-51 -160q52 35 128 35q90 0 140 -46t50 -120q0 -62 -28.5 -117.5t-91.5 -94.5t-148 -39q-82 0 -141 43t-59 105q0 41 24 70t61 29q28 0 45.5 -17.5t17.5 -43.5q0 -51 -51 -74q10 -20 35 -33.5t59 -13.5q72 0 111 56.5t39 129.5q0 51 -29.5 75t-75.5 24
q-63 0 -123 -39l-49 21l98 312l23 17q80 -35 178 -35q82 0 158 32l18 -38q-79 -104 -199 -104q-75 0 -139 26z" />
    <glyph glyph-name="six" unicode="6" horiz-adv-x="550" 
d="M263 49q54 0 86.5 59t32.5 129q0 48 -23 73.5t-62 25.5q-57 0 -91 -52t-34 -122q0 -53 24 -83t67 -30zM560 526q0 -37 -22 -63.5t-56 -26.5q-30 0 -47.5 17.5t-17.5 41.5q0 42 37 68q-15 23 -62 23q-74 0 -125 -66.5t-75 -187.5q61 68 145 68q76 0 124.5 -46.5
t48.5 -122.5q0 -94 -64.5 -170.5t-175.5 -76.5q-100 0 -157.5 63.5t-57.5 177.5q0 105 39 201t117 160t177 64q76 0 124 -34.5t48 -89.5z" />
    <glyph glyph-name="seven" unicode="7" horiz-adv-x="535" 
d="M247 58q-14 -40 -32 -58.5t-46 -18.5t-47.5 19t-19.5 46q0 68 98.5 186.5t221.5 216.5q69 57 79 65l-4 5q-58 -31 -112 -31q-40 0 -80.5 19.5t-55.5 19.5q-27 0 -47 -26.5t-51 -103.5h-70l59 240h77l-13 -76h6q48 82 109 82q26 0 47 -14.5t32.5 -31.5t29.5 -31.5
t40 -14.5q10 0 20 2q-5 14 -5 30q0 29 17 48t46 19q26 0 43 -16.5t17 -39.5q0 -30 -17.5 -54.5t-60.5 -58.5q-91 -72 -159 -171t-122 -252z" />
    <glyph glyph-name="eight" unicode="8" horiz-adv-x="545" 
d="M543 494q0 -57 -39.5 -98.5t-107.5 -58.5q97 -57 97 -149q0 -84 -66 -144t-178 -60q-104 0 -163 46.5t-59 116.5q0 60 44 103.5t120 59.5q-83 53 -83 140q0 79 63 139.5t169 60.5q94 0 148.5 -45.5t54.5 -110.5zM241 283q-6 2 -8 4q-48 -20 -75 -55.5t-27 -78.5
q0 -46 31.5 -76t91.5 -30q58 0 91 30t33 74q0 23 -9 40.5t-33 34.5t-40.5 26t-55.5 28zM355 363l-1 -3q44 22 67.5 58t23.5 75q0 42 -27 68.5t-79 26.5t-83 -28.5t-31 -68.5q0 -44 31 -70t99 -58z" />
    <glyph glyph-name="nine" unicode="9" horiz-adv-x="550" 
d="M327 585q-55 0 -88 -59.5t-33 -132.5q0 -50 23 -76.5t62 -26.5q57 0 91.5 52.5t34.5 124.5q0 56 -24 87t-66 31zM21 114q0 36 22 61.5t57 25.5q30 0 47.5 -17.5t17.5 -41.5q0 -41 -37 -68q23 -26 71 -26q74 0 124 64.5t72 181.5q-58 -68 -145 -68q-76 0 -123.5 47
t-47.5 126q0 96 64.5 173.5t175.5 77.5q101 0 158.5 -63.5t57.5 -178.5q0 -107 -37.5 -202t-114 -158.5t-176.5 -63.5q-84 0 -135 37.5t-51 92.5z" />
    <glyph glyph-name="colon" unicode=":" horiz-adv-x="254" 
d="M82 -16q-29 0 -48 19.5t-19 51.5t21.5 58t55.5 26q29 0 48 -19.5t19 -51.5t-21.5 -58t-55.5 -26zM158 270q-29 0 -48 19.5t-19 51.5t21.5 58t55.5 26q29 0 48 -19.5t19 -51.5t-21.5 -58t-55.5 -26z" />
    <glyph glyph-name="semicolon" unicode=";" horiz-adv-x="254" 
d="M-45 -153l-12 45q117 33 146 104l-6 4q-9 -6 -21 -6q-24 0 -39 16t-15 43q0 33 21.5 58.5t54.5 25.5q38 0 59.5 -25.5t21.5 -64.5q0 -68 -54 -121.5t-156 -78.5zM158 270q-29 0 -48 19.5t-19 51.5t21.5 58t55.5 26q29 0 48 -19.5t19 -51.5t-21.5 -58t-55.5 -26z" />
    <glyph glyph-name="less" unicode="&#x3c;" horiz-adv-x="524" 
d="M398 69l-323 184l17 72l394 174l22 -66l-351 -151l271 -145z" />
    <glyph glyph-name="equal" unicode="=" horiz-adv-x="525" 
d="M81 343l19 72h417l-19 -72h-417zM33 150l19 72h417l-19 -72h-417z" />
    <glyph glyph-name="greater" unicode="&#x3e;" horiz-adv-x="524" 
d="M153 499l323 -184l-17 -72l-393 -174l-23 65l352 151l-272 145z" />
    <glyph glyph-name="question" unicode="?" horiz-adv-x="464" 
d="M369 256q-55 -74 -144 -74q-49 0 -83 27t-34 76q0 52 37.5 83.5t112.5 60.5q47 18 72 30t45.5 35t20.5 53q0 35 -24 55.5t-69 20.5q-48 0 -77 -21q19 -26 19 -52q0 -30 -20.5 -53t-54.5 -23q-29 0 -48 19.5t-19 49.5q0 58 58 99.5t148 41.5q97 0 149 -45.5t52 -112.5
q0 -70 -47.5 -107t-138.5 -66q-63 -21 -90 -37t-27 -43q0 -32 39 -32q42 0 90 47zM167 -16q-30 0 -49 19t-19 50q0 29 21 53t54 24q30 0 49 -18.5t19 -50.5q0 -29 -21 -53t-54 -24z" />
    <glyph glyph-name="at" unicode="@" horiz-adv-x="886" 
d="M632 -48l21 -40q-106 -61 -239 -61q-161 0 -264.5 96t-103.5 256q0 201 142 342t340 141q146 0 241.5 -83t95.5 -224q0 -131 -67.5 -227.5t-170.5 -96.5q-54 0 -86 29t-26 85l-4 1q-26 -51 -63 -78t-75 -27q-59 0 -95 41t-36 111q0 103 68 182.5t157 79.5q38 0 64.5 -23
t30.5 -60l24 76h95l-77 -244q-37 -117 44 -117q57 0 107.5 77t50.5 189q0 120 -77.5 190.5t-204.5 70.5q-84 0 -161.5 -35t-134 -93t-90.5 -138t-34 -167q0 -136 87 -221t229 -85q115 0 212 53zM403 132q57 0 94.5 73.5t37.5 139.5q0 78 -56 78q-31 0 -57 -23.5t-41.5 -58.5
t-24 -71t-8.5 -65q0 -73 55 -73z" />
    <glyph glyph-name="A" unicode="A" 
d="M345 75h95l-12 147h-221l-86 -147h83l-18 -75h-245l19 75h69l355 587h123l60 -587h88l-19 -75h-309zM245 289h178l-21 264h-4z" />
    <glyph glyph-name="B" unicode="B" horiz-adv-x="642" 
d="M-26 0l17 75h101l126 508h-102l19 75h289q122 0 174 -40t52 -100q0 -64 -50.5 -113.5t-158.5 -58.5l-1 -5q79 -13 119.5 -50.5t40.5 -92.5q0 -71 -49 -120q-78 -78 -267 -78h-310zM293 379h75q77 0 115 38t38 86q0 40 -25.5 60t-86.5 20h-65zM218 75h78q93 0 135.5 38.5
t42.5 100.5q0 95 -138 95h-60z" />
    <glyph glyph-name="C" unicode="C" horiz-adv-x="677" 
d="M337 -16q-134 0 -204.5 76.5t-70.5 202.5q0 75 27 149t74 132t117 94t150 36q125 0 179 -81l41 78h77l-64 -260h-75q-13 190 -154 190q-62 0 -111 -38t-75 -95.5t-39 -113t-13 -101.5q0 -95 42.5 -142t112.5 -47q75 0 126 51t92 147l71 -25q-41 -115 -115.5 -184
t-187.5 -69z" />
    <glyph glyph-name="D" unicode="D" horiz-adv-x="718" 
d="M-26 0l17 75h101l126 508h-102l19 75h265q152 0 235 -71t83 -186q0 -74 -30 -149t-86 -130q-120 -122 -339 -122h-289zM218 74h56q133 0 204 71q44 44 73 124.5t29 153.5q0 161 -181 161h-54z" />
    <glyph glyph-name="E" unicode="E" 
d="M135 658h584l-55 -223h-60q-2 95 -18 122t-76 27h-165l-53 -214h46q50 0 69 16t48 81h65l-66 -264h-63q7 65 -4 82t-59 17h-53l-57 -228h167q65 0 93 29.5t81 141.5h66l-61 -245h-590l17 75h101l126 508h-102z" />
    <glyph glyph-name="F" unicode="F" horiz-adv-x="639" 
d="M288 358h37q49 0 69.5 18t45.5 80h64l-67 -268h-63q8 69 -2.5 86t-61.5 17h-39l-53 -216h116l-18 -75h-342l17 75h101l126 508h-102l19 75h570l-57 -228h-60q-4 98 -23.5 126t-80.5 28h-140z" />
    <glyph glyph-name="G" unicode="G" horiz-adv-x="715" 
d="M331 63q64 0 109 47.5t65 125.5l6 24h-118l19 75h324l-18 -75h-82l-69 -267h-74l-8 88q-68 -97 -183 -97q-112 0 -176 77.5t-64 197.5q0 104 45 198t131 155.5t192 61.5q125 0 179 -81l41 78h77l-63 -256h-80q-14 186 -150 186q-62 0 -111 -38.5t-75 -96t-39 -113
t-13 -101.5q0 -98 39 -143.5t96 -45.5z" />
    <glyph glyph-name="H" unicode="H" horiz-adv-x="784" 
d="M-26 0l17 75h101l126 508h-102l19 75h316l-18 -75h-88l-52 -207h270l51 207h-89l18 75h316l-18 -75h-101l-126 -508h102l-18 -75h-316l18 75h88l58 231h-270l-58 -231h90l-18 -75h-316z" />
    <glyph glyph-name="I" unicode="I" horiz-adv-x="402" 
d="M-19 0l17 75h101l126 508h-102l19 75h329l-19 -75h-100l-127 -508h102l-18 -75h-328z" />
    <glyph glyph-name="J" unicode="J" horiz-adv-x="561" 
d="M539 583l-98 -396q-52 -203 -242 -203q-92 0 -145 44.5t-53 106.5q0 48 27 80.5t71 32.5q33 0 52.5 -20.5t19.5 -50.5q0 -60 -66 -81q8 -17 31.5 -29.5t55.5 -12.5q47 0 76.5 33.5t47.5 106.5l97 389h-104l18 75h326l-18 -75h-96z" />
    <glyph glyph-name="K" unicode="K" horiz-adv-x="715" 
d="M698 583l-247 -200l145 -308h86l-18 -75h-304l18 74h79l-102 232l-99 -81l-38 -151h87l-18 -74h-313l17 75h101l126 508h-102l19 75h315l-19 -74h-86l-65 -260l307 260h-81l19 74h268l-18 -75h-77z" />
    <glyph glyph-name="L" unicode="L" horiz-adv-x="603" 
d="M135 658h333l-18 -74h-105l-127 -510h118q67 0 97 31.5t83 143.5h62l-62 -249h-542l17 75h101l126 508h-102z" />
    <glyph glyph-name="M" unicode="M" horiz-adv-x="931" 
d="M-23 0l18 75h92l126 508h-93l18 75h275l39 -458h3l263 458h287l-19 -75h-96l-127 -508h98l-18 -75h-304l18 75h80l123 495h-10l-338 -570h-57l-56 570h-9l-123 -495h86l-17 -75h-259z" />
    <glyph glyph-name="N" unicode="N" horiz-adv-x="774" 
d="M501 -13l-210 533h-9l-111 -445h97l-18 -75h-270l18 75h93l126 508h-94l18 75h229l188 -474h9l99 399h-96l18 75h271l-19 -75h-93l-149 -596h-97z" />
    <glyph glyph-name="O" unicode="O" horiz-adv-x="720" 
d="M62 273q0 98 44.5 189t130.5 151.5t193 60.5q123 0 201 -80t78 -209q0 -98 -44.5 -189t-130.5 -151.5t-192 -60.5q-123 0 -201.5 80t-78.5 209zM425 601q-58 0 -104.5 -39.5t-72 -99t-39 -120.5t-13.5 -113q0 -85 39.5 -128.5t111.5 -43.5q58 0 104 39.5t72 99
t39.5 120.5t13.5 113q0 85 -40 128.5t-111 43.5z" />
    <glyph glyph-name="P" unicode="P" horiz-adv-x="621" 
d="M265 263l-47 -188h109l-17 -75h-336l17 75h101l126 508h-102l19 75h277q129 0 189.5 -46t60.5 -122q0 -41 -15.5 -78.5t-49.5 -72t-99 -55.5t-153 -21h-80zM283 334h66q89 0 131 45.5t42 111.5q0 93 -134 93h-43z" />
    <glyph glyph-name="Q" unicode="Q" horiz-adv-x="720" 
d="M344 -14q-126 0 -204 79t-78 208q0 98 44.5 189t130.5 151.5t193 60.5q123 0 201 -80t78 -209q0 -103 -51 -199.5t-138 -150.5q20 -54 56 -54q24 0 40.5 16t36.5 65l53 -18q-48 -154 -152 -154q-53 0 -82.5 28t-46.5 78q-37 -10 -81 -10zM208 154q37 101 137 101
q61 0 93 -32t52 -89q43 58 64.5 141.5t21.5 153.5q0 85 -40 128.5t-111 43.5q-58 0 -104.5 -39.5t-72 -99t-39 -120.5t-13.5 -113q0 -53 12 -75zM348 55q30 0 57 10q-13 56 -32 84.5t-56 28.5q-27 0 -45.5 -18t-18.5 -42q0 -28 27.5 -45.5t67.5 -17.5z" />
    <glyph glyph-name="R" unicode="R" horiz-adv-x="688" 
d="M-26 0l17 75h101l126 508h-102l19 75h322q116 0 167.5 -42.5t51.5 -105.5q0 -74 -54.5 -125t-165.5 -61l-3 -8q64 -13 90.5 -40.5t26.5 -74.5q0 -17 -5 -51t-5 -48q0 -20 8.5 -27.5t26.5 -7.5q25 0 54 28l27 -39q-55 -68 -134 -68q-54 0 -84 23.5t-30 69.5q0 21 10 72
t10 76q0 29 -20.5 44t-69.5 15h-87l-53 -213h100l-18 -75h-326zM289 358h82q86 0 126 40q40 38 40 108q-2 78 -104 78h-88z" />
    <glyph glyph-name="S" unicode="S" horiz-adv-x="587" 
d="M-9 -13l60 247h71q14 -88 61.5 -133.5t115.5 -45.5q57 0 91 30.5t34 71.5q0 26 -21 48.5t-39 32t-65 31.5l-12 6q-40 18 -63.5 31t-53 35.5t-43.5 52.5t-14 68q0 85 68 148.5t166 63.5q53 0 99 -20.5t71 -55.5l41 73h75l-59 -237h-70q-15 91 -53 130.5t-104 39.5
q-48 0 -79.5 -29.5t-31.5 -69.5t32.5 -64.5t97.5 -53.5q7 -3 10 -4q39 -17 62.5 -29.5t52 -34.5t42 -51.5t13.5 -66.5q0 -92 -71.5 -154.5t-174.5 -62.5q-127 0 -190 80l-44 -77h-75z" />
    <glyph glyph-name="T" unicode="T" horiz-adv-x="676" 
d="M106 0l18 75h108l129 519h-35q-59 0 -90 -31.5t-96 -151.5h-62l63 247h600l-62 -247h-57q-4 117 -20.5 150t-76.5 33h-35l-129 -519h110l-18 -75h-347z" />
    <glyph glyph-name="U" unicode="U" horiz-adv-x="735" 
d="M351 -17q-118 0 -182.5 51.5t-64.5 132.5q0 41 12 89l82 327h-92l19 75h309l-19 -75h-91l-83 -333q-9 -39 -9 -71q0 -55 38.5 -84t101.5 -29q72 0 115 43q38 38 58 115l89 359h-94l19 75h263l-18 -75h-88l-96 -385q-23 -93 -75 -145q-70 -70 -194 -70z" />
    <glyph glyph-name="V" unicode="V" horiz-adv-x="676" 
d="M289 583l44 -467h4l276 467h-84l19 75h244l-18 -75h-69l-362 -587h-115l-67 587h-87l18 75h309l-18 -75h-94z" />
    <glyph glyph-name="W" unicode="W" horiz-adv-x="983" 
d="M566 -4l-19 399l-231 -399h-115l-39 587h-88l18 75h301l-18 -74h-86l21 -458h5l225 387l-3 71h-87l18 74h301l-18 -74h-92l15 -458h5l242 458h-85l18 74h245l-19 -75h-68l-329 -587h-117z" />
    <glyph glyph-name="X" unicode="X" horiz-adv-x="679" 
d="M404 584h-82l78 -185l175 185h-78l19 74h254l-18 -75h-77l-239 -243l119 -265h86l-18 -75h-303l18 74h84l-83 198l-190 -198h79l-18 -74h-255l19 75h76l253 256l-116 252h-85l18 75h302z" />
    <glyph glyph-name="Y" unicode="Y" horiz-adv-x="638" 
d="M381 343l195 241h-80l18 74h237l-19 -75h-70l-265 -314l-48 -194h97l-18 -75h-318l18 75h95l51 202l-101 306h-79l19 75h301l-19 -74h-86z" />
    <glyph glyph-name="Z" unicode="Z" horiz-adv-x="619" 
d="M-20 0l16 63l507 521h-158q-43 0 -66 -10.5t-49 -45.5t-71 -119h-58l62 249h520l-16 -63l-506 -521h179q60 0 91 30t96 152h59l-64 -256h-542z" />
    <glyph glyph-name="bracketleft" unicode="[" horiz-adv-x="353" 
d="M-11 -158l219 881h278l-18 -69h-164l-184 -743h163l-17 -69h-277z" />
    <glyph glyph-name="backslash" unicode="\" horiz-adv-x="429" 
d="M365 -196l-74 -14l-159 910l73 14z" />
    <glyph glyph-name="bracketright" unicode="]" horiz-adv-x="353" 
d="M390 723l-219 -881h-278l18 69h164l184 743h-163l17 69h277z" />
    <glyph glyph-name="asciicircum" unicode="^" horiz-adv-x="350" 
d="M86 506l177 211h61l71 -211h-63l-57 109l-121 -109h-68z" />
    <glyph glyph-name="underscore" unicode="_" horiz-adv-x="443" 
d="M-55 0l18 75h447l-19 -75h-446z" />
    <glyph glyph-name="grave" unicode="`" horiz-adv-x="251" 
d="M261 644l20 -110h-53l-49 75q-34 51 -34 80q0 19 14.5 34.5t35.5 15.5q22 0 35.5 -13.5t18.5 -30.5t12 -51z" />
    <glyph glyph-name="a" unicode="a" horiz-adv-x="564" 
d="M511 464l-82 -310q-11 -36 -11 -57q0 -26 23 -26q32 0 67 101l48 -15q-53 -167 -154 -167q-37 0 -59.5 23t-22.5 65q0 12 1 22l-7 3q-28 -55 -68 -84t-84 -29q-62 0 -97.5 45t-35.5 114q0 74 26.5 139.5t68.5 106.5q74 76 156 76q40 0 65 -24t32 -60l20 77h114zM208 70
q55 0 99.5 92t44.5 164q0 80 -54 80q-41 0 -77 -45.5t-53.5 -101.5t-17.5 -100q0 -89 58 -89z" />
    <glyph glyph-name="b" unicode="b" horiz-adv-x="517" 
d="M313 393q-56 0 -103.5 -87t-47.5 -165q0 -86 61 -86q43 0 78 47.5t51 104t16 100.5q0 86 -55 86zM295 689l-101 -334l8 -3q30 57 71 88t84 31q63 0 97.5 -46t34.5 -118q0 -125 -84.5 -221t-193.5 -96q-81 0 -122.5 43.5t-41.5 115.5q0 54 30 163l82 299h-83l20 78h199z
" />
    <glyph glyph-name="c" unicode="c" horiz-adv-x="469" 
d="M305 471q64 0 104.5 -32.5t40.5 -85.5q0 -34 -19.5 -60t-50.5 -26q-26 0 -42.5 15.5t-16.5 38.5q0 39 41 68q-14 25 -55 25q-47 0 -85 -42.5t-56 -96.5t-18 -101q0 -59 26 -86t65 -27q69 0 130 95l43 -29q-79 -137 -200 -137q-82 0 -133 51t-51 133q0 117 84.5 207
t192.5 90z" />
    <glyph glyph-name="d" unicode="d" horiz-adv-x="564" 
d="M208 70q38 0 73 47.5t54 108.5t19 108q0 72 -54 72q-44 0 -80 -46t-53 -101.5t-17 -99.5q0 -89 58 -89zM508 172l48 -15q-53 -167 -154 -167q-36 0 -59 23t-23 65q0 12 1 22l-7 3q-28 -55 -68 -84t-84 -29q-62 0 -97.5 45t-35.5 114q0 74 26.5 139.5t68.5 106.5
q74 76 156 76q76 0 99 -75l57 215h-83l20 78h198l-142 -535q-11 -36 -11 -57q0 -26 23 -26q32 0 67 101z" />
    <glyph glyph-name="e" unicode="e" horiz-adv-x="471" 
d="M452 367q0 -72 -77 -121t-227 -58q-1 -8 -1 -23q0 -109 93 -109q75 0 140 92l42 -30q-43 -61 -94 -94.5t-125 -33.5q-78 0 -126.5 50t-48.5 132q0 117 87 208t203 91q63 0 98.5 -28.5t35.5 -75.5zM301 416q-49 0 -87.5 -54.5t-56.5 -126.5q99 11 144.5 46t45.5 85
q0 22 -12 36t-34 14z" />
    <glyph glyph-name="f" unicode="f" horiz-adv-x="354" 
d="M-28 -170q-44 0 -67.5 20.5t-23.5 50.5q0 29 18.5 50t47.5 21q24 0 37.5 -15t13.5 -36q0 -30 -14 -44q27 -1 41 25.5t33 117.5l77 369h-93l16 61h89q26 119 88 181.5t149 62.5q61 0 93.5 -26.5t32.5 -64.5q0 -34 -20.5 -59t-51.5 -25q-26 0 -42 14.5t-16 40.5q0 39 28 62
q-9 6 -27 6q-49 0 -71.5 -38t-41.5 -129l-5 -25h132l-16 -61h-129l-67 -318q-27 -127 -84 -184t-127 -57z" />
    <glyph glyph-name="g" unicode="g" horiz-adv-x="519" 
d="M92 -106q22 -10 58 -10q54 0 89 36q41 41 71 169l-7 3q-52 -70 -134 -70q-64 0 -100.5 44t-36.5 109q0 138 92 230q66 66 145 66q41 0 70 -23t38 -59l19 75h114l-91 -387q-31 -131 -98 -189t-169 -58q-29 0 -55.5 4.5t-52.5 14.5t-42 30.5t-16 48.5t18.5 51t49.5 23
q29 0 44 -16.5t15 -41.5q0 -29 -21 -50zM214 96q55 0 97 72t42 153q0 38 -18.5 61.5t-46.5 23.5q-39 0 -71 -38t-48 -89.5t-16 -99.5q0 -83 61 -83z" />
    <glyph glyph-name="h" unicode="h" horiz-adv-x="568" 
d="M402 -10q-41 0 -65 25t-24 68q0 54 33 145.5t33 121.5q0 33 -27 33q-19 0 -43 -17.5t-53.5 -57.5t-62.5 -119.5t-62 -188.5h-120l162 611h-83l20 78h199l-127 -426l7 -3q47 104 104 157.5t112 53.5q41 0 66 -29t25 -75q0 -45 -37 -146t-37 -128q0 -22 17 -22q29 0 69 101
l47 -15q-55 -167 -153 -167z" />
    <glyph glyph-name="i" unicode="i" horiz-adv-x="345" 
d="M325 629q0 -33 -24.5 -60.5t-61.5 -27.5q-27 0 -44.5 17.5t-17.5 46.5q0 33 23.5 60.5t60.5 27.5q29 0 46.5 -17t17.5 -47zM272 370q0 -42 -40.5 -145t-40.5 -130q0 -24 20 -24q30 0 71 101l47 -15q-55 -167 -159 -167q-40 0 -65 25t-25 69q0 52 41.5 158t41.5 133
q0 22 -15 22q-34 0 -81 -105l-48 20q68 159 164 159q40 0 64.5 -27t24.5 -74z" />
    <glyph glyph-name="j" unicode="j" horiz-adv-x="309" 
d="M325 629q0 -33 -24.5 -60.5t-61.5 -27.5q-27 0 -44.5 17.5t-17.5 46.5q0 33 23.5 60.5t60.5 27.5q29 0 46.5 -17t17.5 -47zM272 376q0 -32 -14 -85l-63 -239q-59 -222 -212 -222q-50 0 -75 20t-25 51q0 29 19 50t47 21q24 0 38 -15t14 -36q0 -28 -16 -48q33 -1 51.5 30.5
t45.5 137.5l66 253q15 60 15 80q0 23 -17 23q-30 0 -79 -105l-47 20q68 159 165 159q38 0 62.5 -26.5t24.5 -68.5z" />
    <glyph glyph-name="k" unicode="k" horiz-adv-x="529" 
d="M373 98q0 -27 19 -27q29 0 67 101l47 -15q-52 -167 -148 -167q-43 0 -68 27t-25 75q0 15 5.5 47.5t5.5 42.5q0 28 -17.5 37t-71.5 9h-2l-61 -228h-113l162 611h-83l20 78h199l-112 -416h5q37 0 60 21.5t59 81.5q29 47 56.5 71t68.5 24q35 0 54.5 -20t19.5 -53t-19 -58.5
t-49 -25.5t-44 22.5t-3 53.5q-19 -4 -52 -58q-29 -55 -66 -74q51 -4 72.5 -25.5t21.5 -58.5q0 -16 -4 -42t-4 -34z" />
    <glyph glyph-name="l" unicode="l" horiz-adv-x="305" 
d="M40 84q0 37 27 137l106 390h-84l20 78h199l-142 -521q-15 -54 -15 -73q0 -24 20 -24q33 0 71 101l47 -15q-55 -167 -156 -167q-44 0 -68.5 25t-24.5 69z" />
    <glyph glyph-name="m" unicode="m" horiz-adv-x="877" 
d="M711 -10q-41 0 -65 25t-24 68q0 54 33 145.5t33 121.5q0 33 -27 33q-18 0 -40.5 -17.5t-51 -57.5t-60 -119.5t-59.5 -188.5h-118l70 264q14 51 14 76q0 43 -30 43q-19 0 -42 -17.5t-51 -57.5t-59.5 -119.5t-59.5 -188.5h-120l86 324q11 43 9.5 58t-15.5 15
q-29 0 -78 -105l-47 20q68 158 160 158q33 0 53 -24t20 -69q0 -47 -21 -111l7 -3q48 103 102 155.5t106 52.5q41 0 62.5 -25.5t21.5 -71.5q0 -37 -23 -108l7 -3q97 208 211 208q41 0 65.5 -29t24.5 -75q0 -45 -37 -146t-37 -128q0 -22 17 -22q29 0 69 101l47 -15
q-55 -167 -153 -167z" />
    <glyph glyph-name="n" unicode="n" horiz-adv-x="602" 
d="M456 93q0 -22 17 -22q29 0 69 101l47 -15q-55 -167 -153 -167q-41 0 -65 25t-24 68q0 54 33 145.5t33 121.5q0 33 -27 33q-19 0 -42 -17.5t-51 -57.5t-59.5 -119.5t-59.5 -188.5h-120l86 324q11 43 9.5 58t-15.5 15q-29 0 -78 -105l-47 20q68 158 160 158q33 0 53 -24
t20 -69q0 -47 -21 -111l7 -3q97 208 211 208q41 0 66 -29t25 -75q0 -45 -37 -146t-37 -128z" />
    <glyph glyph-name="o" unicode="o" horiz-adv-x="510" 
d="M292 471q86 0 138 -54t52 -139q0 -116 -79.5 -202t-184.5 -86q-85 0 -137.5 54t-52.5 140q0 116 79.5 201.5t184.5 85.5zM363 325q0 91 -70 91q-43 0 -78 -50.5t-51.5 -113t-16.5 -115.5q0 -91 70 -91q43 0 78 50.5t51.5 113t16.5 115.5z" />
    <glyph glyph-name="p" unicode="p" horiz-adv-x="563" 
d="M359 393q-38 0 -73.5 -44t-55.5 -102t-20 -103q0 -38 16.5 -60.5t48.5 -22.5q31 0 58.5 27t44.5 67t26.5 81t9.5 72q0 85 -55 85zM137 313q20 75 -8 75q-16 0 -32 -21.5t-41 -74.5l-47 20q36 83 73.5 120.5t84.5 37.5q34 0 54.5 -24t20.5 -66q0 -7 -2 -25l8 -3
q28 57 69.5 88t84.5 31q62 0 97 -45t35 -117q0 -121 -71 -215.5t-163 -94.5q-39 0 -69 18t-45 49l-40 -149h94l-20 -74h-277l20 74h68z" />
    <glyph glyph-name="q" unicode="q" horiz-adv-x="521" 
d="M514 464l-144 -547h73l-20 -74h-277l20 74h90l49 174l-7 3q-24 -43 -60.5 -68.5t-76.5 -25.5q-62 0 -96.5 47t-34.5 118q0 137 92 229q77 77 159 77q41 0 66.5 -24t31.5 -60l21 77h114zM205 78q39 0 75 44.5t55.5 101.5t19.5 102q0 80 -56 80q-43 0 -78.5 -44.5
t-52.5 -99.5t-17 -98q0 -86 54 -86z" />
    <glyph glyph-name="r" unicode="r" horiz-adv-x="470" 
d="M54 0l86 324q11 43 9.5 58t-15.5 15q-29 0 -78 -105l-47 20q68 158 160 158q33 0 53 -24t20 -69t-20 -108l8 -3q47 106 86.5 155.5t89.5 49.5q32 0 52.5 -20.5t20.5 -55.5q0 -37 -21 -63.5t-51 -26.5q-27 0 -44 17.5t-16 47.5q-13 -5 -30 -25.5t-40 -60.5t-50.5 -114
t-52.5 -170h-120z" />
    <glyph glyph-name="s" unicode="s" horiz-adv-x="442" 
d="M389 147q0 -74 -55 -115.5t-134 -41.5q-76 0 -133.5 31t-57.5 85q0 30 18.5 51t47.5 21q28 0 43.5 -16.5t15.5 -38.5q0 -35 -24 -55q29 -26 86 -26q39 0 61 18.5t22 52.5q0 18 -14 33t-30 23.5t-48 23.5q-28 13 -44 22t-35.5 24t-28.5 34.5t-9 43.5q0 73 57.5 113.5
t130.5 40.5q76 0 124 -30t48 -75q0 -30 -18 -51t-46 -21q-27 0 -43 16t-16 39q0 32 24 53q-21 19 -69 19q-37 0 -60 -18t-23 -49q0 -27 22.5 -44t77.5 -42q25 -11 40.5 -19.5t33.5 -23.5t27 -34t9 -44z" />
    <glyph glyph-name="t" unicode="t" horiz-adv-x="388" 
d="M389 389h-142l-60 -219q-12 -43 -12 -60q0 -36 35 -36q47 0 94 108l48 -16q-33 -96 -82 -136t-98 -40q-51 0 -82 26t-31 75q0 27 18 99l54 199h-88l16 61h88l33 120l119 13l-36 -133h142z" />
    <glyph glyph-name="u" unicode="u" horiz-adv-x="600" 
d="M445 -10q-85 0 -85 94q0 44 22 114l-7 3q-96 -211 -208 -211q-41 0 -66 29t-25 76q0 45 35.5 147t35.5 127q0 21 -15 21q-16 0 -31.5 -20.5t-42.5 -76.5l-47 20q65 158 163 158q40 0 62 -24t22 -67q0 -50 -33 -142.5t-33 -120.5q0 -39 28 -39q19 0 41 17.5t49.5 57.5
t59 120t60.5 191h120l-82 -310q-11 -37 -11 -57q0 -26 23 -26q32 0 67 101l48 -15q-53 -167 -150 -167z" />
    <glyph glyph-name="v" unicode="v" horiz-adv-x="504" 
d="M178 471q40 0 61.5 -23.5t21.5 -63.5q0 -49 -36 -140t-36 -117t17.5 -40t45.5 -14q65 0 116 88t55 176q-11 -7 -29 -7q-25 0 -42 17t-17 46q0 32 21.5 56.5t52.5 24.5q79 0 79 -109q0 -72 -33.5 -158t-99.5 -152.5t-143 -66.5q-60 0 -98 35t-38 87q0 46 38 142t38 116
q0 22 -16 22q-18 0 -33 -20.5t-44 -77.5l-47 20q70 159 166 159z" />
    <glyph glyph-name="w" unicode="w" horiz-adv-x="746" 
d="M181 471q41 0 62 -23.5t21 -64.5q0 -54 -41 -147.5t-41 -123.5q0 -39 36 -39q28 0 57 33.5t65.5 124.5t68.5 233h108l-49 -205q-17 -71 -17 -119q0 -67 50 -67q42 0 79 43.5t58.5 103t24.5 116.5q-12 -6 -27 -6q-26 0 -42.5 17t-16.5 46q0 32 21.5 56.5t51.5 24.5
q37 0 58.5 -26t21.5 -76q0 -55 -18 -119.5t-50 -124.5t-84 -100t-111 -40q-53 0 -83.5 33t-29.5 99q0 17 2 30l-7 2q-63 -164 -169 -164q-49 0 -80.5 30.5t-31.5 83.5q0 49 43 144.5t43 122.5q0 21 -15 21q-18 0 -34 -21.5t-43 -76.5l-47 20q70 159 166 159z" />
    <glyph glyph-name="x" unicode="x" horiz-adv-x="559" 
d="M332 162q0 -92 47 -92q23 0 42.5 26t40.5 81l48 -20q-53 -167 -162 -167q-103 0 -109 149h-6q-29 -75 -70 -113t-85 -38q-36 0 -57.5 21.5t-21.5 55.5q0 31 18 54.5t45 23.5q29 0 44 -20.5t10 -53.5q45 14 77 89.5t32 140.5q0 92 -45 92q-24 0 -43.5 -26t-39.5 -81
l-49 20q54 167 163 167q103 0 107 -149h6q29 74 70 112.5t86 38.5q36 0 57 -21t21 -56q0 -32 -18 -55t-45 -23q-29 0 -43.5 20.5t-10.5 54.5q-45 -15 -77 -91t-32 -140z" />
    <glyph glyph-name="y" unicode="y" horiz-adv-x="553" 
d="M176 471q38 0 60 -23.5t22 -63.5q0 -50 -29 -132.5t-29 -107.5q0 -35 33 -35q109 0 200 355h112l-92 -386q-58 -248 -269 -248q-63 0 -108.5 21.5t-45.5 71.5q0 27 19 49.5t50 22.5q29 0 44.5 -17.5t13.5 -43.5t-20 -43q21 -7 46 -7q116 0 165 202l20 79l-6 3
q-79 -145 -178 -145q-48 0 -73.5 29t-25.5 75q0 41 32 128.5t32 113.5q0 21 -15 21q-30 0 -76 -98l-47 20q70 159 165 159z" />
    <glyph glyph-name="z" unicode="z" horiz-adv-x="465" 
d="M141 137q28 -3 78.5 -20.5t73.5 -17.5q35 0 53 18.5t47 79.5l44 -18q-34 -101 -71 -145t-102 -44q-78 0 -130 81l-22 33l-9 -2q-15 -112 -72 -112q-23 0 -38 15t-15 36q0 61 99 90q50 61 117 113.5t126 79.5q-28 3 -76.5 20.5t-69.5 17.5q-34 0 -52 -18.5t-47 -78.5
l-45 17q34 101 71 145t102 44q73 0 125 -81l21 -33l9 2q15 112 72 112q23 0 38 -14.5t15 -35.5q0 -63 -99 -91q-50 -61 -116.5 -113t-126.5 -80z" />
    <glyph glyph-name="braceleft" unicode="{" horiz-adv-x="392" 
d="M307 -158q-105 10 -152 44t-47 97q0 39 27 113t27 97q0 54 -107 54h-32l18 71h28q83 0 117 33q24 24 35 67.5t13 84.5t16.5 87.5t42.5 74.5q66 67 231 58l-16 -66q-86 -1 -116 -31q-23 -24 -34 -81t-26 -118t-48 -94q-39 -41 -134 -50l-2 -6q119 -16 119 -94
q0 -30 -22.5 -100.5t-22.5 -95.5q0 -32 22.5 -50t79.5 -28z" />
    <glyph glyph-name="bar" unicode="|" horiz-adv-x="288" 
d="M-2 -198l227 911l75 -11l-228 -911z" />
    <glyph glyph-name="braceright" unicode="}" horiz-adv-x="392" 
d="M111 723q105 -10 152 -44t47 -97q0 -39 -27 -113t-27 -97q0 -54 107 -54h32l-18 -71h-28q-83 0 -117 -33q-24 -24 -35 -67.5t-13 -84.5t-16.5 -87.5t-42.5 -74.5q-66 -67 -231 -58l16 66q86 1 116 31q23 24 34 81t26 118t48 94q39 41 134 50l2 6q-119 16 -119 94
q0 30 22.5 100.5t22.5 95.5q0 32 -22.5 50t-79.5 28z" />
    <glyph glyph-name="asciitilde" unicode="~" horiz-adv-x="389" 
d="M146 304q-27 0 -55 -59h-57q25 72 54.5 107.5t73.5 35.5q28 0 52.5 -13.5t42.5 -27t30 -13.5q15 0 27 13t28 46h57q-25 -72 -54 -107.5t-74 -35.5q-36 0 -74.5 27t-50.5 27z" />
    <glyph glyph-name="uni00A0" unicode="&#xa0;" horiz-adv-x="174" 
 />
    <glyph glyph-name="exclamdown" unicode="&#xa1;" horiz-adv-x="288" 
d="M236 472q-14 -82 -30.5 -215t-23.5 -174q-7 -49 -25.5 -74.5t-55.5 -25.5q-32 0 -52 18t-20 48q0 7 1 14t3.5 17.5t5 19t8.5 24.5t10.5 28.5t14 37t16.5 43.5q55 140 94 250zM242 683q29 0 48.5 -18.5t19.5 -49.5q0 -29 -21 -53.5t-54 -24.5q-29 0 -48.5 18.5t-19.5 48.5
t21 54.5t54 24.5z" />
    <glyph glyph-name="cent" unicode="&#xa2;" horiz-adv-x="500" 
d="M313 557l63 -10l-19 -80q60 -9 93.5 -43.5t33.5 -77.5q0 -33 -18.5 -58t-49.5 -25q-27 0 -43 15.5t-16 39.5q0 41 38 68q-14 20 -56 26l-88 -351h8q79 0 143 95l43 -29q-77 -135 -211 -137l-23 -95l-63 10l23 91q-66 15 -102 62.5t-36 119.5q0 111 75 197t184 95z
M149 178q0 -80 46 -104l83 333q-61 -20 -95 -91.5t-34 -137.5z" />
    <glyph glyph-name="sterling" unicode="&#xa3;" horiz-adv-x="610" 
d="M487 277h-161q-3 -75 -55 -131l40 -15q90 -37 118 -37q30 0 48 18.5t39 71.5l52 -11q-26 -103 -62 -145.5t-97 -42.5q-49 0 -88 19t-87 57l-16 12q-27 -45 -56 -65.5t-67 -20.5q-43 0 -68 23.5t-25 61.5q0 42 37 72t96 30q33 0 76 -9q6 24 6 43q0 21 -10 69h-144l18 70
h110q-5 28 -5 55q0 109 74 178.5t180 69.5q86 0 134.5 -37.5t48.5 -90.5q0 -39 -23 -66.5t-60 -27.5q-30 0 -48.5 16.5t-18.5 45.5q0 49 47 70q-27 29 -76 29q-129 0 -129 -172q0 -35 5 -70h185zM105 42q38 0 75 55q-32 17 -62 17q-23 0 -36.5 -11.5t-13.5 -28.5
q0 -32 37 -32z" />
    <glyph glyph-name="yen" unicode="&#xa5;" horiz-adv-x="644" 
d="M109 333h148l-76 227h-79l19 74h289l-19 -74h-81l66 -222l177 222h-76l19 74h228l-18 -74h-71l-190 -227h141l-16 -68h-180l-13 -55h180l-17 -68h-181l-17 -69h109l-17 -73h-333l18 73h109l17 69h-183l18 68h182l14 55h-184z" />
    <glyph glyph-name="section" unicode="&#xa7;" horiz-adv-x="514" 
d="M481 286q0 -58 -40.5 -95t-107.5 -47q67 -46 67 -108q0 -69 -60.5 -113t-137.5 -44q-81 0 -143.5 34.5t-62.5 90.5q0 32 20 54.5t50 22.5q27 0 43 -15t16 -36q0 -43 -30 -62q37 -35 108 -35q41 0 64 19.5t23 52.5q0 31 -24.5 52t-83.5 53q-33 18 -50.5 29t-39 29.5
t-30.5 39t-9 46.5q0 56 41.5 93t109.5 46q-61 45 -61 105q0 70 60 113t137 43q79 0 133.5 -32.5t54.5 -83.5q0 -31 -19 -53t-50 -22q-27 0 -43.5 16t-16.5 37q0 36 29 58q-29 26 -88 26q-40 0 -63.5 -19t-23.5 -51q0 -31 25 -53t81 -52q29 -16 46.5 -27.5t37.5 -28.5
t29 -37.5t9 -45.5zM289 342l-44 24q-83 -18 -83 -81q0 -27 21 -46.5t58 -40.5l49 -27q82 19 82 81q0 26 -21.5 46.5t-61.5 43.5z" />
    <glyph glyph-name="dieresis" unicode="&#xa8;" horiz-adv-x="349" 
d="M248 628q0 -29 -22 -54.5t-55 -25.5q-24 0 -39.5 16t-15.5 42q0 31 20.5 56t53.5 25q26 0 42 -16t16 -43zM436 628q0 -29 -22 -54.5t-55 -25.5q-24 0 -39.5 16t-15.5 42q0 31 20.5 56t53.5 25q26 0 42 -16t16 -43z" />
    <glyph glyph-name="copyright" unicode="&#xa9;" horiz-adv-x="787" 
d="M412 -33q-155 0 -259.5 103.5t-104.5 258.5q0 154 104.5 258t259.5 104t259.5 -104t104.5 -258q0 -155 -104.5 -258.5t-259.5 -103.5zM412 10q135 0 224.5 91t89.5 228q0 136 -89.5 227.5t-224.5 91.5t-224.5 -91.5t-89.5 -227.5q0 -137 89.5 -228t224.5 -91zM418 141
q-81 0 -133 54.5t-52 137.5q0 80 54 135t127 55q62 0 100 -43l10 42h46v-142h-46q-19 50 -43.5 74.5t-60.5 24.5q-98 0 -98 -142q0 -147 106 -147q87 0 101 107h50q-8 -73 -50.5 -114.5t-110.5 -41.5z" />
    <glyph glyph-name="ordfeminine" unicode="&#xaa;" horiz-adv-x="419" 
d="M341 650h84l-60 -220q-7 -25 -7 -41q0 -18 16 -18q24 0 49 71l34 -10q-39 -120 -111 -120q-27 0 -43.5 16t-16.5 45q0 9 1 17l-6 2q-41 -80 -109 -80q-44 0 -70 32t-26 81q0 52 19.5 99t49.5 77q54 54 113 54q28 0 46 -17t23 -43zM207 370q39 0 70 65t31 116q0 57 -38 57
q-43 0 -73.5 -61.5t-30.5 -113.5q0 -63 41 -63z" />
    <glyph glyph-name="guillemotleft" unicode="&#xab;" horiz-adv-x="509" 
d="M176 31l-127 160q-18 22 -18 37q0 18 36 45l201 148l30 -33l-157 -167l77 -164zM382 31l-127 160q-17 22 -17 37q0 18 36 45l200 148l30 -33l-157 -167l78 -164z" />
    <glyph glyph-name="registered" unicode="&#xae;" horiz-adv-x="512" 
d="M316 248q-95 0 -158.5 63t-63.5 158q0 96 63.5 158.5t158.5 62.5q96 0 159.5 -62.5t63.5 -158.5q0 -95 -64 -158t-159 -63zM316 280q84 0 134.5 52t50.5 137t-50.5 136.5t-134.5 51.5q-82 0 -132.5 -52t-50.5 -136t50.5 -136.5t132.5 -52.5zM292 456v-70h33v-27h-116v27
h33v171h-33v28h121q47 0 68 -17t21 -42q0 -48 -66 -56v-2q28 -4 40 -15.5t15 -33.5l1 -17q3 -17 10 -17q8 0 15 19l18 -7q-12 -43 -47 -43q-48 0 -48 52v16q0 18 -7 26t-27 8h-31zM292 482h31q41 0 41 40q0 19 -8.5 27t-30.5 8h-33v-75z" />
    <glyph glyph-name="macron" unicode="&#xaf;" horiz-adv-x="339" 
d="M117 546l21 84h272l-22 -84h-271z" />
    <glyph glyph-name="degree" unicode="&#xb0;" horiz-adv-x="397" 
d="M254 411q45 0 70 39.5t25 85.5q0 37 -19 57t-53 20q-45 0 -69.5 -39.5t-24.5 -85.5q0 -37 19 -57t52 -20zM432 535q0 -78 -52 -131t-130 -53q-72 0 -111.5 40t-39.5 97q0 79 51.5 132t130.5 53q72 0 111.5 -40t39.5 -98z" />
    <glyph glyph-name="plusminus" unicode="&#xb1;" horiz-adv-x="538" 
d="M218 161l40 160h-156l15 63h156l40 157h69l-40 -157h155l-15 -63h-155l-40 -160h-69zM408 28h-379l16 64h379z" />
    <glyph glyph-name="acute" unicode="&#xb4;" horiz-adv-x="251" 
d="M276 608l-93 -74h-59l83 134q25 39 41 55.5t39 16.5q22 0 36.5 -16t14.5 -35q0 -20 -12.5 -35t-49.5 -46z" />
    <glyph glyph-name="paragraph" unicode="&#xb6;" horiz-adv-x="645" 
d="M219 -107l68 273q-98 8 -156.5 60t-58.5 134q0 35 9.5 68.5t33.5 68.5t61 60.5t97 42t137 16.5h298l-18 -74h-87l-162 -649h-76l163 650h-70l-163 -650h-76z" />
    <glyph glyph-name="periodcentered" unicode="&#xb7;" horiz-adv-x="243" 
d="M139 242q-29 0 -48 19.5t-19 51.5t21.5 58t55.5 26q29 0 48 -19.5t19 -51.5t-21.5 -58t-55.5 -26z" />
    <glyph glyph-name="cedilla" unicode="&#xb8;" horiz-adv-x="306" 
d="M-60 -164q41 -28 83 -28q20 0 33 10t13 26q0 22 -24.5 31.5t-63.5 6.5l-13 31l114 93h68l-81 -69v-4q39 -7 62 -28t23 -53q0 -41 -32.5 -69.5t-91.5 -28.5q-70 0 -121 42z" />
    <glyph glyph-name="ordmasculine" unicode="&#xba;" horiz-adv-x="377" 
d="M270 655q61 0 98 -38.5t37 -99.5q0 -83 -56.5 -144t-132.5 -61q-61 0 -98.5 38.5t-37.5 100.5q0 82 57 143t133 61zM319 549q0 65 -47 65q-32 0 -57.5 -35.5t-37 -79.5t-11.5 -82q0 -65 48 -65q32 0 57 36t36.5 80t11.5 81z" />
    <glyph glyph-name="guillemotright" unicode="&#xbb;" horiz-adv-x="509" 
d="M331 420l127 -160q18 -22 18 -37q0 -18 -36 -45l-201 -148l-30 33l157 167l-77 164zM125 420l127 -160q17 -22 17 -37q0 -18 -36 -45l-200 -148l-30 33l157 167l-78 164z" />
    <glyph glyph-name="questiondown" unicode="&#xbf;" horiz-adv-x="464" 
d="M148 411q55 74 144 74q49 0 83 -27t34 -76q0 -52 -37.5 -83.5t-112.5 -60.5q-47 -18 -72 -30t-45.5 -35t-20.5 -53q0 -35 24 -55.5t69 -20.5q48 0 77 21q-19 26 -19 52q0 30 20.5 53t54.5 23q29 0 48 -19.5t19 -49.5q0 -58 -58 -99.5t-148 -41.5q-97 0 -149 45.5
t-52 112.5q0 70 47.5 107t138.5 66q63 21 90 37t27 43q0 32 -39 32q-42 0 -90 -47zM350 683q30 0 49 -19t19 -50q0 -29 -21 -53t-54 -24q-30 0 -49 18.5t-19 50.5q0 29 21 53t54 24z" />
    <glyph glyph-name="Agrave" unicode="&#xc0;" 
d="M345 75h95l-12 147h-221l-86 -147h83l-18 -75h-245l19 75h69l355 587h123l60 -587h88l-19 -75h-309zM245 289h178l-21 264h-4zM465 846l20 -110h-53l-49 75q-34 51 -34 80q0 19 14.5 34.5t35.5 15.5q22 0 35.5 -13.5t18.5 -30.5t12 -51z" />
    <glyph glyph-name="Aacute" unicode="&#xc1;" 
d="M345 75h95l-12 147h-221l-86 -147h83l-18 -75h-245l19 75h69l355 587h123l60 -587h88l-19 -75h-309zM245 289h178l-21 264h-4zM560 810l-93 -74h-59l83 134q25 39 41 55.5t39 16.5q22 0 36.5 -16t14.5 -35q0 -20 -12.5 -35t-49.5 -46z" />
    <glyph glyph-name="Acircumflex" unicode="&#xc2;" 
d="M345 75h95l-12 147h-221l-86 -147h83l-18 -75h-245l19 75h69l355 587h123l60 -587h88l-19 -75h-309zM245 289h178l-21 264h-4zM310 737l163 189h58l69 -189h-61l-54 90l-108 -90h-67z" />
    <glyph glyph-name="Atilde" unicode="&#xc3;" 
d="M345 75h95l-12 147h-221l-86 -147h83l-18 -75h-245l19 75h69l355 587h123l60 -587h88l-19 -75h-309zM245 289h178l-21 264h-4zM408 795q-15 0 -27 -13t-28 -45h-57q24 72 53.5 107.5t74.5 35.5q28 0 53.5 -13.5t44.5 -27t32 -13.5q15 0 27 13t28 45h57
q-24 -71 -53.5 -107t-74.5 -36q-28 0 -53.5 13.5t-44.5 27t-32 13.5z" />
    <glyph glyph-name="Adieresis" unicode="&#xc4;" 
d="M345 75h95l-12 147h-221l-86 -147h83l-18 -75h-245l19 75h69l355 587h123l60 -587h88l-19 -75h-309zM245 289h178l-21 264h-4zM455 830q0 -29 -22 -54.5t-55 -25.5q-24 0 -39.5 16t-15.5 42q0 31 20.5 56t53.5 25q26 0 42 -16t16 -43zM643 830q0 -29 -22 -54.5t-55 -25.5
q-24 0 -39.5 16t-15.5 42q0 31 20.5 56t53.5 25q26 0 42 -16t16 -43z" />
    <glyph glyph-name="Aring" unicode="&#xc5;" 
d="M576 765q0 -35 -18.5 -64.5t-49.5 -44.5l59 -581h88l-19 -75h-309l18 75h95l-12 147h-222l-86 -147h84l-18 -75h-245l19 75h69l357 589q-36 26 -36 74q0 51 34 86.5t88 35.5q48 0 76 -27.5t28 -67.5zM244 289h179l-21 265h-4zM409 737q0 -23 12.5 -37t35.5 -14
q27 0 43 26t16 56q0 23 -12.5 36.5t-34.5 13.5q-28 0 -44 -25.5t-16 -55.5z" />
    <glyph glyph-name="AE" unicode="&#xc6;" horiz-adv-x="1012" 
d="M330 75h100l40 157h-219l-132 -158h83l-18 -74h-258l18 75h70l443 508h-95l17 75h678l-55 -223h-60q-2 95 -18 122t-76 27h-165l-53 -214h46q50 0 69 16t48 81h65l-66 -264h-62q6 65 -5 82t-59 17h-53l-57 -228h167q65 0 93 29.5t82 141.5h66l-61 -245h-591zM308 299h178
l71 286h-8z" />
    <glyph glyph-name="Ccedilla" unicode="&#xc7;" horiz-adv-x="677" 
d="M162 -164q41 -28 83 -28q20 0 33 10t13 26q0 22 -24.5 31.5t-63.5 6.5l-13 31l92 75q-107 15 -163.5 89t-56.5 186q0 75 27 149t74 132t117 94t150 36q125 0 179 -81l41 78h77l-64 -260h-75q-13 190 -154 190q-62 0 -111 -38t-75 -95.5t-39 -113t-13 -101.5
q0 -95 42.5 -142t112.5 -47q75 0 126 51t92 147l71 -25q-40 -113 -112.5 -181.5t-181.5 -71.5l-55 -47v-4q39 -7 62 -28t23 -53q0 -41 -32.5 -69.5t-91.5 -28.5q-70 0 -121 42z" />
    <glyph glyph-name="Egrave" unicode="&#xc8;" 
d="M135 658h584l-55 -223h-60q-2 95 -18 122t-76 27h-165l-53 -214h46q50 0 69 16t48 81h65l-66 -264h-63q7 65 -4 82t-59 17h-53l-57 -228h167q65 0 93 29.5t81 141.5h66l-61 -245h-590l17 75h101l126 508h-102zM472 846l20 -110h-53l-49 75q-34 51 -34 80q0 19 14.5 34.5
t35.5 15.5q22 0 35.5 -13.5t18.5 -30.5t12 -51z" />
    <glyph glyph-name="Eacute" unicode="&#xc9;" 
d="M567 810l-93 -74h-59l83 134q25 39 41 55.5t39 16.5q22 0 36.5 -16t14.5 -35q0 -20 -12.5 -35t-49.5 -46zM135 658h584l-55 -223h-60q-2 95 -18 122t-76 27h-165l-53 -214h46q50 0 69 16t48 81h65l-66 -264h-63q7 65 -4 82t-59 17h-53l-57 -228h167q65 0 93 29.5
t81 141.5h66l-61 -245h-590l17 75h101l126 508h-102z" />
    <glyph glyph-name="Ecircumflex" unicode="&#xca;" 
d="M317 737l163 189h58l69 -189h-61l-54 90l-108 -90h-67zM135 658h584l-55 -223h-60q-2 95 -18 122t-76 27h-165l-53 -214h46q50 0 69 16t48 81h65l-66 -264h-63q7 65 -4 82t-59 17h-53l-57 -228h167q65 0 93 29.5t81 141.5h66l-61 -245h-590l17 75h101l126 508h-102z" />
    <glyph glyph-name="Edieresis" unicode="&#xcb;" 
d="M462 830q0 -29 -22 -54.5t-55 -25.5q-24 0 -39.5 16t-15.5 42q0 31 20.5 56t53.5 25q26 0 42 -16t16 -43zM650 830q0 -29 -22 -54.5t-55 -25.5q-24 0 -39.5 16t-15.5 42q0 31 20.5 56t53.5 25q26 0 42 -16t16 -43zM135 658h584l-55 -223h-60q-2 95 -18 122t-76 27h-165
l-53 -214h46q50 0 69 16t48 81h65l-66 -264h-63q7 65 -4 82t-59 17h-53l-57 -228h167q65 0 93 29.5t81 141.5h66l-61 -245h-590l17 75h101l126 508h-102z" />
    <glyph glyph-name="Igrave" unicode="&#xcc;" horiz-adv-x="402" 
d="M-19 0l17 75h101l126 508h-102l19 75h329l-19 -75h-100l-127 -508h102l-18 -75h-328zM329 846l20 -110h-53l-49 75q-34 51 -34 80q0 19 14.5 34.5t35.5 15.5q22 0 35.5 -13.5t18.5 -30.5t12 -51z" />
    <glyph glyph-name="Iacute" unicode="&#xcd;" horiz-adv-x="402" 
d="M-19 0l17 75h101l126 508h-102l19 75h329l-19 -75h-100l-127 -508h102l-18 -75h-328zM424 810l-93 -74h-59l83 134q25 39 41 55.5t39 16.5q22 0 36.5 -16t14.5 -35q0 -20 -12.5 -35t-49.5 -46z" />
    <glyph glyph-name="Icircumflex" unicode="&#xce;" horiz-adv-x="402" 
d="M-19 0l17 75h101l126 508h-102l19 75h329l-19 -75h-100l-127 -508h102l-18 -75h-328zM174 737l163 189h58l69 -189h-61l-54 90l-108 -90h-67z" />
    <glyph glyph-name="Idieresis" unicode="&#xcf;" horiz-adv-x="402" 
d="M-19 0l17 75h101l126 508h-102l19 75h329l-19 -75h-100l-127 -508h102l-18 -75h-328zM320 830q0 -29 -22 -54.5t-55 -25.5q-24 0 -39.5 16t-15.5 42q0 31 20.5 56t53.5 25q26 0 42 -16t16 -43zM508 830q0 -29 -22 -54.5t-55 -25.5q-24 0 -39.5 16t-15.5 42q0 31 20.5 56
t53.5 25q26 0 42 -16t16 -43z" />
    <glyph glyph-name="Eth" unicode="&#xd0;" horiz-adv-x="718" 
d="M-26 0l17 75h101l57 230h-101l19 76h101l50 202h-102l19 75h265q152 0 235 -71t83 -186q0 -74 -30 -149t-86 -130q-120 -122 -339 -122h-289zM218 74h56q133 0 204 71q44 44 73 124.5t29 153.5q0 161 -181 161h-54l-51 -203h127l-18 -76h-128z" />
    <glyph glyph-name="Ntilde" unicode="&#xd1;" horiz-adv-x="774" 
d="M501 -13l-210 533h-9l-111 -445h97l-18 -75h-270l18 75h93l126 508h-94l18 75h229l188 -474h9l99 399h-96l18 75h271l-19 -75h-93l-149 -596h-97zM455 795q-15 0 -27 -13t-28 -45h-57q24 72 53.5 107.5t74.5 35.5q28 0 53.5 -13.5t44.5 -27t32 -13.5q15 0 27 13t28 45h57
q-24 -71 -53.5 -107t-74.5 -36q-28 0 -53.5 13.5t-44.5 27t-32 13.5z" />
    <glyph glyph-name="Ograve" unicode="&#xd2;" horiz-adv-x="720" 
d="M62 273q0 98 44.5 189t130.5 151.5t193 60.5q123 0 201 -80t78 -209q0 -98 -44.5 -189t-130.5 -151.5t-192 -60.5q-123 0 -201.5 80t-78.5 209zM425 601q-58 0 -104.5 -39.5t-72 -99t-39 -120.5t-13.5 -113q0 -85 39.5 -128.5t111.5 -43.5q58 0 104 39.5t72 99
t39.5 120.5t13.5 113q0 85 -40 128.5t-111 43.5zM483 846l20 -110h-53l-49 75q-34 51 -34 80q0 19 14.5 34.5t35.5 15.5q22 0 35.5 -13.5t18.5 -30.5t12 -51z" />
    <glyph glyph-name="Oacute" unicode="&#xd3;" horiz-adv-x="720" 
d="M578 810l-93 -74h-59l83 134q25 39 41 55.5t39 16.5q22 0 36.5 -16t14.5 -35q0 -20 -12.5 -35t-49.5 -46zM62 273q0 98 44.5 189t130.5 151.5t193 60.5q123 0 201 -80t78 -209q0 -98 -44.5 -189t-130.5 -151.5t-192 -60.5q-123 0 -201.5 80t-78.5 209zM425 601
q-58 0 -104.5 -39.5t-72 -99t-39 -120.5t-13.5 -113q0 -85 39.5 -128.5t111.5 -43.5q58 0 104 39.5t72 99t39.5 120.5t13.5 113q0 85 -40 128.5t-111 43.5z" />
    <glyph glyph-name="Ocircumflex" unicode="&#xd4;" horiz-adv-x="720" 
d="M329 737l163 189h58l69 -189h-61l-54 90l-108 -90h-67zM62 273q0 98 44.5 189t130.5 151.5t193 60.5q123 0 201 -80t78 -209q0 -98 -44.5 -189t-130.5 -151.5t-192 -60.5q-123 0 -201.5 80t-78.5 209zM425 601q-58 0 -104.5 -39.5t-72 -99t-39 -120.5t-13.5 -113
q0 -85 39.5 -128.5t111.5 -43.5q58 0 104 39.5t72 99t39.5 120.5t13.5 113q0 85 -40 128.5t-111 43.5z" />
    <glyph glyph-name="Otilde" unicode="&#xd5;" horiz-adv-x="720" 
d="M62 273q0 98 44.5 189t130.5 151.5t193 60.5q123 0 201 -80t78 -209q0 -98 -44.5 -189t-130.5 -151.5t-192 -60.5q-123 0 -201.5 80t-78.5 209zM425 601q-58 0 -104.5 -39.5t-72 -99t-39 -120.5t-13.5 -113q0 -85 39.5 -128.5t111.5 -43.5q58 0 104 39.5t72 99
t39.5 120.5t13.5 113q0 85 -40 128.5t-111 43.5zM426 795q-15 0 -27 -13t-28 -45h-57q24 72 53.5 107.5t74.5 35.5q28 0 53.5 -13.5t44.5 -27t32 -13.5q15 0 27 13t28 45h57q-24 -71 -53.5 -107t-74.5 -36q-28 0 -53.5 13.5t-44.5 27t-32 13.5z" />
    <glyph glyph-name="Odieresis" unicode="&#xd6;" horiz-adv-x="720" 
d="M474 830q0 -29 -22 -54.5t-55 -25.5q-24 0 -39.5 16t-15.5 42q0 31 20.5 56t53.5 25q26 0 42 -16t16 -43zM662 830q0 -29 -22 -54.5t-55 -25.5q-24 0 -39.5 16t-15.5 42q0 31 20.5 56t53.5 25q26 0 42 -16t16 -43zM62 273q0 98 44.5 189t130.5 151.5t193 60.5
q123 0 201 -80t78 -209q0 -98 -44.5 -189t-130.5 -151.5t-192 -60.5q-123 0 -201.5 80t-78.5 209zM425 601q-58 0 -104.5 -39.5t-72 -99t-39 -120.5t-13.5 -113q0 -85 39.5 -128.5t111.5 -43.5q58 0 104 39.5t72 99t39.5 120.5t13.5 113q0 85 -40 128.5t-111 43.5z" />
    <glyph glyph-name="multiply" unicode="&#xd7;" horiz-adv-x="520" 
d="M326 280l105 -144l-60 -48l-102 144l-172 -143l-41 55l175 142l-105 144l60 47l101 -143l172 142l41 -54z" />
    <glyph glyph-name="Oslash" unicode="&#xd8;" horiz-adv-x="720" 
d="M62 273q0 98 44.5 189t130.5 151.5t193 60.5q106 0 182 -63l95 103l51 -45l-102 -106q53 -73 53 -178q0 -98 -44.5 -189t-130.5 -151.5t-192 -60.5q-109 0 -183 62l-94 -102l-51 45l101 106q-53 73 -53 178zM425 601q-58 0 -104.5 -39.5t-72 -99t-39 -120.5t-13.5 -113
q0 -33 4 -54l347 369q-39 57 -122 57zM576 429q0 26 -5 54l-346 -369q37 -57 122 -57q58 0 104 39.5t72 99t39.5 120.5t13.5 113z" />
    <glyph glyph-name="Ugrave" unicode="&#xd9;" horiz-adv-x="735" 
d="M351 -17q-118 0 -182.5 51.5t-64.5 132.5q0 41 12 89l82 327h-92l19 75h309l-19 -75h-91l-83 -333q-9 -39 -9 -71q0 -55 38.5 -84t101.5 -29q72 0 115 43q38 38 58 115l89 359h-94l19 75h263l-18 -75h-88l-96 -385q-23 -93 -75 -145q-70 -70 -194 -70zM511 846l20 -110
h-53l-49 75q-34 51 -34 80q0 19 14.5 34.5t35.5 15.5q22 0 35.5 -13.5t18.5 -30.5t12 -51z" />
    <glyph glyph-name="Uacute" unicode="&#xda;" horiz-adv-x="735" 
d="M606 810l-93 -74h-59l83 134q25 39 41 55.5t39 16.5q22 0 36.5 -16t14.5 -35q0 -20 -12.5 -35t-49.5 -46zM351 -17q-118 0 -182.5 51.5t-64.5 132.5q0 41 12 89l82 327h-92l19 75h309l-19 -75h-91l-83 -333q-9 -39 -9 -71q0 -55 38.5 -84t101.5 -29q72 0 115 43
q38 38 58 115l89 359h-94l19 75h263l-18 -75h-88l-96 -385q-23 -93 -75 -145q-70 -70 -194 -70z" />
    <glyph glyph-name="Ucircumflex" unicode="&#xdb;" horiz-adv-x="735" 
d="M356 737l163 189h58l69 -189h-61l-54 90l-108 -90h-67zM351 -17q-118 0 -182.5 51.5t-64.5 132.5q0 41 12 89l82 327h-92l19 75h309l-19 -75h-91l-83 -333q-9 -39 -9 -71q0 -55 38.5 -84t101.5 -29q72 0 115 43q38 38 58 115l89 359h-94l19 75h263l-18 -75h-88l-96 -385
q-23 -93 -75 -145q-70 -70 -194 -70z" />
    <glyph glyph-name="Udieresis" unicode="&#xdc;" horiz-adv-x="735" 
d="M501 830q0 -29 -22 -54.5t-55 -25.5q-24 0 -39.5 16t-15.5 42q0 31 20.5 56t53.5 25q26 0 42 -16t16 -43zM689 830q0 -29 -22 -54.5t-55 -25.5q-24 0 -39.5 16t-15.5 42q0 31 20.5 56t53.5 25q26 0 42 -16t16 -43zM351 -17q-118 0 -182.5 51.5t-64.5 132.5q0 41 12 89
l82 327h-92l19 75h309l-19 -75h-91l-83 -333q-9 -39 -9 -71q0 -55 38.5 -84t101.5 -29q72 0 115 43q38 38 58 115l89 359h-94l19 75h263l-18 -75h-88l-96 -385q-23 -93 -75 -145q-70 -70 -194 -70z" />
    <glyph glyph-name="Yacute" unicode="&#xdd;" horiz-adv-x="638" 
d="M381 343l195 241h-80l18 74h237l-19 -75h-70l-265 -314l-48 -194h97l-18 -75h-318l18 75h95l51 202l-101 306h-79l19 75h301l-19 -74h-86zM551 810l-93 -74h-59l83 134q25 39 41 55.5t39 16.5q22 0 36.5 -16t14.5 -35q0 -20 -12.5 -35t-49.5 -46z" />
    <glyph glyph-name="Thorn" unicode="&#xde;" horiz-adv-x="630" 
d="M-26 0l18 75h100l126 508h-101l19 75h324l-18 -75h-97l-15 -59h54q251 0 251 -165q0 -35 -14.5 -68t-47 -66t-96.5 -53t-151 -20h-89l-19 -77h99l-18 -75h-325zM362 452h-50l-57 -228h73q86 0 125.5 39.5t39.5 95.5q0 48 -30 70.5t-101 22.5z" />
    <glyph glyph-name="germandbls" unicode="&#xdf;" horiz-adv-x="588" 
d="M413 357q0 -14 9 -27.5t17 -21t39 -34.5q39 -32 60 -61t21 -70q0 -69 -51 -111t-122 -42q-68 0 -107 26.5t-39 67.5q0 28 18.5 49t48.5 21q24 0 39.5 -16t15.5 -40q0 -31 -22 -48q14 -11 45 -11q30 0 50 18.5t20 51.5q0 25 -16.5 45.5t-52.5 49.5q-27 23 -39.5 35
t-24.5 32.5t-12 42.5q0 36 17.5 60t64.5 61q42 34 62 62t20 71q0 34 -19 54t-52 20q-55 0 -86 -39.5t-49 -127.5l-85 -405q-27 -127 -84 -184t-127 -57q-44 0 -67.5 20.5t-23.5 51.5q0 28 18.5 49t47.5 21q24 0 37.5 -15t13.5 -36q0 -30 -14 -44q27 0 41 26t33 117l77 370
h-93l16 61h89q26 118 93 181.5t166 63.5q84 0 131.5 -34.5t47.5 -87.5q0 -47 -24.5 -75t-74.5 -59q-40 -24 -56.5 -41.5t-16.5 -40.5z" />
    <glyph glyph-name="agrave" unicode="&#xe0;" horiz-adv-x="564" 
d="M511 464l-82 -310q-11 -36 -11 -57q0 -26 23 -26q32 0 67 101l48 -15q-53 -167 -154 -167q-37 0 -59.5 23t-22.5 65q0 12 1 22l-7 3q-28 -55 -68 -84t-84 -29q-62 0 -97.5 45t-35.5 114q0 74 26.5 139.5t68.5 106.5q74 76 156 76q40 0 65 -24t32 -60l20 77h114zM208 70
q55 0 99.5 92t44.5 164q0 80 -54 80q-41 0 -77 -45.5t-53.5 -101.5t-17.5 -100q0 -89 58 -89zM341 644l20 -110h-53l-49 75q-34 51 -34 80q0 19 14.5 34.5t35.5 15.5q22 0 35.5 -13.5t18.5 -30.5t12 -51z" />
    <glyph glyph-name="aacute" unicode="&#xe1;" horiz-adv-x="564" 
d="M511 464l-82 -310q-11 -36 -11 -57q0 -26 23 -26q32 0 67 101l48 -15q-53 -167 -154 -167q-37 0 -59.5 23t-22.5 65q0 12 1 22l-7 3q-28 -55 -68 -84t-84 -29q-62 0 -97.5 45t-35.5 114q0 74 26.5 139.5t68.5 106.5q74 76 156 76q40 0 65 -24t32 -60l20 77h114zM208 70
q55 0 99.5 92t44.5 164q0 80 -54 80q-41 0 -77 -45.5t-53.5 -101.5t-17.5 -100q0 -89 58 -89zM436 608l-93 -74h-59l83 134q25 39 41 55.5t39 16.5q22 0 36.5 -16t14.5 -35q0 -20 -12.5 -35t-49.5 -46z" />
    <glyph glyph-name="acircumflex" unicode="&#xe2;" horiz-adv-x="564" 
d="M511 464l-82 -310q-11 -36 -11 -57q0 -26 23 -26q32 0 67 101l48 -15q-53 -167 -154 -167q-37 0 -59.5 23t-22.5 65q0 12 1 22l-7 3q-28 -55 -68 -84t-84 -29q-62 0 -97.5 45t-35.5 114q0 74 26.5 139.5t68.5 106.5q74 76 156 76q40 0 65 -24t32 -60l20 77h114zM208 70
q55 0 99.5 92t44.5 164q0 80 -54 80q-41 0 -77 -45.5t-53.5 -101.5t-17.5 -100q0 -89 58 -89zM185 535l163 189h58l69 -189h-61l-54 90l-108 -90h-67z" />
    <glyph glyph-name="atilde" unicode="&#xe3;" horiz-adv-x="564" 
d="M511 464l-82 -310q-11 -36 -11 -57q0 -26 23 -26q32 0 67 101l48 -15q-53 -167 -154 -167q-37 0 -59.5 23t-22.5 65q0 12 1 22l-7 3q-28 -55 -68 -84t-84 -29q-62 0 -97.5 45t-35.5 114q0 74 26.5 139.5t68.5 106.5q74 76 156 76q40 0 65 -24t32 -60l20 77h114zM208 70
q55 0 99.5 92t44.5 164q0 80 -54 80q-41 0 -77 -45.5t-53.5 -101.5t-17.5 -100q0 -89 58 -89zM283 593q-15 0 -27 -13t-28 -45h-57q24 72 53.5 107.5t74.5 35.5q28 0 53.5 -13.5t44.5 -27t32 -13.5q15 0 27 13t28 45h57q-24 -71 -53.5 -107t-74.5 -36q-28 0 -53.5 13.5
t-44.5 27t-32 13.5z" />
    <glyph glyph-name="adieresis" unicode="&#xe4;" horiz-adv-x="564" 
d="M511 464l-82 -310q-11 -36 -11 -57q0 -26 23 -26q32 0 67 101l48 -15q-53 -167 -154 -167q-37 0 -59.5 23t-22.5 65q0 12 1 22l-7 3q-28 -55 -68 -84t-84 -29q-62 0 -97.5 45t-35.5 114q0 74 26.5 139.5t68.5 106.5q74 76 156 76q40 0 65 -24t32 -60l20 77h114zM208 70
q55 0 99.5 92t44.5 164q0 80 -54 80q-41 0 -77 -45.5t-53.5 -101.5t-17.5 -100q0 -89 58 -89zM331 628q0 -29 -22 -54.5t-55 -25.5q-24 0 -39.5 16t-15.5 42q0 31 20.5 56t53.5 25q26 0 42 -16t16 -43zM519 628q0 -29 -22 -54.5t-55 -25.5q-24 0 -39.5 16t-15.5 42
q0 31 20.5 56t53.5 25q26 0 42 -16t16 -43z" />
    <glyph glyph-name="aring" unicode="&#xe5;" horiz-adv-x="564" 
d="M511 464l-82 -310q-11 -36 -11 -57q0 -26 23 -26q32 0 67 101l48 -15q-53 -167 -154 -167q-37 0 -59.5 23t-22.5 65q0 12 1 22l-7 3q-28 -55 -68 -84t-84 -29q-62 0 -97.5 45t-35.5 114q0 74 26.5 139.5t68.5 106.5q74 76 156 76q40 0 65 -24t32 -60l20 77h114zM208 70
q55 0 99.5 92t44.5 164q0 80 -54 80q-41 0 -77 -45.5t-53.5 -101.5t-17.5 -100q0 -89 58 -89zM477 649q0 -50 -34.5 -85.5t-88.5 -35.5q-48 0 -76 27.5t-28 66.5q0 51 34.5 86.5t88.5 35.5q48 0 76 -27.5t28 -67.5zM310 621q0 -23 12.5 -37t34.5 -14q28 0 44 26t16 56
q0 23 -12.5 36.5t-34.5 13.5q-28 0 -44 -25.5t-16 -55.5z" />
    <glyph glyph-name="ae" unicode="&#xe6;" horiz-adv-x="727" 
d="M575 471q63 0 98.5 -28.5t35.5 -75.5q0 -72 -77 -121.5t-228 -58.5q-1 -8 -1 -22q0 -109 94 -109q75 0 140 92l42 -30q-89 -128 -212 -128q-58 0 -98 25.5t-58 70.5q-67 -92 -176 -92q-61 0 -93 30t-32 77q0 75 78.5 118t226.5 49q17 54 17 75q0 70 -86 70q-28 0 -55 -9
q16 -14 16 -39q0 -28 -18.5 -47t-50.5 -19q-27 0 -42.5 16.5t-15.5 42.5q0 47 49.5 80t137.5 33q105 0 143 -61q73 61 165 61zM557 416q-48 0 -87 -54.5t-57 -126.5q99 11 144.5 46t45.5 85q0 22 -12 36t-34 14zM297 162q0 32 6 62q-89 -11 -131.5 -36.5t-42.5 -71.5
q0 -22 15 -37.5t40 -15.5q58 0 115 69q-2 18 -2 30z" />
    <glyph glyph-name="ccedilla" unicode="&#xe7;" horiz-adv-x="469" 
d="M53 -164q41 -28 83 -28q20 0 33 10t13 26q0 22 -24.5 31.5t-63.5 6.5l-13 31l97 80q-68 10 -109 59t-41 122q0 117 84.5 207t192.5 90q64 0 104.5 -32.5t40.5 -85.5q0 -34 -19.5 -60t-50.5 -26q-26 0 -42.5 15.5t-16.5 38.5q0 39 41 68q-14 25 -55 25q-47 0 -85 -42.5
t-56 -96.5t-18 -101q0 -59 26 -86t65 -27q69 0 130 95l43 -29q-68 -118 -164 -134l-66 -56v-4q39 -7 62 -28t23 -53q0 -41 -32.5 -69.5t-91.5 -28.5q-70 0 -121 42z" />
    <glyph glyph-name="egrave" unicode="&#xe8;" horiz-adv-x="471" 
d="M452 367q0 -72 -77 -121t-227 -58q-1 -8 -1 -23q0 -109 93 -109q75 0 140 92l42 -30q-43 -61 -94 -94.5t-125 -33.5q-78 0 -126.5 50t-48.5 132q0 117 87 208t203 91q63 0 98.5 -28.5t35.5 -75.5zM301 416q-49 0 -87.5 -54.5t-56.5 -126.5q99 11 144.5 46t45.5 85
q0 22 -12 36t-34 14zM323 644l20 -110h-53l-49 75q-34 51 -34 80q0 19 14.5 34.5t35.5 15.5q22 0 35.5 -13.5t18.5 -30.5t12 -51z" />
    <glyph glyph-name="eacute" unicode="&#xe9;" horiz-adv-x="471" 
d="M452 367q0 -72 -77 -121t-227 -58q-1 -8 -1 -23q0 -109 93 -109q75 0 140 92l42 -30q-43 -61 -94 -94.5t-125 -33.5q-78 0 -126.5 50t-48.5 132q0 117 87 208t203 91q63 0 98.5 -28.5t35.5 -75.5zM301 416q-49 0 -87.5 -54.5t-56.5 -126.5q99 11 144.5 46t45.5 85
q0 22 -12 36t-34 14zM418 608l-93 -74h-59l83 134q25 39 41 55.5t39 16.5q22 0 36.5 -16t14.5 -35q0 -20 -12.5 -35t-49.5 -46z" />
    <glyph glyph-name="ecircumflex" unicode="&#xea;" horiz-adv-x="471" 
d="M452 367q0 -72 -77 -121t-227 -58q-1 -8 -1 -23q0 -109 93 -109q75 0 140 92l42 -30q-43 -61 -94 -94.5t-125 -33.5q-78 0 -126.5 50t-48.5 132q0 117 87 208t203 91q63 0 98.5 -28.5t35.5 -75.5zM167 535l163 189h58l69 -189h-61l-54 90l-108 -90h-67zM301 416
q-49 0 -87.5 -54.5t-56.5 -126.5q99 11 144.5 46t45.5 85q0 22 -12 36t-34 14z" />
    <glyph glyph-name="edieresis" unicode="&#xeb;" horiz-adv-x="471" 
d="M452 367q0 -72 -77 -121t-227 -58q-1 -8 -1 -23q0 -109 93 -109q75 0 140 92l42 -30q-43 -61 -94 -94.5t-125 -33.5q-78 0 -126.5 50t-48.5 132q0 117 87 208t203 91q63 0 98.5 -28.5t35.5 -75.5zM301 416q-49 0 -87.5 -54.5t-56.5 -126.5q99 11 144.5 46t45.5 85
q0 22 -12 36t-34 14zM501 628q0 -29 -22 -54.5t-55 -25.5q-24 0 -39.5 16t-15.5 42q0 31 20.5 56t53.5 25q26 0 42 -16t16 -43zM313 628q0 -29 -22 -54.5t-55 -25.5q-24 0 -39.5 16t-15.5 42q0 31 20.5 56t53.5 25q26 0 42 -16t16 -43z" />
    <glyph glyph-name="igrave" unicode="&#xec;" horiz-adv-x="345" 
d="M272 370q0 -42 -40.5 -145t-40.5 -130q0 -24 20 -24q30 0 71 101l47 -15q-55 -167 -159 -167q-40 0 -65 25t-25 69q0 52 41.5 158t41.5 133q0 22 -15 22q-34 0 -81 -105l-48 20q68 159 164 159q40 0 64.5 -27t24.5 -74zM202 644l20 -110h-53l-49 75q-34 51 -34 80
q0 19 14.5 34.5t35.5 15.5q22 0 35.5 -13.5t18.5 -30.5t12 -51z" />
    <glyph glyph-name="iacute" unicode="&#xed;" horiz-adv-x="345" 
d="M296 608l-93 -74h-59l83 134q25 39 41 55.5t39 16.5q22 0 36.5 -16t14.5 -35q0 -20 -12.5 -35t-49.5 -46zM272 370q0 -42 -40.5 -145t-40.5 -130q0 -24 20 -24q30 0 71 101l47 -15q-55 -167 -159 -167q-40 0 -65 25t-25 69q0 52 41.5 158t41.5 133q0 22 -15 22
q-34 0 -81 -105l-48 20q68 159 164 159q40 0 64.5 -27t24.5 -74z" />
    <glyph glyph-name="icircumflex" unicode="&#xee;" horiz-adv-x="345" 
d="M46 535l163 189h58l69 -189h-61l-54 90l-108 -90h-67zM272 370q0 -42 -40.5 -145t-40.5 -130q0 -24 20 -24q30 0 71 101l47 -15q-55 -167 -159 -167q-40 0 -65 25t-25 69q0 52 41.5 158t41.5 133q0 22 -15 22q-34 0 -81 -105l-48 20q68 159 164 159q40 0 64.5 -27
t24.5 -74z" />
    <glyph glyph-name="idieresis" unicode="&#xef;" horiz-adv-x="345" 
d="M192 628q0 -29 -22 -54.5t-55 -25.5q-24 0 -39.5 16t-15.5 42q0 31 20.5 56t53.5 25q26 0 42 -16t16 -43zM380 628q0 -29 -22 -54.5t-55 -25.5q-24 0 -39.5 16t-15.5 42q0 31 20.5 56t53.5 25q26 0 42 -16t16 -43zM272 370q0 -42 -40.5 -145t-40.5 -130q0 -24 20 -24
q30 0 71 101l47 -15q-55 -167 -159 -167q-40 0 -65 25t-25 69q0 52 41.5 158t41.5 133q0 22 -15 22q-34 0 -81 -105l-48 20q68 159 164 159q40 0 64.5 -27t24.5 -74z" />
    <glyph glyph-name="eth" unicode="&#xf0;" horiz-adv-x="519" 
d="M537 611l-95 -32q52 -106 52 -232q0 -155 -77 -256t-200 -101q-85 0 -137.5 54t-52.5 140q0 115 75 195t169 80q82 0 115 -56q-3 69 -34 146l-119 -40l-19 55l113 38q-19 36 -40 70l79 23q26 -34 46 -65l107 36zM364 309q0 87 -74 87q-43 0 -77.5 -45t-50.5 -103
t-16 -111q0 -91 70 -91q44 0 79.5 47t52 106t16.5 110z" />
    <glyph glyph-name="ntilde" unicode="&#xf1;" horiz-adv-x="602" 
d="M456 93q0 -22 17 -22q29 0 69 101l47 -15q-55 -167 -153 -167q-41 0 -65 25t-24 68q0 54 33 145.5t33 121.5q0 33 -27 33q-19 0 -42 -17.5t-51 -57.5t-59.5 -119.5t-59.5 -188.5h-120l86 324q11 43 9.5 58t-15.5 15q-29 0 -78 -105l-47 20q68 158 160 158q33 0 53 -24
t20 -69q0 -47 -21 -111l7 -3q97 208 211 208q41 0 66 -29t25 -75q0 -45 -37 -146t-37 -128zM317 593q-15 0 -27 -13t-28 -45h-57q24 72 53.5 107.5t74.5 35.5q28 0 53.5 -13.5t44.5 -27t32 -13.5q15 0 27 13t28 45h57q-24 -71 -53.5 -107t-74.5 -36q-28 0 -53.5 13.5
t-44.5 27t-32 13.5z" />
    <glyph glyph-name="ograve" unicode="&#xf2;" horiz-adv-x="510" 
d="M292 471q86 0 138 -54t52 -139q0 -116 -79.5 -202t-184.5 -86q-85 0 -137.5 54t-52.5 140q0 116 79.5 201.5t184.5 85.5zM363 325q0 91 -70 91q-43 0 -78 -50.5t-51.5 -113t-16.5 -115.5q0 -91 70 -91q43 0 78 50.5t51.5 113t16.5 115.5zM324 644l20 -110h-53l-49 75
q-34 51 -34 80q0 19 14.5 34.5t35.5 15.5q22 0 35.5 -13.5t18.5 -30.5t12 -51z" />
    <glyph glyph-name="oacute" unicode="&#xf3;" horiz-adv-x="510" 
d="M419 608l-93 -74h-59l83 134q25 39 41 55.5t39 16.5q22 0 36.5 -16t14.5 -35q0 -20 -12.5 -35t-49.5 -46zM292 471q86 0 138 -54t52 -139q0 -116 -79.5 -202t-184.5 -86q-85 0 -137.5 54t-52.5 140q0 116 79.5 201.5t184.5 85.5zM363 325q0 91 -70 91q-43 0 -78 -50.5
t-51.5 -113t-16.5 -115.5q0 -91 70 -91q43 0 78 50.5t51.5 113t16.5 115.5z" />
    <glyph glyph-name="ocircumflex" unicode="&#xf4;" horiz-adv-x="510" 
d="M168 535l163 189h58l69 -189h-61l-54 90l-108 -90h-67zM292 471q86 0 138 -54t52 -139q0 -116 -79.5 -202t-184.5 -86q-85 0 -137.5 54t-52.5 140q0 116 79.5 201.5t184.5 85.5zM363 325q0 91 -70 91q-43 0 -78 -50.5t-51.5 -113t-16.5 -115.5q0 -91 70 -91q43 0 78 50.5
t51.5 113t16.5 115.5z" />
    <glyph glyph-name="otilde" unicode="&#xf5;" horiz-adv-x="510" 
d="M292 471q86 0 138 -54t52 -139q0 -116 -79.5 -202t-184.5 -86q-85 0 -137.5 54t-52.5 140q0 116 79.5 201.5t184.5 85.5zM363 325q0 91 -70 91q-43 0 -78 -50.5t-51.5 -113t-16.5 -115.5q0 -91 70 -91q43 0 78 50.5t51.5 113t16.5 115.5zM267 593q-15 0 -27 -13t-28 -45
h-57q24 72 53.5 107.5t74.5 35.5q28 0 53.5 -13.5t44.5 -27t32 -13.5q15 0 27 13t28 45h57q-24 -71 -53.5 -107t-74.5 -36q-28 0 -53.5 13.5t-44.5 27t-32 13.5z" />
    <glyph glyph-name="odieresis" unicode="&#xf6;" horiz-adv-x="510" 
d="M314 628q0 -29 -22 -54.5t-55 -25.5q-24 0 -39.5 16t-15.5 42q0 31 20.5 56t53.5 25q26 0 42 -16t16 -43zM502 628q0 -29 -22 -54.5t-55 -25.5q-24 0 -39.5 16t-15.5 42q0 31 20.5 56t53.5 25q26 0 42 -16t16 -43zM292 471q86 0 138 -54t52 -139q0 -116 -79.5 -202
t-184.5 -86q-85 0 -137.5 54t-52.5 140q0 116 79.5 201.5t184.5 85.5zM363 325q0 91 -70 91q-43 0 -78 -50.5t-51.5 -113t-16.5 -115.5q0 -91 70 -91q43 0 78 50.5t51.5 113t16.5 115.5z" />
    <glyph glyph-name="divide" unicode="&#xf7;" horiz-adv-x="520" 
d="M482 248h-433l16 69h434zM230 53q-27 0 -44.5 17.5t-17.5 46.5q0 28 20 51.5t50 23.5q27 0 44.5 -17.5t17.5 -46.5q0 -28 -20 -51.5t-50 -23.5zM309 373q-26 0 -43.5 17.5t-17.5 46.5q0 28 20 51.5t50 23.5q26 0 43.5 -17.5t17.5 -46.5q0 -28 -20 -51.5t-50 -23.5z" />
    <glyph glyph-name="oslash" unicode="&#xf8;" horiz-adv-x="510" 
d="M38 -47l-40 38l66 72q-36 52 -36 121q0 116 79.5 201.5t184.5 85.5q67 0 113 -34l67 72l40 -38l-67 -73q37 -49 37 -120q0 -116 -79.5 -202t-184.5 -86q-67 0 -114 33zM218 46q43 0 77.5 48t51 109t18.5 117l-212 -240q15 -34 65 -34zM292 416q-43 0 -78 -48
t-51.5 -108.5t-18.5 -116.5l212 239q-15 34 -64 34z" />
    <glyph glyph-name="ugrave" unicode="&#xf9;" horiz-adv-x="600" 
d="M445 -10q-85 0 -85 94q0 44 22 114l-7 3q-96 -211 -208 -211q-41 0 -66 29t-25 76q0 45 35.5 147t35.5 127q0 21 -15 21q-16 0 -31.5 -20.5t-42.5 -76.5l-47 20q65 158 163 158q40 0 62 -24t22 -67q0 -50 -33 -142.5t-33 -120.5q0 -39 28 -39q19 0 41 17.5t49.5 57.5
t59 120t60.5 191h120l-82 -310q-11 -37 -11 -57q0 -26 23 -26q32 0 67 101l48 -15q-53 -167 -150 -167zM349 644l20 -110h-53l-49 75q-34 51 -34 80q0 19 14.5 34.5t35.5 15.5q22 0 35.5 -13.5t18.5 -30.5t12 -51z" />
    <glyph glyph-name="uacute" unicode="&#xfa;" horiz-adv-x="600" 
d="M444 608l-93 -74h-59l83 134q25 39 41 55.5t39 16.5q22 0 36.5 -16t14.5 -35q0 -20 -12.5 -35t-49.5 -46zM445 -10q-85 0 -85 94q0 44 22 114l-7 3q-96 -211 -208 -211q-41 0 -66 29t-25 76q0 45 35.5 147t35.5 127q0 21 -15 21q-16 0 -31.5 -20.5t-42.5 -76.5l-47 20
q65 158 163 158q40 0 62 -24t22 -67q0 -50 -33 -142.5t-33 -120.5q0 -39 28 -39q19 0 41 17.5t49.5 57.5t59 120t60.5 191h120l-82 -310q-11 -37 -11 -57q0 -26 23 -26q32 0 67 101l48 -15q-53 -167 -150 -167z" />
    <glyph glyph-name="ucircumflex" unicode="&#xfb;" horiz-adv-x="600" 
d="M194 535l163 189h58l69 -189h-61l-54 90l-108 -90h-67zM445 -10q-85 0 -85 94q0 44 22 114l-7 3q-96 -211 -208 -211q-41 0 -66 29t-25 76q0 45 35.5 147t35.5 127q0 21 -15 21q-16 0 -31.5 -20.5t-42.5 -76.5l-47 20q65 158 163 158q40 0 62 -24t22 -67
q0 -50 -33 -142.5t-33 -120.5q0 -39 28 -39q19 0 41 17.5t49.5 57.5t59 120t60.5 191h120l-82 -310q-11 -37 -11 -57q0 -26 23 -26q32 0 67 101l48 -15q-53 -167 -150 -167z" />
    <glyph glyph-name="udieresis" unicode="&#xfc;" horiz-adv-x="600" 
d="M339 628q0 -29 -22 -54.5t-55 -25.5q-24 0 -39.5 16t-15.5 42q0 31 20.5 56t53.5 25q26 0 42 -16t16 -43zM527 628q0 -29 -22 -54.5t-55 -25.5q-24 0 -39.5 16t-15.5 42q0 31 20.5 56t53.5 25q26 0 42 -16t16 -43zM445 -10q-85 0 -85 94q0 44 22 114l-7 3
q-96 -211 -208 -211q-41 0 -66 29t-25 76q0 45 35.5 147t35.5 127q0 21 -15 21q-16 0 -31.5 -20.5t-42.5 -76.5l-47 20q65 158 163 158q40 0 62 -24t22 -67q0 -50 -33 -142.5t-33 -120.5q0 -39 28 -39q19 0 41 17.5t49.5 57.5t59 120t60.5 191h120l-82 -310q-11 -37 -11 -57
q0 -26 23 -26q32 0 67 101l48 -15q-53 -167 -150 -167z" />
    <glyph glyph-name="yacute" unicode="&#xfd;" horiz-adv-x="553" 
d="M176 471q38 0 60 -23.5t22 -63.5q0 -50 -29 -132.5t-29 -107.5q0 -35 33 -35q109 0 200 355h112l-92 -386q-58 -248 -269 -248q-63 0 -108.5 21.5t-45.5 71.5q0 27 19 49.5t50 22.5q29 0 44.5 -17.5t13.5 -43.5t-20 -43q21 -7 46 -7q116 0 165 202l20 79l-6 3
q-79 -145 -178 -145q-48 0 -73.5 29t-25.5 75q0 41 32 128.5t32 113.5q0 21 -15 21q-30 0 -76 -98l-47 20q70 159 165 159zM448 608l-93 -74h-59l83 134q25 39 41 55.5t39 16.5q22 0 36.5 -16t14.5 -35q0 -20 -12.5 -35t-49.5 -46z" />
    <glyph glyph-name="thorn" unicode="&#xfe;" horiz-adv-x="522" 
d="M318 393q-56 0 -102.5 -85.5t-46.5 -163.5q0 -38 16.5 -60.5t48.5 -22.5q41 0 74.5 46.5t49 102t15.5 99.5q0 84 -55 84zM305 689l-90 -309l8 -3q27 45 63.5 69.5t74.5 24.5q62 0 97.5 -45t35.5 -117q0 -120 -71.5 -214.5t-163.5 -94.5q-81 0 -113 65l-37 -148h93
l-20 -74h-277l20 74h69l176 694h-83l20 78h198z" />
    <glyph glyph-name="ydieresis" unicode="&#xff;" horiz-adv-x="553" 
d="M176 471q38 0 60 -23.5t22 -63.5q0 -50 -29 -132.5t-29 -107.5q0 -35 33 -35q109 0 200 355h112l-92 -386q-58 -248 -269 -248q-63 0 -108.5 21.5t-45.5 71.5q0 27 19 49.5t50 22.5q29 0 44.5 -17.5t13.5 -43.5t-20 -43q21 -7 46 -7q116 0 165 202l20 79l-6 3
q-79 -145 -178 -145q-48 0 -73.5 29t-25.5 75q0 41 32 128.5t32 113.5q0 21 -15 21q-30 0 -76 -98l-47 20q70 159 165 159zM342 628q0 -29 -22 -54.5t-55 -25.5q-24 0 -39.5 16t-15.5 42q0 31 20.5 56t53.5 25q26 0 42 -16t16 -43zM530 628q0 -29 -22 -54.5t-55 -25.5
q-24 0 -39.5 16t-15.5 42q0 31 20.5 56t53.5 25q26 0 42 -16t16 -43z" />
    <glyph glyph-name="Amacron" unicode="&#x100;" 
d="M345 75h95l-12 147h-221l-86 -147h83l-18 -75h-245l19 75h69l355 587h123l60 -587h88l-19 -75h-309zM245 289h178l-21 264h-4zM329 748l21 84h272l-22 -84h-271z" />
    <glyph glyph-name="amacron" unicode="&#x101;" horiz-adv-x="564" 
d="M511 464l-82 -310q-11 -36 -11 -57q0 -26 23 -26q32 0 67 101l48 -15q-53 -167 -154 -167q-37 0 -59.5 23t-22.5 65q0 12 1 22l-7 3q-28 -55 -68 -84t-84 -29q-62 0 -97.5 45t-35.5 114q0 74 26.5 139.5t68.5 106.5q74 76 156 76q40 0 65 -24t32 -60l20 77h114zM208 70
q55 0 99.5 92t44.5 164q0 80 -54 80q-41 0 -77 -45.5t-53.5 -101.5t-17.5 -100q0 -89 58 -89zM205 546l21 84h272l-22 -84h-271z" />
    <glyph glyph-name="Abreve" unicode="&#x102;" 
d="M345 75h95l-12 147h-221l-86 -147h83l-18 -75h-245l19 75h69l355 587h123l60 -587h88l-19 -75h-309zM245 289h178l-21 264h-4zM463 739q-68 0 -100.5 44t-14.5 124h51q0 -86 77 -86q68 0 109 86h54q-19 -80 -66 -124t-110 -44z" />
    <glyph glyph-name="abreve" unicode="&#x103;" horiz-adv-x="564" 
d="M511 464l-82 -310q-11 -36 -11 -57q0 -26 23 -26q32 0 67 101l48 -15q-53 -167 -154 -167q-37 0 -59.5 23t-22.5 65q0 12 1 22l-7 3q-28 -55 -68 -84t-84 -29q-62 0 -97.5 45t-35.5 114q0 74 26.5 139.5t68.5 106.5q74 76 156 76q40 0 65 -24t32 -60l20 77h114zM208 70
q55 0 99.5 92t44.5 164q0 80 -54 80q-41 0 -77 -45.5t-53.5 -101.5t-17.5 -100q0 -89 58 -89zM339 537q-68 0 -100.5 44t-14.5 124h51q0 -86 77 -86q68 0 109 86h54q-19 -80 -66 -124t-110 -44z" />
    <glyph glyph-name="Aogonek" unicode="&#x104;" 
d="M558 -209q-55 -37 -111 -37q-49 0 -80.5 23.5t-31.5 66.5q0 41 31 75t106 81h-145l18 75h95l-12 147h-221l-86 -147h83l-18 -75h-245l19 75h69l355 587h123l60 -587h88l-19 -75h-90l-5 -4q-68 -53 -91 -82t-23 -55q0 -18 12.5 -31t38.5 -13q28 0 60 20zM245 289h178
l-21 264h-4z" />
    <glyph glyph-name="aogonek" unicode="&#x105;" horiz-adv-x="564" 
d="M377 387l20 77h114l-82 -310q-11 -36 -11 -57q0 -26 23 -26q32 0 67 101l48 -15q-20 -59 -41.5 -94t-63.5 -68q-65 -51 -88 -81t-23 -55q0 -19 13 -31.5t39 -12.5q27 0 60 20l20 -44q-56 -37 -111 -37q-50 0 -81.5 23.5t-31.5 66.5q0 39 29.5 72.5t98.5 77.5
q-23 6 -39.5 27t-16.5 57q0 12 1 22l-7 3q-28 -55 -68 -84t-84 -29q-62 0 -97.5 45t-35.5 114q0 74 26.5 139.5t68.5 106.5q74 76 156 76q40 0 65 -24t32 -60zM208 70q55 0 99.5 92t44.5 164q0 80 -54 80q-41 0 -77 -45.5t-53.5 -101.5t-17.5 -100q0 -89 58 -89z" />
    <glyph glyph-name="Cacute" unicode="&#x106;" horiz-adv-x="677" 
d="M561 810l-93 -74h-59l83 134q25 39 41 55.5t39 16.5q22 0 36.5 -16t14.5 -35q0 -20 -12.5 -35t-49.5 -46zM337 -16q-134 0 -204.5 76.5t-70.5 202.5q0 75 27 149t74 132t117 94t150 36q125 0 179 -81l41 78h77l-64 -260h-75q-13 190 -154 190q-62 0 -111 -38t-75 -95.5
t-39 -113t-13 -101.5q0 -95 42.5 -142t112.5 -47q75 0 126 51t92 147l71 -25q-41 -115 -115.5 -184t-187.5 -69z" />
    <glyph glyph-name="cacute" unicode="&#x107;" horiz-adv-x="469" 
d="M419 608l-93 -74h-59l83 134q25 39 41 55.5t39 16.5q22 0 36.5 -16t14.5 -35q0 -20 -12.5 -35t-49.5 -46zM305 471q64 0 104.5 -32.5t40.5 -85.5q0 -34 -19.5 -60t-50.5 -26q-26 0 -42.5 15.5t-16.5 38.5q0 39 41 68q-14 25 -55 25q-47 0 -85 -42.5t-56 -96.5t-18 -101
q0 -59 26 -86t65 -27q69 0 130 95l43 -29q-79 -137 -200 -137q-82 0 -133 51t-51 133q0 117 84.5 207t192.5 90z" />
    <glyph glyph-name="Cdotaccent" unicode="&#x10a;" horiz-adv-x="677" 
d="M337 -16q-134 0 -204.5 76.5t-70.5 202.5q0 75 27 149t74 132t117 94t150 36q125 0 179 -81l41 78h77l-64 -260h-75q-13 190 -154 190q-62 0 -111 -38t-75 -95.5t-39 -113t-13 -101.5q0 -95 42.5 -142t112.5 -47q75 0 126 51t92 147l71 -25q-41 -115 -115.5 -184
t-187.5 -69zM552 819q0 -30 -23 -56t-59 -26q-25 0 -41.5 16t-16.5 44q0 32 22 58t57 26q27 0 44 -16.5t17 -45.5z" />
    <glyph glyph-name="cdotaccent" unicode="&#x10b;" horiz-adv-x="469" 
d="M305 471q64 0 104.5 -32.5t40.5 -85.5q0 -34 -19.5 -60t-50.5 -26q-26 0 -42.5 15.5t-16.5 38.5q0 39 41 68q-14 25 -55 25q-47 0 -85 -42.5t-56 -96.5t-18 -101q0 -59 26 -86t65 -27q69 0 130 95l43 -29q-79 -137 -200 -137q-82 0 -133 51t-51 133q0 117 84.5 207
t192.5 90zM409 617q0 -30 -23 -56t-59 -26q-25 0 -41.5 16t-16.5 44q0 32 22 58t57 26q27 0 44 -16.5t17 -45.5z" />
    <glyph glyph-name="Ccaron" unicode="&#x10c;" horiz-adv-x="677" 
d="M642 932l-164 -189h-58l-69 189h62l54 -90l107 90h68zM337 -16q-134 0 -204.5 76.5t-70.5 202.5q0 75 27 149t74 132t117 94t150 36q125 0 179 -81l41 78h77l-64 -260h-75q-13 190 -154 190q-62 0 -111 -38t-75 -95.5t-39 -113t-13 -101.5q0 -95 42.5 -142t112.5 -47
q75 0 126 51t92 147l71 -25q-41 -115 -115.5 -184t-187.5 -69z" />
    <glyph glyph-name="ccaron" unicode="&#x10d;" horiz-adv-x="469" 
d="M499 730l-164 -189h-58l-69 189h62l54 -90l107 90h68zM305 471q64 0 104.5 -32.5t40.5 -85.5q0 -34 -19.5 -60t-50.5 -26q-26 0 -42.5 15.5t-16.5 38.5q0 39 41 68q-14 25 -55 25q-47 0 -85 -42.5t-56 -96.5t-18 -101q0 -59 26 -86t65 -27q69 0 130 95l43 -29
q-79 -137 -200 -137q-82 0 -133 51t-51 133q0 117 84.5 207t192.5 90z" />
    <glyph glyph-name="Dcaron" unicode="&#x10e;" horiz-adv-x="716" 
d="M658 932l-164 -189h-58l-69 189h62l54 -90l107 90h68zM-27 0l17 75h101l126 508h-102l19 75h265q152 0 235 -71t83 -186q0 -74 -30 -149t-86 -130q-120 -122 -339 -122h-289zM217 74h56q133 0 204 71q44 44 73 124.5t29 153.5q0 161 -181 161h-54z" />
    <glyph glyph-name="dcaron" unicode="&#x10f;" horiz-adv-x="564" 
d="M714 635l-63 -104h-47l34 160q8 42 23 60.5t41 18.5q21 0 35.5 -14.5t14.5 -34.5q0 -24 -32 -77zM208 70q38 0 73 47.5t54 108.5t19 108q0 72 -54 72q-44 0 -80 -46t-53 -101.5t-17 -99.5q0 -89 58 -89zM508 172l48 -15q-53 -167 -154 -167q-36 0 -59 23t-23 65
q0 12 1 22l-7 3q-28 -55 -68 -84t-84 -29q-62 0 -97.5 45t-35.5 114q0 74 26.5 139.5t68.5 106.5q74 76 156 76q76 0 99 -75l57 215h-83l20 78h198l-142 -535q-11 -36 -11 -57q0 -26 23 -26q32 0 67 101z" />
    <glyph glyph-name="Dcroat" unicode="&#x110;" horiz-adv-x="718" 
d="M-26 0l17 75h101l57 230h-101l19 76h101l50 202h-102l19 75h265q152 0 235 -71t83 -186q0 -74 -30 -149t-86 -130q-120 -122 -339 -122h-289zM218 74h56q133 0 204 71q44 44 73 124.5t29 153.5q0 161 -181 161h-54l-51 -203h127l-18 -76h-128z" />
    <glyph glyph-name="dcroat" unicode="&#x111;" horiz-adv-x="564" 
d="M373 689h198l-34 -126h70l-16 -59h-69l-93 -350q-11 -36 -11 -57q0 -26 23 -26q32 0 67 101l48 -15q-53 -167 -154 -167q-36 0 -59 23t-23 65q0 12 1 22l-7 3q-28 -55 -68 -84t-84 -29q-62 0 -97.5 45t-35.5 114q0 73 26 137t68 106q76 76 157 76q75 0 98 -75l29 111
h-123l16 59h123l14 51h-83zM208 70q38 0 73 47t53.5 107t18.5 107q0 72 -54 72q-44 0 -79.5 -45.5t-52.5 -100.5t-17 -98q0 -89 58 -89z" />
    <glyph glyph-name="Emacron" unicode="&#x112;" 
d="M135 658h584l-55 -223h-60q-2 95 -18 122t-76 27h-165l-53 -214h46q50 0 69 16t48 81h65l-66 -264h-63q7 65 -4 82t-59 17h-53l-57 -228h167q65 0 93 29.5t81 141.5h66l-61 -245h-590l17 75h101l126 508h-102zM336 748l21 84h272l-22 -84h-271z" />
    <glyph glyph-name="emacron" unicode="&#x113;" horiz-adv-x="471" 
d="M452 367q0 -72 -77 -121t-227 -58q-1 -8 -1 -23q0 -109 93 -109q75 0 140 92l42 -30q-43 -61 -94 -94.5t-125 -33.5q-78 0 -126.5 50t-48.5 132q0 117 87 208t203 91q63 0 98.5 -28.5t35.5 -75.5zM187 546l21 84h272l-22 -84h-271zM301 416q-49 0 -87.5 -54.5
t-56.5 -126.5q99 11 144.5 46t45.5 85q0 22 -12 36t-34 14z" />
    <glyph glyph-name="Ebreve" unicode="&#x114;" 
d="M135 658h584l-55 -223h-60q-2 95 -18 122t-76 27h-165l-53 -214h46q50 0 69 16t48 81h65l-66 -264h-63q7 65 -4 82t-59 17h-53l-57 -228h167q65 0 93 29.5t81 141.5h66l-61 -245h-590l17 75h101l126 508h-102zM470 739q-68 0 -100.5 44t-14.5 124h51q0 -86 77 -86
q68 0 109 86h54q-19 -80 -66 -124t-110 -44z" />
    <glyph glyph-name="ebreve" unicode="&#x115;" horiz-adv-x="471" 
d="M452 367q0 -72 -77 -121t-227 -58q-1 -8 -1 -23q0 -109 93 -109q75 0 140 92l42 -30q-43 -61 -94 -94.5t-125 -33.5q-78 0 -126.5 50t-48.5 132q0 117 87 208t203 91q63 0 98.5 -28.5t35.5 -75.5zM321 537q-68 0 -100.5 44t-14.5 124h51q0 -86 77 -86q68 0 109 86h54
q-19 -80 -66 -124t-110 -44zM301 416q-49 0 -87.5 -54.5t-56.5 -126.5q99 11 144.5 46t45.5 85q0 22 -12 36t-34 14z" />
    <glyph glyph-name="Edotaccent" unicode="&#x116;" 
d="M135 658h584l-55 -223h-60q-2 95 -18 122t-76 27h-165l-53 -214h46q50 0 69 16t48 81h65l-66 -264h-63q7 65 -4 82t-59 17h-53l-57 -228h167q65 0 93 29.5t81 141.5h66l-61 -245h-590l17 75h101l126 508h-102zM558 819q0 -30 -23 -56t-59 -26q-25 0 -41.5 16t-16.5 44
q0 32 22 58t57 26q27 0 44 -16.5t17 -45.5z" />
    <glyph glyph-name="edotaccent" unicode="&#x117;" horiz-adv-x="471" 
d="M452 367q0 -72 -77 -121t-227 -58q-1 -8 -1 -23q0 -109 93 -109q75 0 140 92l42 -30q-43 -61 -94 -94.5t-125 -33.5q-78 0 -126.5 50t-48.5 132q0 117 87 208t203 91q63 0 98.5 -28.5t35.5 -75.5zM301 416q-49 0 -87.5 -54.5t-56.5 -126.5q99 11 144.5 46t45.5 85
q0 22 -12 36t-34 14zM409 617q0 -30 -23 -56t-59 -26q-25 0 -41.5 16t-16.5 44q0 32 22 58t57 26q27 0 44 -16.5t17 -45.5z" />
    <glyph glyph-name="Eogonek" unicode="&#x118;" 
d="M135 658h584l-55 -223h-60q-2 95 -18 122t-76 27h-165l-53 -214h46q50 0 69 16t48 81h65l-66 -264h-63q7 65 -4 82t-59 17h-53l-57 -228h167q65 0 93 29.5t81 141.5h66l-61 -245h-53l-5 -4q-68 -53 -91 -82t-23 -55q0 -18 12.5 -31t38.5 -13q28 0 60 20l20 -44
q-55 -37 -111 -37q-49 0 -80.5 23.5t-31.5 66.5q0 41 31 75t106 81h-463l17 75h101l126 508h-102z" />
    <glyph glyph-name="eogonek" unicode="&#x119;" horiz-adv-x="471" 
d="M380 148l42 -30q-39 -54 -85 -90l-42 -31q-68 -53 -92 -82.5t-24 -55.5q0 -18 12.5 -31t38.5 -13q27 0 60 20l20 -44q-55 -37 -111 -37q-50 0 -81 23.5t-31 66.5q0 37 26.5 69.5t95.5 76.5h-6q-78 0 -126.5 50t-48.5 132q0 117 87 208t203 91q63 0 98.5 -28.5t35.5 -75.5
q0 -72 -77 -121t-227 -58q-1 -8 -1 -23q0 -109 93 -109q75 0 140 92zM301 416q-49 0 -87.5 -54.5t-56.5 -126.5q99 11 144.5 46t45.5 85q0 22 -12 36t-34 14z" />
    <glyph glyph-name="Ecaron" unicode="&#x11a;" 
d="M648 932l-164 -189h-58l-69 189h62l54 -90l107 90h68zM135 658h584l-55 -223h-60q-2 95 -18 122t-76 27h-165l-53 -214h46q50 0 69 16t48 81h65l-66 -264h-63q7 65 -4 82t-59 17h-53l-57 -228h167q65 0 93 29.5t81 141.5h66l-61 -245h-590l17 75h101l126 508h-102z" />
    <glyph glyph-name="ecaron" unicode="&#x11b;" horiz-adv-x="471" 
d="M452 367q0 -72 -77 -121t-227 -58q-1 -8 -1 -23q0 -109 93 -109q75 0 140 92l42 -30q-43 -61 -94 -94.5t-125 -33.5q-78 0 -126.5 50t-48.5 132q0 117 87 208t203 91q63 0 98.5 -28.5t35.5 -75.5zM499 730l-164 -189h-58l-69 189h62l54 -90l107 90h68zM301 416
q-49 0 -87.5 -54.5t-56.5 -126.5q99 11 144.5 46t45.5 85q0 22 -12 36t-34 14z" />
    <glyph glyph-name="Gbreve" unicode="&#x11e;" horiz-adv-x="715" 
d="M331 63q64 0 109 47.5t65 125.5l6 24h-118l19 75h324l-18 -75h-82l-69 -267h-74l-8 88q-68 -97 -183 -97q-112 0 -176 77.5t-64 197.5q0 104 45 198t131 155.5t192 61.5q125 0 179 -81l41 78h77l-63 -256h-80q-14 186 -150 186q-62 0 -111 -38.5t-75 -96t-39 -113
t-13 -101.5q0 -98 39 -143.5t96 -45.5zM469 739q-68 0 -100.5 44t-14.5 124h51q0 -86 77 -86q68 0 109 86h54q-19 -80 -66 -124t-110 -44z" />
    <glyph glyph-name="gbreve" unicode="&#x11f;" horiz-adv-x="519" 
d="M92 -106q22 -10 58 -10q54 0 89 36q41 41 71 169l-7 3q-52 -70 -134 -70q-64 0 -100.5 44t-36.5 109q0 138 92 230q66 66 145 66q41 0 70 -23t38 -59l19 75h114l-91 -387q-31 -131 -98 -189t-169 -58q-29 0 -55.5 4.5t-52.5 14.5t-42 30.5t-16 48.5t18.5 51t49.5 23
q29 0 44 -16.5t15 -41.5q0 -29 -21 -50zM214 96q55 0 97 72t42 153q0 38 -18.5 61.5t-46.5 23.5q-39 0 -71 -38t-48 -89.5t-16 -99.5q0 -83 61 -83zM338 537q-68 0 -100.5 44t-14.5 124h51q0 -86 77 -86q68 0 109 86h54q-19 -80 -66 -124t-110 -44z" />
    <glyph glyph-name="Gdotaccent" unicode="&#x120;" horiz-adv-x="715" 
d="M331 63q64 0 109 47.5t65 125.5l6 24h-118l19 75h324l-18 -75h-82l-69 -267h-74l-8 88q-68 -97 -183 -97q-112 0 -176 77.5t-64 197.5q0 104 45 198t131 155.5t192 61.5q125 0 179 -81l41 78h77l-63 -256h-80q-14 186 -150 186q-62 0 -111 -38.5t-75 -96t-39 -113
t-13 -101.5q0 -98 39 -143.5t96 -45.5zM557 819q0 -30 -23 -56t-59 -26q-25 0 -41.5 16t-16.5 44q0 32 22 58t57 26q27 0 44 -16.5t17 -45.5z" />
    <glyph glyph-name="gdotaccent" unicode="&#x121;" horiz-adv-x="519" 
d="M92 -106q22 -10 58 -10q54 0 89 36q41 41 71 169l-7 3q-52 -70 -134 -70q-64 0 -100.5 44t-36.5 109q0 138 92 230q66 66 145 66q41 0 70 -23t38 -59l19 75h114l-91 -387q-31 -131 -98 -189t-169 -58q-29 0 -55.5 4.5t-52.5 14.5t-42 30.5t-16 48.5t18.5 51t49.5 23
q29 0 44 -16.5t15 -41.5q0 -29 -21 -50zM214 96q55 0 97 72t42 153q0 38 -18.5 61.5t-46.5 23.5q-39 0 -71 -38t-48 -89.5t-16 -99.5q0 -83 61 -83zM426 617q0 -30 -23 -56t-59 -26q-25 0 -41.5 16t-16.5 44q0 32 22 58t57 26q27 0 44 -16.5t17 -45.5z" />
    <glyph glyph-name="Gcommaaccent" unicode="&#x122;" horiz-adv-x="715" 
d="M163 -337l-15 41q100 36 121 92l-5 4q-10 -5 -22 -5q-23 0 -38 15t-15 40q0 30 21 54.5t54 24.5q36 0 56 -24.5t20 -61.5q0 -58 -45.5 -106t-131.5 -74zM331 63q64 0 109 47.5t65 125.5l6 24h-118l19 75h324l-18 -75h-82l-69 -267h-74l-8 88q-68 -97 -183 -97
q-112 0 -176 77.5t-64 197.5q0 104 45 198t131 155.5t192 61.5q125 0 179 -81l41 78h77l-63 -256h-80q-14 186 -150 186q-62 0 -111 -38.5t-75 -96t-39 -113t-13 -101.5q0 -98 39 -143.5t96 -45.5z" />
    <glyph glyph-name="gcommaaccent" unicode="&#x123;" horiz-adv-x="519" 
d="M438 800l15 -41q-100 -36 -121 -92l5 -4q10 5 22 5q23 0 38 -15t15 -40q0 -30 -21 -54.5t-54 -24.5q-36 0 -56 24.5t-20 61.5q0 58 45.5 106t131.5 74zM92 -106q22 -10 58 -10q54 0 89 36q41 41 71 169l-7 3q-52 -70 -134 -70q-64 0 -100.5 44t-36.5 109q0 138 92 230
q66 66 145 66q41 0 70 -23t38 -59l19 75h114l-91 -387q-31 -131 -98 -189t-169 -58q-29 0 -55.5 4.5t-52.5 14.5t-42 30.5t-16 48.5t18.5 51t49.5 23q29 0 44 -16.5t15 -41.5q0 -29 -21 -50zM214 96q55 0 97 72t42 153q0 38 -18.5 61.5t-46.5 23.5q-39 0 -71 -38t-48 -89.5
t-16 -99.5q0 -83 61 -83z" />
    <glyph glyph-name="Hbar" unicode="&#x126;" horiz-adv-x="784" 
d="M81 439l16 68h102l19 76h-102l19 75h316l-18 -75h-88l-20 -80h269l20 80h-89l18 75h316l-18 -75h-101l-19 -76h102l-17 -68h-102l-90 -364h102l-18 -75h-316l18 75h88l55 219h-270l-55 -219h90l-18 -75h-316l17 75h101l90 364h-101zM290 363h270l19 79h-270z" />
    <glyph glyph-name="hbar" unicode="&#x127;" horiz-adv-x="568" 
d="M402 -10q-41 0 -65 25t-24 68q0 53 32.5 143.5t32.5 120.5q0 33 -27 33q-19 0 -42.5 -17.5t-53 -56.5t-62.5 -118t-62 -188h-120l134 504h-70l15 59h70l14 51h-83l19 75h199l-38 -126h124l-15 -59h-126l-72 -241l7 -3q47 103 103.5 155.5t111.5 52.5q41 0 66 -29t25 -75
q0 -45 -36.5 -144.5t-36.5 -126.5q0 -22 17 -22q29 0 69 101l47 -15q-55 -167 -153 -167z" />
    <glyph glyph-name="Imacron" unicode="&#x12a;" horiz-adv-x="402" 
d="M-19 0l17 75h101l126 508h-102l19 75h329l-19 -75h-100l-127 -508h102l-18 -75h-328zM193 748l21 84h272l-22 -84h-271z" />
    <glyph glyph-name="imacron" unicode="&#x12b;" horiz-adv-x="345" 
d="M272 370q0 -42 -40.5 -145t-40.5 -130q0 -24 20 -24q30 0 71 101l47 -15q-55 -167 -159 -167q-40 0 -65 25t-25 69q0 52 41.5 158t41.5 133q0 22 -15 22q-34 0 -81 -105l-48 20q68 159 164 159q40 0 64.5 -27t24.5 -74zM66 546l21 84h272l-22 -84h-271z" />
    <glyph glyph-name="Ibreve" unicode="&#x12c;" horiz-adv-x="402" 
d="M-19 0l17 75h101l126 508h-102l19 75h329l-19 -75h-100l-127 -508h102l-18 -75h-328zM327 739q-68 0 -100.5 44t-14.5 124h51q0 -86 77 -86q68 0 109 86h54q-19 -80 -66 -124t-110 -44z" />
    <glyph glyph-name="ibreve" unicode="&#x12d;" horiz-adv-x="345" 
d="M272 370q0 -42 -40.5 -145t-40.5 -130q0 -24 20 -24q30 0 71 101l47 -15q-55 -167 -159 -167q-40 0 -65 25t-25 69q0 52 41.5 158t41.5 133q0 22 -15 22q-34 0 -81 -105l-48 20q68 159 164 159q40 0 64.5 -27t24.5 -74zM200 537q-68 0 -100.5 44t-14.5 124h51
q0 -86 77 -86q68 0 109 86h54q-19 -80 -66 -124t-110 -44z" />
    <glyph glyph-name="Iogonek" unicode="&#x12e;" horiz-adv-x="402" 
d="M-19 0l17 75h101l126 508h-102l19 75h329l-19 -75h-100l-127 -508h102l-18 -75h-109l-5 -4q-68 -53 -91 -82t-23 -55q0 -18 12.5 -31t38.5 -13q28 0 60 20l20 -44q-55 -37 -111 -37q-49 0 -80.5 23.5t-31.5 66.5q0 41 31 75t106 81h-145z" />
    <glyph glyph-name="iogonek" unicode="&#x12f;" horiz-adv-x="345" 
d="M281 172l48 -15q-19 -55 -42 -91.5t-63 -67.5q-69 -54 -90 -83.5t-21 -55.5q0 -18 12.5 -31t38.5 -13q27 0 60 20l20 -44q-55 -37 -111 -37q-50 0 -81 23.5t-31 66.5q0 39 29 73t95 76q-29 7 -47.5 29.5t-18.5 61.5q0 52 41.5 158t41.5 133q0 22 -15 22q-19 0 -37.5 -26
t-43.5 -79l-48 20q70 159 165 159q40 0 64 -27t24 -74q0 -42 -40.5 -145t-40.5 -130q0 -24 20 -24q31 0 71 101zM324 629q0 -33 -24 -60.5t-62 -27.5q-27 0 -44.5 17.5t-17.5 46.5q0 33 23.5 60.5t60.5 27.5q29 0 46.5 -17t17.5 -47z" />
    <glyph glyph-name="Idotaccent" unicode="&#x130;" horiz-adv-x="402" 
d="M-19 0l17 75h101l126 508h-102l19 75h329l-19 -75h-100l-127 -508h102l-18 -75h-328zM415 819q0 -30 -23 -56t-59 -26q-25 0 -41.5 16t-16.5 44q0 32 22 58t57 26q27 0 44 -16.5t17 -45.5z" />
    <glyph glyph-name="dotlessi" unicode="&#x131;" horiz-adv-x="345" 
d="M272 370q0 -42 -40.5 -145t-40.5 -130q0 -24 20 -24q30 0 71 101l47 -15q-55 -167 -159 -167q-40 0 -65 25t-25 69q0 52 41.5 158t41.5 133q0 22 -15 22q-34 0 -81 -105l-48 20q68 159 164 159q40 0 64.5 -27t24.5 -74z" />
    <glyph glyph-name="Kcommaaccent" unicode="&#x136;" horiz-adv-x="715" 
d="M187 -337l-15 41q100 36 121 92l-5 4q-10 -5 -22 -5q-23 0 -38 15t-15 40q0 30 21 54.5t54 24.5q36 0 56 -24.5t20 -61.5q0 -58 -45.5 -106t-131.5 -74zM698 583l-247 -200l145 -308h86l-18 -75h-304l18 74h79l-102 232l-99 -81l-38 -151h87l-18 -74h-313l17 75h101
l126 508h-102l19 75h315l-19 -74h-86l-65 -260l307 260h-81l19 74h268l-18 -75h-77z" />
    <glyph glyph-name="kcommaaccent" unicode="&#x137;" horiz-adv-x="529" 
d="M373 98q0 -27 19 -27q29 0 67 101l47 -15q-52 -167 -148 -167q-43 0 -68 27t-25 75q0 15 5.5 47.5t5.5 42.5q0 28 -17.5 37t-71.5 9h-2l-61 -228h-113l162 611h-83l20 78h199l-112 -416h5q37 0 60 21.5t59 81.5q29 47 56.5 71t68.5 24q35 0 54.5 -20t19.5 -53t-19 -58.5
t-49 -25.5t-44 22.5t-3 53.5q-19 -4 -52 -58q-29 -55 -66 -74q51 -4 72.5 -25.5t21.5 -58.5q0 -16 -4 -42t-4 -34zM79 -336l-15 41q100 36 121 92l-5 4q-10 -5 -22 -5q-23 0 -38 15t-15 40q0 30 21 54.5t54 24.5q36 0 56 -24.5t20 -61.5q0 -58 -45.5 -106t-131.5 -74z" />
    <glyph glyph-name="Lacute" unicode="&#x139;" horiz-adv-x="603" 
d="M417 810l-93 -74h-59l83 134q25 39 41 55.5t39 16.5q22 0 36.5 -16t14.5 -35q0 -20 -12.5 -35t-49.5 -46zM135 658h333l-18 -74h-105l-127 -510h118q67 0 97 31.5t83 143.5h62l-62 -249h-542l17 75h101l126 508h-102z" />
    <glyph glyph-name="lacute" unicode="&#x13a;" horiz-adv-x="305" 
d="M341 832l-93 -74h-59l83 134q25 39 41 55.5t39 16.5q22 0 36.5 -16t14.5 -35q0 -20 -12.5 -35t-49.5 -46zM40 84q0 37 27 137l106 390h-84l20 78h199l-142 -521q-15 -54 -15 -73q0 -24 20 -24q33 0 71 101l47 -15q-55 -167 -156 -167q-44 0 -68.5 25t-24.5 69z" />
    <glyph glyph-name="Lcommaaccent" unicode="&#x13b;" horiz-adv-x="603" 
d="M141 -337l-15 41q100 36 121 92l-5 4q-10 -5 -22 -5q-23 0 -38 15t-15 40q0 30 21 54.5t54 24.5q36 0 56 -24.5t20 -61.5q0 -58 -45.5 -106t-131.5 -74zM135 658h333l-18 -74h-105l-127 -510h118q67 0 97 31.5t83 143.5h62l-62 -249h-542l17 75h101l126 508h-102z" />
    <glyph glyph-name="lcommaaccent" unicode="&#x13c;" horiz-adv-x="305" 
d="M-4 -337l-15 41q100 36 121 92l-5 4q-10 -5 -22 -5q-23 0 -38 15t-15 40q0 30 21 54.5t54 24.5q36 0 56 -24.5t20 -61.5q0 -58 -45.5 -106t-131.5 -74zM40 84q0 37 27 137l106 390h-84l20 78h199l-142 -521q-15 -54 -15 -73q0 -24 20 -24q33 0 71 101l47 -15
q-55 -167 -156 -167q-44 0 -68.5 25t-24.5 69z" />
    <glyph glyph-name="Lcaron" unicode="&#x13d;" horiz-adv-x="603" 
d="M606 599l-63 -104h-47l34 160q8 42 23 60.5t41 18.5q21 0 35.5 -14.5t14.5 -34.5q0 -24 -32 -77zM135 658h333l-18 -74h-105l-127 -510h118q67 0 97 31.5t83 143.5h62l-62 -249h-542l17 75h101l126 508h-102z" />
    <glyph glyph-name="lcaron" unicode="&#x13e;" horiz-adv-x="305" 
d="M451 635l-63 -104h-47l34 160q8 42 23 60.5t41 18.5q21 0 35.5 -14.5t14.5 -34.5q0 -24 -32 -77zM40 84q0 37 27 137l106 390h-84l20 78h199l-142 -521q-15 -54 -15 -73q0 -24 20 -24q33 0 71 101l47 -15q-55 -167 -156 -167q-44 0 -68.5 25t-24.5 69z" />
    <glyph glyph-name="Ldot" unicode="&#x13f;" horiz-adv-x="603" 
d="M135 658h333l-18 -74h-105l-127 -510h118q67 0 96.5 30t80.5 132h62l-59 -236h-542l17 75h101l126 508h-102zM492 302q-25 0 -42 16t-17 43q0 31 22 56.5t57 25.5q27 0 44 -16.5t17 -43.5q0 -30 -22.5 -55.5t-58.5 -25.5z" />
    <glyph glyph-name="ldot" unicode="&#x140;" horiz-adv-x="374" 
d="M413 358q0 -30 -22 -55t-57 -25q-25 0 -40.5 15.5t-15.5 42.5q0 30 21 55.5t56 25.5q26 0 42 -16t16 -43zM40 84q0 37 27 137l106 390h-84l20 78h199l-142 -521q-15 -54 -15 -73q0 -24 20 -24q33 0 71 101l47 -15q-55 -167 -156 -167q-44 0 -68.5 25t-24.5 69z" />
    <glyph glyph-name="Lslash" unicode="&#x141;" horiz-adv-x="605" 
d="M136 658h333l-18 -74h-105l-50 -202l182 57l-17 -73l-184 -58l-58 -234h118q67 0 97 31.5t83 143.5h62l-62 -249h-542l17 75h101l47 190l-91 -28l18 74l92 28l60 244h-102z" />
    <glyph glyph-name="lslash" unicode="&#x142;" horiz-adv-x="337" 
d="M56 84q0 37 27 137l21 78l-96 -29l16 66l98 30l67 245h-84l20 78h199l-78 -286l105 32l-17 -65l-106 -33l-46 -169q-15 -54 -15 -73q0 -24 20 -24q33 0 71 101l47 -15q-55 -167 -156 -167q-44 0 -68.5 25t-24.5 69z" />
    <glyph glyph-name="Nacute" unicode="&#x143;" horiz-adv-x="774" 
d="M607 810l-93 -74h-59l83 134q25 39 41 55.5t39 16.5q22 0 36.5 -16t14.5 -35q0 -20 -12.5 -35t-49.5 -46zM501 -13l-210 533h-9l-111 -445h97l-18 -75h-270l18 75h93l126 508h-94l18 75h229l188 -474h9l99 399h-96l18 75h271l-19 -75h-93l-149 -596h-97z" />
    <glyph glyph-name="nacute" unicode="&#x144;" horiz-adv-x="602" 
d="M469 608l-93 -74h-59l83 134q25 39 41 55.5t39 16.5q22 0 36.5 -16t14.5 -35q0 -20 -12.5 -35t-49.5 -46zM456 93q0 -22 17 -22q29 0 69 101l47 -15q-55 -167 -153 -167q-41 0 -65 25t-24 68q0 54 33 145.5t33 121.5q0 33 -27 33q-19 0 -42 -17.5t-51 -57.5t-59.5 -119.5
t-59.5 -188.5h-120l86 324q11 43 9.5 58t-15.5 15q-29 0 -78 -105l-47 20q68 158 160 158q33 0 53 -24t20 -69q0 -47 -21 -111l7 -3q97 208 211 208q41 0 66 -29t25 -75q0 -45 -37 -146t-37 -128z" />
    <glyph glyph-name="Ncommaaccent" unicode="&#x145;" horiz-adv-x="774" 
d="M209 -337l-15 41q100 36 121 92l-5 4q-10 -5 -22 -5q-23 0 -38 15t-15 40q0 30 21 54.5t54 24.5q36 0 56 -24.5t20 -61.5q0 -58 -45.5 -106t-131.5 -74zM501 -13l-210 533h-9l-111 -445h97l-18 -75h-270l18 75h93l126 508h-94l18 75h229l188 -474h9l99 399h-96l18 75h271
l-19 -75h-93l-149 -596h-97z" />
    <glyph glyph-name="ncommaaccent" unicode="&#x146;" horiz-adv-x="602" 
d="M141 -334l-15 41q100 36 121 92l-5 4q-10 -5 -22 -5q-23 0 -38 15t-15 40q0 30 21 54.5t54 24.5q36 0 56 -24.5t20 -61.5q0 -58 -45.5 -106t-131.5 -74zM456 93q0 -22 17 -22q29 0 69 101l47 -15q-55 -167 -153 -167q-41 0 -65 25t-24 68q0 54 33 145.5t33 121.5
q0 33 -27 33q-19 0 -42 -17.5t-51 -57.5t-59.5 -119.5t-59.5 -188.5h-120l86 324q11 43 9.5 58t-15.5 15q-29 0 -78 -105l-47 20q68 158 160 158q33 0 53 -24t20 -69q0 -47 -21 -111l7 -3q97 208 211 208q41 0 66 -29t25 -75q0 -45 -37 -146t-37 -128z" />
    <glyph glyph-name="Ncaron" unicode="&#x147;" horiz-adv-x="774" 
d="M688 932l-164 -189h-58l-69 189h62l54 -90l107 90h68zM501 -13l-210 533h-9l-111 -445h97l-18 -75h-270l18 75h93l126 508h-94l18 75h229l188 -474h9l99 399h-96l18 75h271l-19 -75h-93l-149 -596h-97z" />
    <glyph glyph-name="ncaron" unicode="&#x148;" horiz-adv-x="602" 
d="M550 730l-164 -189h-58l-69 189h62l54 -90l107 90h68zM456 93q0 -22 17 -22q29 0 69 101l47 -15q-55 -167 -153 -167q-41 0 -65 25t-24 68q0 54 33 145.5t33 121.5q0 33 -27 33q-19 0 -42 -17.5t-51 -57.5t-59.5 -119.5t-59.5 -188.5h-120l86 324q11 43 9.5 58t-15.5 15
q-29 0 -78 -105l-47 20q68 158 160 158q33 0 53 -24t20 -69q0 -47 -21 -111l7 -3q97 208 211 208q41 0 66 -29t25 -75q0 -45 -37 -146t-37 -128z" />
    <glyph glyph-name="Omacron" unicode="&#x14c;" horiz-adv-x="720" 
d="M348 748l21 84h272l-22 -84h-271zM62 273q0 98 44.5 189t130.5 151.5t193 60.5q123 0 201 -80t78 -209q0 -98 -44.5 -189t-130.5 -151.5t-192 -60.5q-123 0 -201.5 80t-78.5 209zM425 601q-58 0 -104.5 -39.5t-72 -99t-39 -120.5t-13.5 -113q0 -85 39.5 -128.5
t111.5 -43.5q58 0 104 39.5t72 99t39.5 120.5t13.5 113q0 85 -40 128.5t-111 43.5z" />
    <glyph glyph-name="omacron" unicode="&#x14d;" horiz-adv-x="510" 
d="M188 546l21 84h272l-22 -84h-271zM292 471q86 0 138 -54t52 -139q0 -116 -79.5 -202t-184.5 -86q-85 0 -137.5 54t-52.5 140q0 116 79.5 201.5t184.5 85.5zM363 325q0 91 -70 91q-43 0 -78 -50.5t-51.5 -113t-16.5 -115.5q0 -91 70 -91q43 0 78 50.5t51.5 113t16.5 115.5
z" />
    <glyph glyph-name="Obreve" unicode="&#x14e;" horiz-adv-x="720" 
d="M62 273q0 98 44.5 189t130.5 151.5t193 60.5q123 0 201 -80t78 -209q0 -98 -44.5 -189t-130.5 -151.5t-192 -60.5q-123 0 -201.5 80t-78.5 209zM425 601q-58 0 -104.5 -39.5t-72 -99t-39 -120.5t-13.5 -113q0 -85 39.5 -128.5t111.5 -43.5q58 0 104 39.5t72 99
t39.5 120.5t13.5 113q0 85 -40 128.5t-111 43.5zM482 739q-68 0 -100.5 44t-14.5 124h51q0 -86 77 -86q68 0 109 86h54q-19 -80 -66 -124t-110 -44z" />
    <glyph glyph-name="obreve" unicode="&#x14f;" horiz-adv-x="510" 
d="M292 471q86 0 138 -54t52 -139q0 -116 -79.5 -202t-184.5 -86q-85 0 -137.5 54t-52.5 140q0 116 79.5 201.5t184.5 85.5zM363 325q0 91 -70 91q-43 0 -78 -50.5t-51.5 -113t-16.5 -115.5q0 -91 70 -91q43 0 78 50.5t51.5 113t16.5 115.5zM322 537q-68 0 -100.5 44
t-14.5 124h51q0 -86 77 -86q68 0 109 86h54q-19 -80 -66 -124t-110 -44z" />
    <glyph glyph-name="Ohungarumlaut" unicode="&#x150;" horiz-adv-x="720" 
d="M496 810l-87 -74h-58l76 134q21 39 37 55.5t38 16.5t37 -16t15 -35q0 -21 -11.5 -36t-46.5 -45zM666 810l-91 -74h-58l82 134q22 37 39.5 54.5t39.5 17.5t35.5 -15.5t13.5 -34.5q0 -21 -12.5 -36.5t-48.5 -45.5zM62 273q0 98 44.5 189t130.5 151.5t193 60.5
q123 0 201 -80t78 -209q0 -98 -44.5 -189t-130.5 -151.5t-192 -60.5q-123 0 -201.5 80t-78.5 209zM425 601q-58 0 -104.5 -39.5t-72 -99t-39 -120.5t-13.5 -113q0 -85 39.5 -128.5t111.5 -43.5q58 0 104 39.5t72 99t39.5 120.5t13.5 113q0 85 -40 128.5t-111 43.5z" />
    <glyph glyph-name="ohungarumlaut" unicode="&#x151;" horiz-adv-x="510" 
d="M337 608l-87 -74h-58l76 134q21 39 37 55.5t38 16.5t37 -16t15 -35q0 -21 -11.5 -36t-46.5 -45zM507 608l-91 -74h-58l82 134q22 37 39.5 54.5t39.5 17.5t35.5 -15.5t13.5 -34.5q0 -21 -12.5 -36.5t-48.5 -45.5zM292 471q86 0 138 -54t52 -139q0 -116 -79.5 -202
t-184.5 -86q-85 0 -137.5 54t-52.5 140q0 116 79.5 201.5t184.5 85.5zM363 325q0 91 -70 91q-43 0 -78 -50.5t-51.5 -113t-16.5 -115.5q0 -91 70 -91q43 0 78 50.5t51.5 113t16.5 115.5z" />
    <glyph glyph-name="OE" unicode="&#x152;" horiz-adv-x="1004" 
d="M505 658h545l-56 -223h-60q-2 95 -18 122t-76 27h-165l-53 -214h46q50 0 69.5 16t47.5 81h65l-66 -264h-62q6 65 -5 82t-58 17h-54l-57 -228h167q24 0 40 2.5t31.5 12t25.5 18.5t24 33t24 43.5t30 61.5h66l-61 -245h-528q-152 0 -235 71t-83 186q0 74 30 149t86 130
q122 122 340 122zM549 584h-56q-133 0 -204 -71q-44 -44 -73 -124.5t-29 -153.5q0 -161 181 -161h54z" />
    <glyph glyph-name="oe" unicode="&#x153;" horiz-adv-x="784" 
d="M693 148l43 -30q-89 -128 -212 -128q-104 0 -144 81q-68 -81 -165 -81q-83 0 -135 54.5t-52 139.5q0 116 79.5 201.5t184.5 85.5q109 0 153 -89q78 89 188 89q63 0 98 -28.5t35 -75.5q0 -72 -77 -121t-228 -58q-1 -8 -1 -23q0 -109 94 -109q75 0 139 92zM363 325
q0 91 -70 91q-43 0 -78 -50.5t-51.5 -113t-16.5 -115.5q0 -91 70 -91q43 0 78 50.5t51.5 113t16.5 115.5zM614 416q-48 0 -87 -54.5t-57 -126.5q99 11 144.5 46t45.5 85q0 22 -12 36t-34 14z" />
    <glyph glyph-name="Racute" unicode="&#x154;" horiz-adv-x="688" 
d="M559 810l-93 -74h-59l83 134q25 39 41 55.5t39 16.5q22 0 36.5 -16t14.5 -35q0 -20 -12.5 -35t-49.5 -46zM-26 0l17 75h101l126 508h-102l19 75h322q116 0 167.5 -42.5t51.5 -105.5q0 -74 -54.5 -125t-165.5 -61l-3 -8q64 -13 90.5 -40.5t26.5 -74.5q0 -17 -5 -51t-5 -48
q0 -20 8.5 -27.5t26.5 -7.5q25 0 54 28l27 -39q-55 -68 -134 -68q-54 0 -84 23.5t-30 69.5q0 21 10 72t10 76q0 29 -20.5 44t-69.5 15h-87l-53 -213h100l-18 -75h-326zM289 358h82q86 0 126 40q40 38 40 108q-2 78 -104 78h-88z" />
    <glyph glyph-name="racute" unicode="&#x155;" horiz-adv-x="470" 
d="M403 608l-93 -74h-59l83 134q25 39 41 55.5t39 16.5q22 0 36.5 -16t14.5 -35q0 -20 -12.5 -35t-49.5 -46zM54 0l86 324q11 43 9.5 58t-15.5 15q-29 0 -78 -105l-47 20q68 158 160 158q33 0 53 -24t20 -69t-20 -108l8 -3q47 106 86.5 155.5t89.5 49.5q32 0 52.5 -20.5
t20.5 -55.5q0 -37 -21 -63.5t-51 -26.5q-27 0 -44 17.5t-16 47.5q-13 -5 -30 -25.5t-40 -60.5t-50.5 -114t-52.5 -170h-120z" />
    <glyph glyph-name="Rcommaaccent" unicode="&#x156;" horiz-adv-x="688" 
d="M193 -337l-15 41q100 36 121 92l-5 4q-10 -5 -22 -5q-23 0 -38 15t-15 40q0 30 21 54.5t54 24.5q36 0 56 -24.5t20 -61.5q0 -58 -45.5 -106t-131.5 -74zM-26 0l17 75h101l126 508h-102l19 75h322q116 0 167.5 -42.5t51.5 -105.5q0 -74 -54.5 -125t-165.5 -61l-3 -8
q64 -13 90.5 -40.5t26.5 -74.5q0 -17 -5 -51t-5 -48q0 -20 8.5 -27.5t26.5 -7.5q25 0 54 28l27 -39q-55 -68 -134 -68q-54 0 -84 23.5t-30 69.5q0 21 10 72t10 76q0 29 -20.5 44t-69.5 15h-87l-53 -213h100l-18 -75h-326zM289 358h82q86 0 126 40q40 38 40 108
q-2 78 -104 78h-88z" />
    <glyph glyph-name="rcommaaccent" unicode="&#x157;" horiz-adv-x="470" 
d="M-9 -337l-15 41q100 36 121 92l-5 4q-10 -5 -22 -5q-23 0 -38 15t-15 40q0 30 21 54.5t54 24.5q36 0 56 -24.5t20 -61.5q0 -58 -45.5 -106t-131.5 -74zM54 0l86 324q11 43 9.5 58t-15.5 15q-29 0 -78 -105l-47 20q68 158 160 158q33 0 53 -24t20 -69t-20 -108l8 -3
q47 106 86.5 155.5t89.5 49.5q32 0 52.5 -20.5t20.5 -55.5q0 -37 -21 -63.5t-51 -26.5q-27 0 -44 17.5t-16 47.5q-13 -5 -30 -25.5t-40 -60.5t-50.5 -114t-52.5 -170h-120z" />
    <glyph glyph-name="Rcaron" unicode="&#x158;" horiz-adv-x="688" 
d="M639 932l-164 -189h-58l-69 189h62l54 -90l107 90h68zM-26 0l17 75h101l126 508h-102l19 75h322q116 0 167.5 -42.5t51.5 -105.5q0 -74 -54.5 -125t-165.5 -61l-3 -8q64 -13 90.5 -40.5t26.5 -74.5q0 -17 -5 -51t-5 -48q0 -20 8.5 -27.5t26.5 -7.5q25 0 54 28l27 -39
q-55 -68 -134 -68q-54 0 -84 23.5t-30 69.5q0 21 10 72t10 76q0 29 -20.5 44t-69.5 15h-87l-53 -213h100l-18 -75h-326zM289 358h82q86 0 126 40q40 38 40 108q-2 78 -104 78h-88z" />
    <glyph glyph-name="rcaron" unicode="&#x159;" horiz-adv-x="470" 
d="M483 730l-164 -189h-58l-69 189h62l54 -90l107 90h68zM54 0l86 324q11 43 9.5 58t-15.5 15q-29 0 -78 -105l-47 20q68 158 160 158q33 0 53 -24t20 -69t-20 -108l8 -3q47 106 86.5 155.5t89.5 49.5q32 0 52.5 -20.5t20.5 -55.5q0 -37 -21 -63.5t-51 -26.5q-27 0 -44 17.5
t-16 47.5q-13 -5 -30 -25.5t-40 -60.5t-50.5 -114t-52.5 -170h-120z" />
    <glyph glyph-name="Sacute" unicode="&#x15a;" horiz-adv-x="587" 
d="M519 810l-93 -74h-59l83 134q25 39 41 55.5t39 16.5q22 0 36.5 -16t14.5 -35q0 -20 -12.5 -35t-49.5 -46zM-9 -13l60 247h71q14 -88 61.5 -133.5t115.5 -45.5q57 0 91 30.5t34 71.5q0 26 -21 48.5t-39 32t-65 31.5l-12 6q-40 18 -63.5 31t-53 35.5t-43.5 52.5t-14 68
q0 85 68 148.5t166 63.5q53 0 99 -20.5t71 -55.5l41 73h75l-59 -237h-70q-15 91 -53 130.5t-104 39.5q-48 0 -79.5 -29.5t-31.5 -69.5t32.5 -64.5t97.5 -53.5q7 -3 10 -4q39 -17 62.5 -29.5t52 -34.5t42 -51.5t13.5 -66.5q0 -92 -71.5 -154.5t-174.5 -62.5q-127 0 -190 80
l-44 -77h-75z" />
    <glyph glyph-name="sacute" unicode="&#x15b;" horiz-adv-x="442" 
d="M400 608l-93 -74h-59l83 134q25 39 41 55.5t39 16.5q22 0 36.5 -16t14.5 -35q0 -20 -12.5 -35t-49.5 -46zM389 147q0 -74 -55 -115.5t-134 -41.5q-76 0 -133.5 31t-57.5 85q0 30 18.5 51t47.5 21q28 0 43.5 -16.5t15.5 -38.5q0 -35 -24 -55q29 -26 86 -26q39 0 61 18.5
t22 52.5q0 18 -14 33t-30 23.5t-48 23.5q-28 13 -44 22t-35.5 24t-28.5 34.5t-9 43.5q0 73 57.5 113.5t130.5 40.5q76 0 124 -30t48 -75q0 -30 -18 -51t-46 -21q-27 0 -43 16t-16 39q0 32 24 53q-21 19 -69 19q-37 0 -60 -18t-23 -49q0 -27 22.5 -44t77.5 -42
q25 -11 40.5 -19.5t33.5 -23.5t27 -34t9 -44z" />
    <glyph glyph-name="Scedilla" unicode="&#x15e;" horiz-adv-x="587" 
d="M130 -164q41 -28 83 -28q20 0 33 10t13 26q0 22 -24.5 31.5t-63.5 6.5l-13 31l91 75q-91 15 -139 76l-44 -77h-75l60 247h71q14 -88 61.5 -133.5t115.5 -45.5q57 0 91 30.5t34 71.5q0 26 -21 48.5t-39 32t-65 31.5l-12 6q-40 18 -63.5 31t-53 35.5t-43.5 52.5t-14 68
q0 85 68 148.5t166 63.5q53 0 99 -20.5t71 -55.5l41 73h75l-59 -237h-70q-15 91 -53 130.5t-104 39.5q-48 0 -79.5 -29.5t-31.5 -69.5t32.5 -64.5t97.5 -53.5q7 -3 10 -4q39 -17 62.5 -29.5t52 -34.5t42 -51.5t13.5 -66.5q0 -88 -67 -150t-165 -67l-55 -47v-4q39 -7 62 -28
t23 -53q0 -41 -32.5 -69.5t-91.5 -28.5q-70 0 -121 42z" />
    <glyph glyph-name="scedilla" unicode="&#x15f;" horiz-adv-x="442" 
d="M41 -164q41 -28 83 -28q20 0 33 10t13 26q0 22 -24.5 31.5t-63.5 6.5l-13 31l96 79q-65 6 -110.5 36t-45.5 78q0 30 18.5 51t47.5 21q28 0 43.5 -16.5t15.5 -38.5q0 -35 -24 -55q29 -26 86 -26q39 0 61 18.5t22 52.5q0 18 -14 33t-30 23.5t-48 23.5q-28 13 -44 22
t-35.5 24t-28.5 34.5t-9 43.5q0 73 57.5 113.5t130.5 40.5q76 0 124 -30t48 -75q0 -30 -18 -51t-46 -21q-27 0 -43 16t-16 39q0 32 24 53q-21 19 -69 19q-37 0 -60 -18t-23 -49q0 -27 22.5 -44t77.5 -42q25 -11 40.5 -19.5t33.5 -23.5t27 -34t9 -44q0 -66 -43.5 -106
t-110.5 -48l-65 -56v-4q39 -7 62 -28t23 -53q0 -41 -32.5 -69.5t-91.5 -28.5q-70 0 -121 42z" />
    <glyph glyph-name="Scaron" unicode="&#x160;" horiz-adv-x="587" 
d="M600 932l-164 -189h-58l-69 189h62l54 -90l107 90h68zM-9 -13l60 247h71q14 -88 61.5 -133.5t115.5 -45.5q57 0 91 30.5t34 71.5q0 26 -21 48.5t-39 32t-65 31.5l-12 6q-40 18 -63.5 31t-53 35.5t-43.5 52.5t-14 68q0 85 68 148.5t166 63.5q53 0 99 -20.5t71 -55.5l41 73
h75l-59 -237h-70q-15 91 -53 130.5t-104 39.5q-48 0 -79.5 -29.5t-31.5 -69.5t32.5 -64.5t97.5 -53.5q7 -3 10 -4q39 -17 62.5 -29.5t52 -34.5t42 -51.5t13.5 -66.5q0 -92 -71.5 -154.5t-174.5 -62.5q-127 0 -190 80l-44 -77h-75z" />
    <glyph glyph-name="scaron" unicode="&#x161;" horiz-adv-x="442" 
d="M480 730l-164 -189h-58l-69 189h62l54 -90l107 90h68zM389 147q0 -74 -55 -115.5t-134 -41.5q-76 0 -133.5 31t-57.5 85q0 30 18.5 51t47.5 21q28 0 43.5 -16.5t15.5 -38.5q0 -35 -24 -55q29 -26 86 -26q39 0 61 18.5t22 52.5q0 18 -14 33t-30 23.5t-48 23.5
q-28 13 -44 22t-35.5 24t-28.5 34.5t-9 43.5q0 73 57.5 113.5t130.5 40.5q76 0 124 -30t48 -75q0 -30 -18 -51t-46 -21q-27 0 -43 16t-16 39q0 32 24 53q-21 19 -69 19q-37 0 -60 -18t-23 -49q0 -27 22.5 -44t77.5 -42q25 -11 40.5 -19.5t33.5 -23.5t27 -34t9 -44z" />
    <glyph glyph-name="Tcommaaccent" unicode="&#x162;" horiz-adv-x="676" 
d="M148 -337l-15 41q100 36 121 92l-5 4q-10 -5 -22 -5q-23 0 -38 15t-15 40q0 30 21 54.5t54 24.5q36 0 56 -24.5t20 -61.5q0 -58 -45.5 -106t-131.5 -74zM106 0l18 75h108l129 519h-35q-59 0 -90 -31.5t-96 -151.5h-62l63 247h600l-62 -247h-57q-4 117 -20.5 150t-76.5 33
h-35l-129 -519h110l-18 -75h-347z" />
    <glyph glyph-name="tcommaaccent" unicode="&#x163;" horiz-adv-x="388" 
d="M36 -337l-15 41q100 36 121 92l-5 4q-10 -5 -22 -5q-23 0 -38 15t-15 40q0 30 21 54.5t54 24.5q36 0 56 -24.5t20 -61.5q0 -58 -45.5 -106t-131.5 -74zM389 389h-142l-60 -219q-12 -43 -12 -60q0 -36 35 -36q47 0 94 108l48 -16q-33 -96 -82 -136t-98 -40q-51 0 -82 26
t-31 75q0 27 18 99l54 199h-88l16 61h88l33 120l119 13l-36 -133h142z" />
    <glyph glyph-name="Tcaron" unicode="&#x164;" horiz-adv-x="676" 
d="M640 932l-164 -189h-58l-69 189h62l54 -90l107 90h68zM106 0l18 75h108l129 519h-35q-59 0 -90 -31.5t-96 -151.5h-62l63 247h600l-62 -247h-57q-4 117 -20.5 150t-76.5 33h-35l-129 -519h110l-18 -75h-347z" />
    <glyph glyph-name="tcaron" unicode="&#x165;" horiz-adv-x="388" 
d="M454 635l-63 -104h-47l34 160q8 42 23 60.5t41 18.5q21 0 35.5 -14.5t14.5 -34.5q0 -24 -32 -77zM389 389h-142l-60 -219q-12 -43 -12 -60q0 -36 35 -36q47 0 94 108l48 -16q-33 -96 -82 -136t-98 -40q-51 0 -82 26t-31 75q0 27 18 99l54 199h-88l16 61h88l33 120l119 13
l-36 -133h142z" />
    <glyph glyph-name="Umacron" unicode="&#x16a;" horiz-adv-x="735" 
d="M351 -17q-118 0 -182.5 51.5t-64.5 132.5q0 41 12 89l82 327h-92l19 75h309l-19 -75h-91l-83 -333q-9 -39 -9 -71q0 -55 38.5 -84t101.5 -29q72 0 115 43q38 38 58 115l89 359h-94l19 75h263l-18 -75h-88l-96 -385q-23 -93 -75 -145q-70 -70 -194 -70zM375 748l21 84h272
l-22 -84h-271z" />
    <glyph glyph-name="umacron" unicode="&#x16b;" horiz-adv-x="600" 
d="M445 -10q-85 0 -85 94q0 44 22 114l-7 3q-96 -211 -208 -211q-41 0 -66 29t-25 76q0 45 35.5 147t35.5 127q0 21 -15 21q-16 0 -31.5 -20.5t-42.5 -76.5l-47 20q65 158 163 158q40 0 62 -24t22 -67q0 -50 -33 -142.5t-33 -120.5q0 -39 28 -39q19 0 41 17.5t49.5 57.5
t59 120t60.5 191h120l-82 -310q-11 -37 -11 -57q0 -26 23 -26q32 0 67 101l48 -15q-53 -167 -150 -167zM213 546l21 84h272l-22 -84h-271z" />
    <glyph glyph-name="Ubreve" unicode="&#x16c;" horiz-adv-x="735" 
d="M351 -17q-118 0 -182.5 51.5t-64.5 132.5q0 41 12 89l82 327h-92l19 75h309l-19 -75h-91l-83 -333q-9 -39 -9 -71q0 -55 38.5 -84t101.5 -29q72 0 115 43q38 38 58 115l89 359h-94l19 75h263l-18 -75h-88l-96 -385q-23 -93 -75 -145q-70 -70 -194 -70zM509 739
q-68 0 -100.5 44t-14.5 124h51q0 -86 77 -86q68 0 109 86h54q-19 -80 -66 -124t-110 -44z" />
    <glyph glyph-name="ubreve" unicode="&#x16d;" horiz-adv-x="600" 
d="M445 -10q-85 0 -85 94q0 44 22 114l-7 3q-96 -211 -208 -211q-41 0 -66 29t-25 76q0 45 35.5 147t35.5 127q0 21 -15 21q-16 0 -31.5 -20.5t-42.5 -76.5l-47 20q65 158 163 158q40 0 62 -24t22 -67q0 -50 -33 -142.5t-33 -120.5q0 -39 28 -39q19 0 41 17.5t49.5 57.5
t59 120t60.5 191h120l-82 -310q-11 -37 -11 -57q0 -26 23 -26q32 0 67 101l48 -15q-53 -167 -150 -167zM346 534q-68 0 -100.5 44t-14.5 124h51q0 -86 77 -86q68 0 109 86h54q-19 -80 -66 -124t-110 -44z" />
    <glyph glyph-name="Uring" unicode="&#x16e;" horiz-adv-x="735" 
d="M647 851q0 -50 -34.5 -85.5t-88.5 -35.5q-48 0 -76 27.5t-28 66.5q0 51 34.5 86.5t88.5 35.5q48 0 76 -27.5t28 -67.5zM480 823q0 -23 12.5 -37t34.5 -14q28 0 44 26t16 56q0 23 -12.5 36.5t-34.5 13.5q-28 0 -44 -25.5t-16 -55.5zM351 -17q-118 0 -182.5 51.5
t-64.5 132.5q0 41 12 89l82 327h-92l19 75h309l-19 -75h-91l-83 -333q-9 -39 -9 -71q0 -55 38.5 -84t101.5 -29q72 0 115 43q38 38 58 115l89 359h-94l19 75h263l-18 -75h-88l-96 -385q-23 -93 -75 -145q-70 -70 -194 -70z" />
    <glyph glyph-name="uring" unicode="&#x16f;" horiz-adv-x="600" 
d="M486 649q0 -50 -34.5 -85.5t-88.5 -35.5q-48 0 -76 27.5t-28 66.5q0 51 34.5 86.5t88.5 35.5q48 0 76 -27.5t28 -67.5zM319 621q0 -23 12.5 -37t34.5 -14q28 0 44 26t16 56q0 23 -12.5 36.5t-34.5 13.5q-28 0 -44 -25.5t-16 -55.5zM445 -10q-85 0 -85 94q0 44 22 114
l-7 3q-96 -211 -208 -211q-41 0 -66 29t-25 76q0 45 35.5 147t35.5 127q0 21 -15 21q-16 0 -31.5 -20.5t-42.5 -76.5l-47 20q65 158 163 158q40 0 62 -24t22 -67q0 -50 -33 -142.5t-33 -120.5q0 -39 28 -39q19 0 41 17.5t49.5 57.5t59 120t60.5 191h120l-82 -310
q-11 -37 -11 -57q0 -26 23 -26q32 0 67 101l48 -15q-53 -167 -150 -167z" />
    <glyph glyph-name="Uhungarumlaut" unicode="&#x170;" horiz-adv-x="735" 
d="M351 -17q-118 0 -182.5 51.5t-64.5 132.5q0 41 12 89l82 327h-92l19 75h309l-19 -75h-91l-83 -333q-9 -39 -9 -71q0 -55 38.5 -84t101.5 -29q72 0 115 43q38 38 58 115l89 359h-94l19 75h263l-18 -75h-88l-96 -385q-23 -93 -75 -145q-70 -70 -194 -70zM524 810l-87 -74
h-58l76 134q21 39 37 55.5t38 16.5t37 -16t15 -35q0 -21 -11.5 -36t-46.5 -45zM694 810l-91 -74h-58l82 134q22 37 39.5 54.5t39.5 17.5t35.5 -15.5t13.5 -34.5q0 -21 -12.5 -36.5t-48.5 -45.5z" />
    <glyph glyph-name="uhungarumlaut" unicode="&#x171;" horiz-adv-x="600" 
d="M445 -10q-85 0 -85 94q0 44 22 114l-7 3q-96 -211 -208 -211q-41 0 -66 29t-25 76q0 45 35.5 147t35.5 127q0 21 -15 21q-16 0 -31.5 -20.5t-42.5 -76.5l-47 20q65 158 163 158q40 0 62 -24t22 -67q0 -50 -33 -142.5t-33 -120.5q0 -39 28 -39q19 0 41 17.5t49.5 57.5
t59 120t60.5 191h120l-82 -310q-11 -37 -11 -57q0 -26 23 -26q32 0 67 101l48 -15q-53 -167 -150 -167zM362 608l-87 -74h-58l76 134q21 39 37 55.5t38 16.5t37 -16t15 -35q0 -21 -11.5 -36t-46.5 -45zM532 608l-91 -74h-58l82 134q22 37 39.5 54.5t39.5 17.5t35.5 -15.5
t13.5 -34.5q0 -21 -12.5 -36.5t-48.5 -45.5z" />
    <glyph glyph-name="Uogonek" unicode="&#x172;" horiz-adv-x="735" 
d="M397 -209q-55 -37 -111 -37q-49 0 -80.5 23.5t-31.5 66.5q0 38 27 70t90 73q-90 12 -138.5 61t-48.5 119q0 41 12 89l82 327h-92l19 75h309l-19 -75h-91l-83 -333q-9 -39 -9 -71q0 -55 38.5 -84t101.5 -29q72 0 115 43q38 38 58 115l89 359h-94l19 75h263l-18 -75h-88
l-96 -385q-23 -93 -75 -145q-66 -66 -182 -70q-57 -45 -77 -72.5t-20 -51.5q0 -18 12.5 -31t38.5 -13q28 0 60 20z" />
    <glyph glyph-name="uogonek" unicode="&#x173;" horiz-adv-x="600" 
d="M547 172l48 -15q-20 -59 -41.5 -94t-63.5 -68q-65 -51 -88 -81t-23 -55q0 -19 12.5 -31.5t39.5 -12.5t60 20l20 -44q-56 -37 -111 -37q-50 0 -81.5 23.5t-31.5 66.5q0 39 29.5 72.5t98.5 77.5q-55 18 -55 90q0 44 22 114l-7 3q-96 -211 -208 -211q-41 0 -66 29t-25 76
q0 45 35.5 147t35.5 127q0 21 -15 21q-16 0 -31.5 -20.5t-42.5 -76.5l-47 20q65 158 163 158q40 0 62 -24t22 -67q0 -50 -33 -142.5t-33 -120.5q0 -39 28 -39q19 0 41 17.5t49.5 57.5t59 120t60.5 191h120l-82 -310q-11 -37 -11 -57q0 -26 23 -26q32 0 67 101z" />
    <glyph glyph-name="Wcircumflex" unicode="&#x174;" horiz-adv-x="983" 
d="M474 737l163 189h58l69 -189h-61l-54 90l-108 -90h-67zM566 -4l-19 399l-231 -399h-115l-39 587h-88l18 75h301l-18 -74h-86l21 -458h5l225 387l-3 71h-87l18 74h301l-18 -74h-92l15 -458h5l242 458h-85l18 74h245l-19 -75h-68l-329 -587h-117z" />
    <glyph glyph-name="wcircumflex" unicode="&#x175;" horiz-adv-x="746" 
d="M181 471q41 0 62 -23.5t21 -64.5q0 -54 -41 -147.5t-41 -123.5q0 -39 36 -39q28 0 57 33.5t65.5 124.5t68.5 233h108l-49 -205q-17 -71 -17 -119q0 -67 50 -67q42 0 79 43.5t58.5 103t24.5 116.5q-12 -6 -27 -6q-26 0 -42.5 17t-16.5 46q0 32 21.5 56.5t51.5 24.5
q37 0 58.5 -26t21.5 -76q0 -55 -18 -119.5t-50 -124.5t-84 -100t-111 -40q-53 0 -83.5 33t-29.5 99q0 17 2 30l-7 2q-63 -164 -169 -164q-49 0 -80.5 30.5t-31.5 83.5q0 49 43 144.5t43 122.5q0 21 -15 21q-18 0 -34 -21.5t-43 -76.5l-47 20q70 159 166 159zM305 535
l163 189h58l69 -189h-61l-54 90l-108 -90h-67z" />
    <glyph glyph-name="Ycircumflex" unicode="&#x176;" horiz-adv-x="638" 
d="M381 343l195 241h-80l18 74h237l-19 -75h-70l-265 -314l-48 -194h97l-18 -75h-318l18 75h95l51 202l-101 306h-79l19 75h301l-19 -74h-86zM302 737l163 189h58l69 -189h-61l-54 90l-108 -90h-67z" />
    <glyph glyph-name="ycircumflex" unicode="&#x177;" horiz-adv-x="553" 
d="M176 471q38 0 60 -23.5t22 -63.5q0 -50 -29 -132.5t-29 -107.5q0 -35 33 -35q109 0 200 355h112l-92 -386q-58 -248 -269 -248q-63 0 -108.5 21.5t-45.5 71.5q0 27 19 49.5t50 22.5q29 0 44.5 -17.5t13.5 -43.5t-20 -43q21 -7 46 -7q116 0 165 202l20 79l-6 3
q-79 -145 -178 -145q-48 0 -73.5 29t-25.5 75q0 41 32 128.5t32 113.5q0 21 -15 21q-30 0 -76 -98l-47 20q70 159 165 159zM197 535l163 189h58l69 -189h-61l-54 90l-108 -90h-67z" />
    <glyph glyph-name="Ydieresis" unicode="&#x178;" horiz-adv-x="638" 
d="M381 343l195 241h-80l18 74h237l-19 -75h-70l-265 -314l-48 -194h97l-18 -75h-318l18 75h95l51 202l-101 306h-79l19 75h301l-19 -74h-86zM447 830q0 -29 -22 -54.5t-55 -25.5q-24 0 -39.5 16t-15.5 42q0 31 20.5 56t53.5 25q26 0 42 -16t16 -43zM635 830
q0 -29 -22 -54.5t-55 -25.5q-24 0 -39.5 16t-15.5 42q0 31 20.5 56t53.5 25q26 0 42 -16t16 -43z" />
    <glyph glyph-name="Zacute" unicode="&#x179;" horiz-adv-x="619" 
d="M528 810l-93 -74h-59l83 134q25 39 41 55.5t39 16.5q22 0 36.5 -16t14.5 -35q0 -20 -12.5 -35t-49.5 -46zM-20 0l16 63l507 521h-158q-43 0 -66 -10.5t-49 -45.5t-71 -119h-58l62 249h520l-16 -63l-506 -521h179q60 0 91 30t96 152h59l-64 -256h-542z" />
    <glyph glyph-name="zacute" unicode="&#x17a;" horiz-adv-x="465" 
d="M398 608l-93 -74h-59l83 134q25 39 41 55.5t39 16.5q22 0 36.5 -16t14.5 -35q0 -20 -12.5 -35t-49.5 -46zM141 137q28 -3 78.5 -20.5t73.5 -17.5q35 0 53 18.5t47 79.5l44 -18q-34 -101 -71 -145t-102 -44q-78 0 -130 81l-22 33l-9 -2q-15 -112 -72 -112q-23 0 -38 15
t-15 36q0 61 99 90q50 61 117 113.5t126 79.5q-28 3 -76.5 20.5t-69.5 17.5q-34 0 -52 -18.5t-47 -78.5l-45 17q34 101 71 145t102 44q73 0 125 -81l21 -33l9 2q15 112 72 112q23 0 38 -14.5t15 -35.5q0 -63 -99 -91q-50 -61 -116.5 -113t-126.5 -80z" />
    <glyph glyph-name="Zdotaccent" unicode="&#x17b;" horiz-adv-x="619" 
d="M-20 0l16 63l507 521h-158q-43 0 -66 -10.5t-49 -45.5t-71 -119h-58l62 249h520l-16 -63l-506 -521h179q60 0 91 30t96 152h59l-64 -256h-542zM519 819q0 -30 -23 -56t-59 -26q-25 0 -41.5 16t-16.5 44q0 32 22 58t57 26q27 0 44 -16.5t17 -45.5z" />
    <glyph glyph-name="zdotaccent" unicode="&#x17c;" horiz-adv-x="465" 
d="M141 137q28 -3 78.5 -20.5t73.5 -17.5q35 0 53 18.5t47 79.5l44 -18q-34 -101 -71 -145t-102 -44q-78 0 -130 81l-22 33l-9 -2q-15 -112 -72 -112q-23 0 -38 15t-15 36q0 61 99 90q50 61 117 113.5t126 79.5q-28 3 -76.5 20.5t-69.5 17.5q-34 0 -52 -18.5t-47 -78.5
l-45 17q34 101 71 145t102 44q73 0 125 -81l21 -33l9 2q15 112 72 112q23 0 38 -14.5t15 -35.5q0 -63 -99 -91q-50 -61 -116.5 -113t-126.5 -80zM388 617q0 -30 -23 -56t-59 -26q-25 0 -41.5 16t-16.5 44q0 32 22 58t57 26q27 0 44 -16.5t17 -45.5z" />
    <glyph glyph-name="Zcaron" unicode="&#x17d;" horiz-adv-x="619" 
d="M609 932l-164 -189h-58l-69 189h62l54 -90l107 90h68zM-20 0l16 63l507 521h-158q-43 0 -66 -10.5t-49 -45.5t-71 -119h-58l62 249h520l-16 -63l-506 -521h179q60 0 91 30t96 152h59l-64 -256h-542z" />
    <glyph glyph-name="zcaron" unicode="&#x17e;" horiz-adv-x="465" 
d="M478 730l-164 -189h-58l-69 189h62l54 -90l107 90h68zM141 137q28 -3 78.5 -20.5t73.5 -17.5q35 0 53 18.5t47 79.5l44 -18q-34 -101 -71 -145t-102 -44q-78 0 -130 81l-22 33l-9 -2q-15 -112 -72 -112q-23 0 -38 15t-15 36q0 61 99 90q50 61 117 113.5t126 79.5
q-28 3 -76.5 20.5t-69.5 17.5q-34 0 -52 -18.5t-47 -78.5l-45 17q34 101 71 145t102 44q73 0 125 -81l21 -33l9 2q15 112 72 112q23 0 38 -14.5t15 -35.5q0 -63 -99 -91q-50 -61 -116.5 -113t-126.5 -80z" />
    <glyph glyph-name="Aringacute" unicode="&#x1fa;" 
d="M607 975l-93 -74h-59l83 134q25 39 41 55.5t39 16.5q22 0 36.5 -16t14.5 -35q0 -20 -12.5 -35t-49.5 -46zM576 765q0 -35 -18.5 -64.5t-49.5 -44.5l59 -581h88l-19 -75h-309l18 75h95l-12 147h-222l-86 -147h84l-18 -75h-245l19 75h69l357 589q-36 26 -36 74
q0 51 34 86.5t88 35.5q48 0 76 -27.5t28 -67.5zM244 289h179l-21 265h-4zM409 737q0 -23 12.5 -37t35.5 -14q27 0 43 26t16 56q0 23 -12.5 36.5t-34.5 13.5q-28 0 -44 -25.5t-16 -55.5z" />
    <glyph glyph-name="aringacute" unicode="&#x1fb;" horiz-adv-x="564" 
d="M511 464l-82 -310q-11 -36 -11 -57q0 -26 23 -26q32 0 67 101l48 -15q-53 -167 -154 -167q-37 0 -59.5 23t-22.5 65q0 12 1 22l-7 3q-28 -55 -68 -84t-84 -29q-62 0 -97.5 45t-35.5 114q0 74 26.5 139.5t68.5 106.5q74 76 156 76q40 0 65 -24t32 -60l20 77h114zM208 70
q55 0 99.5 92t44.5 164q0 80 -54 80q-41 0 -77 -45.5t-53.5 -101.5t-17.5 -100q0 -89 58 -89zM497 858l-93 -74h-59l83 134q25 39 41 55.5t39 16.5q22 0 36.5 -16t14.5 -35q0 -20 -12.5 -35t-49.5 -46zM475 649q0 -50 -34.5 -85.5t-88.5 -35.5q-48 0 -76 27.5t-28 66.5
q0 51 34.5 86.5t88.5 35.5q48 0 76 -27.5t28 -67.5zM308 621q0 -23 12.5 -37t34.5 -14q28 0 44 26t16 56q0 23 -12.5 36.5t-34.5 13.5q-28 0 -44 -25.5t-16 -55.5z" />
    <glyph glyph-name="AEacute" unicode="&#x1fc;" horiz-adv-x="1012" 
d="M788 810l-93 -74h-59l83 134q25 39 41 55.5t39 16.5q22 0 36.5 -16t14.5 -35q0 -20 -12.5 -35t-49.5 -46zM330 75h100l40 157h-219l-132 -158h83l-18 -74h-258l18 75h70l443 508h-95l17 75h678l-55 -223h-60q-2 95 -18 122t-76 27h-165l-53 -214h46q50 0 69 16t48 81h65
l-66 -264h-62q6 65 -5 82t-59 17h-53l-57 -228h167q65 0 93 29.5t82 141.5h66l-61 -245h-591zM308 299h178l71 286h-8z" />
    <glyph glyph-name="aeacute" unicode="&#x1fd;" horiz-adv-x="727" 
d="M575 471q63 0 98.5 -28.5t35.5 -75.5q0 -72 -77 -121.5t-228 -58.5q-1 -8 -1 -22q0 -109 94 -109q75 0 140 92l42 -30q-89 -128 -212 -128q-58 0 -98 25.5t-58 70.5q-67 -92 -176 -92q-61 0 -93 30t-32 77q0 75 78.5 118t226.5 49q17 54 17 75q0 70 -86 70q-28 0 -55 -9
q16 -14 16 -39q0 -28 -18.5 -47t-50.5 -19q-27 0 -42.5 16.5t-15.5 42.5q0 47 49.5 80t137.5 33q105 0 143 -61q73 61 165 61zM557 416q-48 0 -87 -54.5t-57 -126.5q99 11 144.5 46t45.5 85q0 22 -12 36t-34 14zM556 608l-93 -74h-59l83 134q25 39 41 55.5t39 16.5
q22 0 36.5 -16t14.5 -35q0 -20 -12.5 -35t-49.5 -46zM297 162q0 32 6 62q-89 -11 -131.5 -36.5t-42.5 -71.5q0 -22 15 -37.5t40 -15.5q58 0 115 69q-2 18 -2 30z" />
    <glyph glyph-name="Oslashacute" unicode="&#x1fe;" horiz-adv-x="720" 
d="M62 273q0 98 44.5 189t130.5 151.5t193 60.5q106 0 182 -63l95 103l51 -45l-102 -106q53 -73 53 -178q0 -98 -44.5 -189t-130.5 -151.5t-192 -60.5q-109 0 -183 62l-94 -102l-51 45l101 106q-53 73 -53 178zM425 601q-58 0 -104.5 -39.5t-72 -99t-39 -120.5t-13.5 -113
q0 -33 4 -54l347 369q-39 57 -122 57zM576 429q0 26 -5 54l-346 -369q37 -57 122 -57q58 0 104 39.5t72 99t39.5 120.5t13.5 113zM573 810l-93 -74h-59l83 134q25 39 41 55.5t39 16.5q22 0 36.5 -16t14.5 -35q0 -20 -12.5 -35t-49.5 -46z" />
    <glyph glyph-name="oslashacute" unicode="&#x1ff;" horiz-adv-x="515" 
d="M40 -47l-40 38l66 72q-36 52 -36 121q0 116 79.5 201.5t184.5 85.5q67 0 113 -34l67 72l40 -38l-67 -73q37 -49 37 -120q0 -116 -79.5 -202t-184.5 -86q-67 0 -114 33zM220 46q43 0 77.5 48t51 109t18.5 117l-212 -240q15 -34 65 -34zM294 416q-43 0 -78 -48
t-51.5 -108.5t-18.5 -116.5l212 239q-15 34 -64 34zM419 608l-93 -74h-59l83 134q25 39 41 55.5t39 16.5q22 0 36.5 -16t14.5 -35q0 -20 -12.5 -35t-49.5 -46z" />
    <glyph glyph-name="Scommaaccent" unicode="&#x218;" horiz-adv-x="587" 
d="M116 -337l-15 41q100 36 121 92l-5 4q-10 -5 -22 -5q-23 0 -38 15t-15 40q0 30 21 54.5t54 24.5q36 0 56 -24.5t20 -61.5q0 -58 -45.5 -106t-131.5 -74zM-9 -13l60 247h71q14 -88 61.5 -133.5t115.5 -45.5q57 0 91 30.5t34 71.5q0 26 -21 48.5t-39 32t-65 31.5l-12 6
q-40 18 -63.5 31t-53 35.5t-43.5 52.5t-14 68q0 85 68 148.5t166 63.5q53 0 99 -20.5t71 -55.5l41 73h75l-59 -237h-70q-15 91 -53 130.5t-104 39.5q-48 0 -79.5 -29.5t-31.5 -69.5t32.5 -64.5t97.5 -53.5q7 -3 10 -4q39 -17 62.5 -29.5t52 -34.5t42 -51.5t13.5 -66.5
q0 -92 -71.5 -154.5t-174.5 -62.5q-127 0 -190 80l-44 -77h-75z" />
    <glyph glyph-name="scommaaccent" unicode="&#x219;" horiz-adv-x="442" 
d="M39 -337l-15 41q100 36 121 92l-5 4q-10 -5 -22 -5q-23 0 -38 15t-15 40q0 30 21 54.5t54 24.5q36 0 56 -24.5t20 -61.5q0 -58 -45.5 -106t-131.5 -74zM389 147q0 -74 -55 -115.5t-134 -41.5q-76 0 -133.5 31t-57.5 85q0 30 18.5 51t47.5 21q28 0 43.5 -16.5t15.5 -38.5
q0 -35 -24 -55q29 -26 86 -26q39 0 61 18.5t22 52.5q0 18 -14 33t-30 23.5t-48 23.5q-28 13 -44 22t-35.5 24t-28.5 34.5t-9 43.5q0 73 57.5 113.5t130.5 40.5q76 0 124 -30t48 -75q0 -30 -18 -51t-46 -21q-27 0 -43 16t-16 39q0 32 24 53q-21 19 -69 19q-37 0 -60 -18
t-23 -49q0 -27 22.5 -44t77.5 -42q25 -11 40.5 -19.5t33.5 -23.5t27 -34t9 -44z" />
    <glyph glyph-name="schwa" unicode="&#x259;" horiz-adv-x="471" 
d="M18 94q0 71 76.5 120.5t227.5 58.5q1 8 1 23q0 109 -93 109q-75 0 -140 -92l-42 30q43 61 94 94.5t125 33.5q78 0 126.5 -50t48.5 -132q0 -117 -87 -208t-203 -91q-63 0 -98.5 28.5t-35.5 75.5zM169 45q48 0 87 54.5t57 125.5q-99 -11 -144.5 -45.5t-45.5 -84.5
q0 -22 12 -36t34 -14z" />
    <glyph glyph-name="circumflex" unicode="&#x2c6;" horiz-adv-x="321" 
d="M96 535l163 189h58l69 -189h-61l-54 90l-108 -90h-67z" />
    <glyph glyph-name="caron" unicode="&#x2c7;" horiz-adv-x="321" 
d="M427 730l-164 -189h-58l-69 189h62l54 -90l107 90h68z" />
    <glyph glyph-name="breve" unicode="&#x2d8;" horiz-adv-x="346" 
d="M266 537q-68 0 -100.5 44t-14.5 124h51q0 -86 77 -86q68 0 109 86h54q-19 -80 -66 -124t-110 -44z" />
    <glyph glyph-name="dotaccent" unicode="&#x2d9;" horiz-adv-x="201" 
d="M270 617q0 -30 -23 -56t-59 -26q-25 0 -41.5 16t-16.5 44q0 32 22 58t57 26q27 0 44 -16.5t17 -45.5z" />
    <glyph glyph-name="ring" unicode="&#x2da;" horiz-adv-x="274" 
d="M355 649q0 -50 -34.5 -85.5t-88.5 -35.5q-48 0 -76 27.5t-28 66.5q0 51 34.5 86.5t88.5 35.5q48 0 76 -27.5t28 -67.5zM188 621q0 -23 12.5 -37t34.5 -14q28 0 44 26t16 56q0 23 -12.5 36.5t-34.5 13.5q-28 0 -44 -25.5t-16 -55.5z" />
    <glyph glyph-name="ogonek" unicode="&#x2db;" horiz-adv-x="283" 
d="M146 -209q-55 -37 -111 -37q-49 0 -80.5 23.5t-31.5 66.5q0 41 32 76t109 82l21 13h71l-27 -19q-68 -53 -91 -82t-23 -55q0 -18 12.5 -31t38.5 -13q28 0 60 20z" />
    <glyph glyph-name="tilde" unicode="&#x2dc;" horiz-adv-x="361" 
d="M206 593q-15 0 -27 -13t-28 -45h-57q24 72 53.5 107.5t74.5 35.5q28 0 53.5 -13.5t44.5 -27t32 -13.5q15 0 27 13t28 45h57q-24 -71 -53.5 -107t-74.5 -36q-28 0 -53.5 13.5t-44.5 27t-32 13.5z" />
    <glyph glyph-name="hungarumlaut" unicode="&#x2dd;" horiz-adv-x="308" 
d="M209 608l-87 -74h-58l76 134q21 39 37 55.5t38 16.5t37 -16t15 -35q0 -21 -11.5 -36t-46.5 -45zM379 608l-91 -74h-58l82 134q22 37 39.5 54.5t39.5 17.5t35.5 -15.5t13.5 -34.5q0 -21 -12.5 -36.5t-48.5 -45.5z" />
    <glyph glyph-name="commaaccent" unicode="&#x326;" horiz-adv-x="240" 
d="M-77 -337l-15 41q100 36 121 92l-5 4q-10 -5 -22 -5q-23 0 -38 15t-15 40q0 30 21 54.5t54 24.5q36 0 56 -24.5t20 -61.5q0 -58 -45.5 -106t-131.5 -74z" />
    <glyph glyph-name="Wgrave" unicode="&#x1e80;" horiz-adv-x="983" 
d="M566 -4l-19 399l-231 -399h-115l-39 587h-88l18 75h301l-18 -74h-86l21 -458h5l225 387l-3 71h-87l18 74h301l-18 -74h-92l15 -458h5l242 458h-85l18 74h245l-19 -75h-68l-329 -587h-117zM629 846l20 -110h-53l-49 75q-34 51 -34 80q0 19 14.5 34.5t35.5 15.5
q22 0 35.5 -13.5t18.5 -30.5t12 -51z" />
    <glyph glyph-name="wgrave" unicode="&#x1e81;" horiz-adv-x="746" 
d="M181 471q41 0 62 -23.5t21 -64.5q0 -54 -41 -147.5t-41 -123.5q0 -39 36 -39q28 0 57 33.5t65.5 124.5t68.5 233h108l-49 -205q-17 -71 -17 -119q0 -67 50 -67q42 0 79 43.5t58.5 103t24.5 116.5q-12 -6 -27 -6q-26 0 -42.5 17t-16.5 46q0 32 21.5 56.5t51.5 24.5
q37 0 58.5 -26t21.5 -76q0 -55 -18 -119.5t-50 -124.5t-84 -100t-111 -40q-53 0 -83.5 33t-29.5 99q0 17 2 30l-7 2q-63 -164 -169 -164q-49 0 -80.5 30.5t-31.5 83.5q0 49 43 144.5t43 122.5q0 21 -15 21q-18 0 -34 -21.5t-43 -76.5l-47 20q70 159 166 159zM460 644
l20 -110h-53l-49 75q-34 51 -34 80q0 19 14.5 34.5t35.5 15.5q22 0 35.5 -13.5t18.5 -30.5t12 -51z" />
    <glyph glyph-name="Wacute" unicode="&#x1e82;" horiz-adv-x="983" 
d="M724 810l-93 -74h-59l83 134q25 39 41 55.5t39 16.5q22 0 36.5 -16t14.5 -35q0 -20 -12.5 -35t-49.5 -46zM566 -4l-19 399l-231 -399h-115l-39 587h-88l18 75h301l-18 -74h-86l21 -458h5l225 387l-3 71h-87l18 74h301l-18 -74h-92l15 -458h5l242 458h-85l18 74h245
l-19 -75h-68l-329 -587h-117z" />
    <glyph glyph-name="wacute" unicode="&#x1e83;" horiz-adv-x="746" 
d="M181 471q41 0 62 -23.5t21 -64.5q0 -54 -41 -147.5t-41 -123.5q0 -39 36 -39q28 0 57 33.5t65.5 124.5t68.5 233h108l-49 -205q-17 -71 -17 -119q0 -67 50 -67q42 0 79 43.5t58.5 103t24.5 116.5q-12 -6 -27 -6q-26 0 -42.5 17t-16.5 46q0 32 21.5 56.5t51.5 24.5
q37 0 58.5 -26t21.5 -76q0 -55 -18 -119.5t-50 -124.5t-84 -100t-111 -40q-53 0 -83.5 33t-29.5 99q0 17 2 30l-7 2q-63 -164 -169 -164q-49 0 -80.5 30.5t-31.5 83.5q0 49 43 144.5t43 122.5q0 21 -15 21q-18 0 -34 -21.5t-43 -76.5l-47 20q70 159 166 159zM555 608
l-93 -74h-59l83 134q25 39 41 55.5t39 16.5q22 0 36.5 -16t14.5 -35q0 -20 -12.5 -35t-49.5 -46z" />
    <glyph glyph-name="Wdieresis" unicode="&#x1e84;" horiz-adv-x="983" 
d="M619 830q0 -29 -22 -54.5t-55 -25.5q-24 0 -39.5 16t-15.5 42q0 31 20.5 56t53.5 25q26 0 42 -16t16 -43zM807 830q0 -29 -22 -54.5t-55 -25.5q-24 0 -39.5 16t-15.5 42q0 31 20.5 56t53.5 25q26 0 42 -16t16 -43zM566 -4l-19 399l-231 -399h-115l-39 587h-88l18 75h301
l-18 -74h-86l21 -458h5l225 387l-3 71h-87l18 74h301l-18 -74h-92l15 -458h5l242 458h-85l18 74h245l-19 -75h-68l-329 -587h-117z" />
    <glyph glyph-name="wdieresis" unicode="&#x1e85;" horiz-adv-x="746" 
d="M181 471q41 0 62 -23.5t21 -64.5q0 -54 -41 -147.5t-41 -123.5q0 -39 36 -39q28 0 57 33.5t65.5 124.5t68.5 233h108l-49 -205q-17 -71 -17 -119q0 -67 50 -67q42 0 79 43.5t58.5 103t24.5 116.5q-12 -6 -27 -6q-26 0 -42.5 17t-16.5 46q0 32 21.5 56.5t51.5 24.5
q37 0 58.5 -26t21.5 -76q0 -55 -18 -119.5t-50 -124.5t-84 -100t-111 -40q-53 0 -83.5 33t-29.5 99q0 17 2 30l-7 2q-63 -164 -169 -164q-49 0 -80.5 30.5t-31.5 83.5q0 49 43 144.5t43 122.5q0 21 -15 21q-18 0 -34 -21.5t-43 -76.5l-47 20q70 159 166 159zM638 628
q0 -29 -22 -54.5t-55 -25.5q-24 0 -39.5 16t-15.5 42q0 31 20.5 56t53.5 25q26 0 42 -16t16 -43zM450 628q0 -29 -22 -54.5t-55 -25.5q-24 0 -39.5 16t-15.5 42q0 31 20.5 56t53.5 25q26 0 42 -16t16 -43z" />
    <glyph glyph-name="Ygrave" unicode="&#x1ef2;" horiz-adv-x="638" 
d="M381 343l195 241h-80l18 74h237l-19 -75h-70l-265 -314l-48 -194h97l-18 -75h-318l18 75h95l51 202l-101 306h-79l19 75h301l-19 -74h-86zM456 846l20 -110h-53l-49 75q-34 51 -34 80q0 19 14.5 34.5t35.5 15.5q22 0 35.5 -13.5t18.5 -30.5t12 -51z" />
    <glyph glyph-name="ygrave" unicode="&#x1ef3;" horiz-adv-x="553" 
d="M176 471q38 0 60 -23.5t22 -63.5q0 -50 -29 -132.5t-29 -107.5q0 -35 33 -35q109 0 200 355h112l-92 -386q-58 -248 -269 -248q-63 0 -108.5 21.5t-45.5 71.5q0 27 19 49.5t50 22.5q29 0 44.5 -17.5t13.5 -43.5t-20 -43q21 -7 46 -7q116 0 165 202l20 79l-6 3
q-79 -145 -178 -145q-48 0 -73.5 29t-25.5 75q0 41 32 128.5t32 113.5q0 21 -15 21q-30 0 -76 -98l-47 20q70 159 165 159zM352 644l20 -110h-53l-49 75q-34 51 -34 80q0 19 14.5 34.5t35.5 15.5q22 0 35.5 -13.5t18.5 -30.5t12 -51z" />
    <glyph glyph-name="enspace" unicode="&#x2002;" horiz-adv-x="500" 
 />
    <glyph glyph-name="emspace" unicode="&#x2003;" horiz-adv-x="1000" 
 />
    <glyph glyph-name="threeperemspace" unicode="&#x2004;" horiz-adv-x="333" 
 />
    <glyph glyph-name="fourperemspace" unicode="&#x2005;" horiz-adv-x="250" 
 />
    <glyph glyph-name="thinspace" unicode="&#x2009;" horiz-adv-x="133" 
 />
    <glyph glyph-name="hairspace" unicode="&#x200a;" horiz-adv-x="75" 
 />
    <glyph glyph-name="endash" unicode="&#x2013;" horiz-adv-x="535" 
d="M47 209l20 78h431l-19 -78h-432z" />
    <glyph glyph-name="emdash" unicode="&#x2014;" horiz-adv-x="785" 
d="M47 209l20 78h681l-19 -78h-682z" />
    <glyph glyph-name="quoteleft" unicode="&#x2018;" horiz-adv-x="242" 
d="M300 681l12 -44q-117 -35 -146 -104l6 -5q10 7 21 7q24 0 39 -16t15 -43q0 -33 -21.5 -58.5t-54.5 -25.5q-39 0 -60 25t-21 65q0 67 54 120.5t156 78.5z" />
    <glyph glyph-name="quoteright" unicode="&#x2019;" horiz-adv-x="242" 
d="M88 384l-12 45q120 36 146 104l-5 5q-11 -7 -22 -7q-23 0 -38.5 16.5t-15.5 42.5q0 33 21.5 58.5t54.5 25.5q38 0 59.5 -25.5t21.5 -64.5q0 -68 -54 -121.5t-156 -78.5z" />
    <glyph glyph-name="quotesinglbase" unicode="&#x201a;" horiz-adv-x="242" 
d="M-50 -154l-12 45q120 36 146 104l-5 5q-11 -7 -22 -7q-23 0 -38.5 16.5t-15.5 42.5q0 33 21.5 58.5t54.5 25.5q38 0 59.5 -25.5t21.5 -64.5q0 -68 -54 -121.5t-156 -78.5z" />
    <glyph glyph-name="quotedblleft" unicode="&#x201c;" horiz-adv-x="452" 
d="M304 681l12 -44q-119 -35 -146 -104l6 -5q9 7 21 7q23 0 38.5 -16.5t15.5 -42.5q0 -33 -21.5 -58.5t-54.5 -25.5q-39 0 -60 25t-21 65q0 67 54 120.5t156 78.5zM510 681l12 -44q-119 -35 -146 -104l6 -5q9 7 21 7q23 0 38.5 -16.5t15.5 -42.5q0 -33 -21.5 -58.5
t-54.5 -25.5q-39 0 -60 25t-21 65q0 67 54 120.5t156 78.5z" />
    <glyph glyph-name="quotedblright" unicode="&#x201d;" horiz-adv-x="452" 
d="M88 384l-12 45q120 36 146 104l-5 5q-11 -7 -22 -7q-23 0 -38.5 16.5t-15.5 42.5q0 33 21.5 58.5t54.5 25.5q38 0 59.5 -25.5t21.5 -64.5q0 -68 -54 -121.5t-156 -78.5zM294 384l-12 45q120 35 146 104l-5 5q-11 -7 -21 -7q-24 0 -39.5 16t-15.5 43q0 33 21.5 58.5
t54.5 25.5q38 0 59.5 -25.5t21.5 -64.5q0 -68 -54 -121.5t-156 -78.5z" />
    <glyph glyph-name="quotedblbase" unicode="&#x201e;" horiz-adv-x="448" 
d="M-50 -154l-12 45q120 36 146 104l-5 5q-11 -7 -22 -7q-23 0 -38.5 16.5t-15.5 42.5q0 33 21.5 58.5t54.5 25.5q38 0 59.5 -25.5t21.5 -64.5q0 -68 -54 -121.5t-156 -78.5zM156 -154l-12 45q120 35 146 104l-5 5q-11 -7 -21 -7q-24 0 -39.5 16t-15.5 43q0 33 21.5 58.5
t54.5 25.5q38 0 59.5 -25.5t21.5 -64.5q0 -68 -54 -121.5t-156 -78.5z" />
    <glyph glyph-name="dagger" unicode="&#x2020;" horiz-adv-x="527" 
d="M425 626l-86 -177q76 -26 104 -26q7 0 9 1q-8 32 9 57.5t47 25.5q21 0 36 -14.5t15 -39.5q0 -31 -25.5 -55.5t-70.5 -24.5t-133 32l-42 -293l-36 -144q-7 -30 -32.5 -53t-36.5 -21q-12 2 -25 35t-5 63l36 144l102 282q-72 26 -104 26h-9q8 -33 -9 -58t-47 -25
q-21 0 -36 14.5t-15 38.5q0 31 26 56t70 25q21 0 42.5 -4.5t36 -9t56.5 -19.5l6 193l14 18q21 31 49 31q43 0 51 -56z" />
    <glyph glyph-name="daggerdbl" unicode="&#x2021;" horiz-adv-x="527" 
d="M272 176q74 -26 101 -26q8 0 10 1q-8 33 9 58t47 25q22 0 36.5 -14t14.5 -39q0 -32 -25.5 -56.5t-69.5 -24.5q-30 0 -54.5 6.5t-80.5 26.5l-6 -191l-14 -19q-22 -30 -49 -30q-41 0 -51 56l-3 22l86 174q-79 27 -103 27q-8 0 -10 -1q7 -33 -10 -58t-47 -25q-21 0 -36 14.5
t-15 38.5q0 32 26 56.5t70 24.5t130 -31l7 121l54 109q-71 25 -99 25h-11q8 -33 -9 -58t-47 -25q-21 0 -36 14.5t-15 38.5q0 32 26 56.5t70 24.5q21 0 42.5 -4.5t36 -9t56.5 -19.5l5 191l14 18q21 31 49 31q43 0 51 -56l3 -22l-85 -175q74 -26 103 -26q7 0 10 1q-8 33 9 58
t47 25q21 0 36 -14.5t15 -38.5q0 -32 -26 -56.5t-70 -24.5t-131 31l-7 -122z" />
    <glyph glyph-name="bullet" unicode="&#x2022;" horiz-adv-x="479" 
d="M251 172q-54 0 -90.5 37t-36.5 94q0 67 46.5 116t110.5 49q54 0 90.5 -37t36.5 -94q0 -67 -46.5 -116t-110.5 -49z" />
    <glyph glyph-name="ellipsis" unicode="&#x2026;" horiz-adv-x="708" 
d="M77 -16q-29 0 -48 19.5t-19 51.5t21.5 58t55.5 26q29 0 48 -19.5t19 -51.5t-21.5 -58t-55.5 -26zM310 -16q-29 0 -48 19.5t-19 51.5t21.5 58t55.5 26q29 0 48 -19.5t19 -51.5t-21.5 -58t-55.5 -26zM544 -16q-29 0 -48 19.5t-19 51.5t21.5 58t55.5 26q29 0 48 -19.5
t19 -51.5t-21.5 -58t-55.5 -26z" />
    <glyph glyph-name="guilsinglleft" unicode="&#x2039;" horiz-adv-x="305" 
d="M178 31l-129 160q-18 22 -18 37q0 18 36 45l203 148l30 -34l-158 -166l78 -163z" />
    <glyph glyph-name="guilsinglright" unicode="&#x203a;" horiz-adv-x="305" 
d="M125 420l129 -160q18 -22 18 -37q0 -18 -36 -45l-203 -148l-30 34l158 166l-78 163z" />
    <glyph glyph-name="Euro" unicode="&#x20ac;" horiz-adv-x="651" 
d="M443 347h-185q-8 -41 -11 -73h179l-17 -66h-162q6 -73 42 -107t90 -34q101 0 168 136l59 -30q-34 -85 -98.5 -137t-153.5 -52q-100 0 -163.5 57.5t-70.5 166.5h-100l16 66h84q3 37 12 73h-78l16 66h83q44 107 130 172t188 65q93 0 145 -45t52 -106q0 -39 -22.5 -67
t-56.5 -28q-30 0 -48 18.5t-18 46.5q0 50 45 76q-26 37 -90 37q-136 0 -201 -170h183z" />
    <glyph glyph-name="published" unicode="&#x2117;" horiz-adv-x="787" 
d="M412 -33q-155 0 -259.5 103.5t-104.5 258.5q0 154 104.5 258t259.5 104t259.5 -104t104.5 -258q0 -155 -104.5 -258.5t-259.5 -103.5zM412 10q135 0 224.5 91t89.5 228q0 136 -89.5 227.5t-224.5 91.5t-224.5 -91.5t-89.5 -227.5q0 -137 89.5 -228t224.5 -91zM262 147v44
h54v278h-54v45h173q81 0 119.5 -30.5t38.5 -80.5t-37.5 -82.5t-117.5 -32.5h-44v-97h59v-44h-191zM394 331h38q43 0 59.5 17.5t16.5 53.5q0 33 -17.5 51t-59.5 18h-37v-140z" />
    <glyph glyph-name="servicemark" unicode="&#x2120;" horiz-adv-x="800" 
d="M76 351l30 119h36q15 -83 84 -83q24 0 37.5 12t13.5 30q0 4 -1 7.5t-2 6.5t-3.5 6t-4.5 5t-6 5t-6.5 4.5t-8 4t-7.5 3.5t-9 4t-9 4q-54 26 -69 42q-18 20 -18 48q0 40 33.5 69t81.5 29q54 0 79 -36l20 34h38l-29 -112h-35q-15 76 -71 76q-23 0 -36.5 -11.5t-13.5 -29.5
q0 -4 1 -7.5t2 -6.5t3.5 -6t4.5 -5t6.5 -4.5t6.5 -4t7.5 -4.5t8 -4t9 -4t8.5 -4q54 -24 68 -40q19 -20 19 -49q0 -43 -33.5 -71.5t-84.5 -28.5q-57 0 -90 38l-22 -36h-38zM361 355l10 41h42l55 221h-42l11 41h149l14 -198h7l107 198h154l-10 -41h-45l-55 -221h45l-11 -41
h-151l10 41h35l53 208h-12l-141 -249h-43l-20 249h-14l-52 -208h37l-10 -41h-123z" />
    <glyph glyph-name="trademark" unicode="&#x2122;" horiz-adv-x="844" 
d="M406 355l10 41h42l54 221h-41l10 41h150l13 -198h7l107 198h155l-11 -41h-44l-55 -221h44l-10 -41h-151l10 41h35l53 208h-12l-142 -249h-42l-21 249h-13l-52 -208h37l-11 -41h-122zM128 355l11 41h54l57 225h-14q-29 0 -44 -14.5t-44 -70.5h-34l31 122h300l-30 -122h-30
q-2 55 -10 70t-36 15h-17l-56 -225h54l-10 -41h-182z" />
    <glyph glyph-name="minus" unicode="&#x2212;" horiz-adv-x="520" 
d="M455 245h-381l19 76h381z" />
    <glyph glyph-name="registered.alt" horiz-adv-x="787" 
d="M412 -33q-155 0 -259.5 103.5t-104.5 258.5q0 154 104.5 258t259.5 104t259.5 -104t104.5 -258q0 -155 -104.5 -258.5t-259.5 -103.5zM412 10q135 0 224.5 91t89.5 228q0 136 -89.5 227.5t-224.5 91.5t-224.5 -91.5t-89.5 -227.5q0 -137 89.5 -228t224.5 -91zM369 308
v-115h55v-44h-187v44h55v278h-55v44h192q77 0 111.5 -27t34.5 -68q0 -34 -25 -58.5t-80 -31.5v-5q46 -6 65.5 -25.5t21.5 -53.5l3 -29q1 -27 17 -27q12 0 23 29l29 -11q-19 -67 -75 -67q-76 0 -76 81v29q0 30 -12 43.5t-44 13.5h-53zM369 348h52q37 0 53 15.5t16 49.5
q0 31 -14.5 45t-50.5 14h-56v-124z" />
    <glyph glyph-name="zero.osf" horiz-adv-x="584" 
d="M45 225q0 84 36.5 163t105.5 131t152 52q102 0 161 -64.5t59 -176.5q0 -84 -36.5 -163t-105.5 -131t-152 -52q-102 0 -161 64.5t-59 176.5zM430 377q0 126 -94 126q-39 0 -71.5 -35t-51.5 -87.5t-29 -106t-10 -96.5q0 -126 94 -126q39 0 71.5 35t51.5 87.5t29 106
t10 96.5z" />
    <glyph glyph-name="one.osf" horiz-adv-x="466" 
d="M2 0l17 74h133l88 348q-28 -12 -69 -12q-47 0 -74 11l15 61q60 -3 114 18t87 61h82l-122 -487h133l-17 -74h-387z" />
    <glyph glyph-name="two.osf" horiz-adv-x="538" 
d="M201 480q32 -18 32 -58q0 -32 -19.5 -54t-53.5 -22q-31 0 -50.5 19.5t-19.5 50.5q0 62 60.5 108.5t157.5 46.5t151 -44.5t54 -110.5q0 -79 -51 -119t-143 -64q-108 -31 -153 -57.5t-69 -65.5l3 -4q45 29 99 29q39 0 87 -19.5t67 -19.5q28 0 48 21.5t43 73.5l51 -10
q-27 -106 -68.5 -151.5t-105.5 -45.5q-31 0 -58.5 13.5t-43.5 30t-36 30t-38 13.5q-14 0 -25 -5q4 -11 4 -23q0 -26 -17.5 -42.5t-43.5 -16.5t-43 17.5t-17 48.5q0 40 18.5 74t53 60.5t64.5 43.5t71 36q40 17 59 26.5t47 25.5t40.5 30t22 34.5t9.5 45.5q0 37 -27 58.5
t-71 21.5q-56 0 -89 -26z" />
    <glyph glyph-name="three.osf" horiz-adv-x="531" 
d="M107 -7q32 -19 83 -19q68 0 104 41.5t36 104.5q0 87 -128 87h-23l17 67h23q89 0 128 39q42 42 42 107q0 87 -94 87q-44 0 -75 -21q21 -24 21 -52q0 -33 -19.5 -55.5t-53.5 -22.5q-31 0 -50 18.5t-19 49.5q0 65 65.5 106t146.5 41q99 0 153 -43.5t54 -108.5
q0 -69 -53.5 -120.5t-158.5 -59.5l-1 -3q77 -12 114.5 -46t37.5 -85q0 -85 -70 -139t-179 -54q-99 0 -155.5 38t-56.5 96q0 37 23.5 64.5t59.5 27.5q30 0 48 -20t18 -48q0 -48 -38 -77z" />
    <glyph glyph-name="four.osf" horiz-adv-x="559" 
d="M299 185l66 269h-4l-258 -269h196zM365 -7h85l-18 -71h-281l18 71h82l29 118h-284l17 70l374 385h120l-94 -381h124l-19 -74h-124z" />
    <glyph glyph-name="five.osf" horiz-adv-x="515" 
d="M215 449l-53 -165q50 33 119 33q85 0 132.5 -47t47.5 -120q0 -40 -16 -80.5t-46 -76.5t-82 -58.5t-116 -22.5q-85 0 -144 36.5t-59 97.5q0 37 22.5 64t58.5 27q28 0 46 -18.5t18 -48.5q0 -43 -40 -73q24 -21 79 -21q53 0 89 30t49 67t13 76q0 51 -26.5 76t-69.5 25
q-51 0 -112 -37l-49 20l100 318l23 17q80 -35 172 -35q78 0 154 32l18 -38q-79 -104 -195 -104q-71 0 -133 26z" />
    <glyph glyph-name="six.osf" horiz-adv-x="547" 
d="M392 640q75 0 121.5 -34t46.5 -87q0 -35 -21.5 -61.5t-56.5 -26.5q-28 0 -45 18t-17 42q0 43 36 67q-21 19 -61 19q-71 0 -126 -67t-78 -183q58 67 145 67q76 0 123 -45.5t47 -117.5q0 -94 -66 -170.5t-177 -76.5q-99 0 -155 62t-56 172q0 104 43 200t122.5 159t174.5 63
zM260 49q52 0 85.5 58.5t33.5 126.5q0 46 -22.5 70.5t-61.5 24.5q-57 0 -92 -50.5t-35 -118.5q0 -53 24 -82t68 -29z" />
    <glyph glyph-name="seven.osf" horiz-adv-x="516" 
d="M214 -13q-14 -39 -32 -57.5t-46 -18.5t-47.5 19t-19.5 46q0 68 96.5 185.5t217.5 213.5l75 63l-4 5q-59 -32 -106 -32q-38 0 -76 19t-52 19q-24 0 -44 -25.5t-49 -99.5h-71l59 238h77l-14 -77h6q48 83 105 83q25 0 44.5 -14.5t30.5 -32.5t28 -32.5t37 -14.5q9 0 17 3
q-5 13 -5 30q0 30 17 49t46 19q26 0 42.5 -16.5t16.5 -40.5q0 -29 -17.5 -54t-60.5 -59q-89 -70 -153.5 -167.5t-117.5 -250.5z" />
    <glyph glyph-name="eight.osf" horiz-adv-x="538" 
d="M533 487q0 -55 -37 -96t-102 -58q97 -55 97 -148q0 -83 -66 -142t-176 -59q-103 0 -162 46t-59 114q0 61 43 103.5t118 57.5q-83 52 -83 138q0 78 62 137.5t166 59.5q92 0 145.5 -44t53.5 -109zM239 278q-6 2 -8 4q-99 -42 -99 -130q0 -45 31 -75t90 -30q56 0 89 29.5
t33 73.5q0 22 -9.5 39.5t-33 33.5t-40.5 25t-54 27zM222 482q0 -22 9 -40t30.5 -33.5t39 -25t52.5 -26.5q82 42 82 128q0 41 -26.5 67t-75.5 26t-80 -28.5t-31 -67.5z" />
    <glyph glyph-name="nine.osf" horiz-adv-x="547" 
d="M309 506q-53 0 -86.5 -59.5t-33.5 -130.5q0 -46 22.5 -71t60.5 -25q58 0 93 52.5t35 122.5q0 52 -24 81.5t-67 29.5zM376 223q-57 -67 -145 -67q-75 0 -122 45.5t-47 117.5q0 97 66 174.5t178 77.5q99 0 155 -62t56 -173q0 -104 -43 -200.5t-123 -160t-176 -63.5
q-73 0 -121 35.5t-48 90.5q0 36 21.5 62t57.5 26q28 0 44.5 -18t16.5 -43q0 -42 -35 -68q19 -21 62 -21q70 0 125 66.5t78 180.5z" />
    <glyph glyph-name="dollar.osf" horiz-adv-x="538" 
d="M342 640l65 -10l-18 -71q68 -13 108.5 -49.5t40.5 -76.5q0 -35 -20 -59t-51 -24q-28 0 -44.5 15.5t-16.5 38.5q0 40 35 61q-17 27 -66 40l-44 -179q73 -30 111.5 -62.5t38.5 -87.5q0 -75 -59 -128t-163 -53h-11l-21 -87l-65 10l21 84q-72 14 -117 52t-45 86q0 34 22 58.5
t54 24.5q27 0 45 -17.5t18 -41.5q0 -19 -12 -37t-30 -26q18 -29 79 -45l45 184q-70 28 -107.5 60.5t-37.5 83.5q0 78 67 129t159 52zM376 132q0 47 -74 82l-41 -165q56 0 85.5 23.5t29.5 59.5zM208 425q0 -41 63 -73l40 158q-47 -4 -75 -29t-28 -56z" />
    <glyph glyph-name="sterling.osf" horiz-adv-x="597" 
d="M454 241h-147q-5 -53 -45 -102q8 -3 21 -8.5t18 -7.5q89 -33 115 -33q30 0 48 18t37 69l52 -11q-26 -98 -61.5 -139.5t-95.5 -41.5q-47 0 -85.5 19t-83.5 55q-3 2 -7.5 6t-5.5 4q-53 -82 -125 -82q-43 0 -68.5 22t-25.5 57q0 42 36.5 71.5t96.5 29.5q33 0 74 -9
q4 16 4 30q0 27 -8 53h-147l17 69h106q-9 24 -9 53q0 89 72.5 148.5t173.5 59.5q86 0 138 -36t52 -86q0 -34 -22.5 -59t-57.5 -25q-29 0 -47 15t-18 43q0 19 12 37t30 26q-22 24 -79 24q-60 0 -92 -37.5t-32 -102.5q0 -13 7 -60h169zM97 41q44 0 77 53q-32 15 -63 15
q-23 0 -36.5 -11.5t-13.5 -27.5q0 -29 36 -29z" />
    <glyph glyph-name="Euro.osf" horiz-adv-x="635" 
d="M424 304h-181q-8 -31 -10 -64h176l-16 -63h-157q10 -58 45 -84.5t84 -26.5q103 0 171 129l59 -30q-36 -81 -100 -131t-154 -50q-93 0 -156.5 50.5t-75.5 141.5h-100l16 64h83q1 32 9 64h-77l15 64h85q42 91 125 147t180 56q92 0 144.5 -43.5t52.5 -102.5q0 -36 -23 -64
t-58 -28q-30 0 -47.5 17.5t-17.5 44.5q0 49 46 74q-26 35 -91 35q-126 0 -187 -137h176z" />
    <glyph glyph-name="yen.osf" horiz-adv-x="639" 
d="M108 328h114l-59 154h-81l18 73h289l-19 -72h-78l69 -199l169 199h-75l18 72h229l-19 -73h-71l-138 -154h107l-15 -63h-148l-42 -48l-4 -14h179l-16 -63h-179l-17 -68h107l-18 -72h-326l18 72h106l17 68h-181l16 63h181l5 17l-18 45h-153z" />
    <glyph glyph-name="hfjslug" horiz-adv-x="694" 
d="M644 -200h-208l-8 14h-163l-8 -14h-207v303q14 0 23 9.5t9 22.5t-9.5 22.5t-22.5 9.5v554h100l30 79h334l29 -79h101v-921zM400 563v-172h15v78h38v14h-38v66h43v14h-58zM184 563v-172h15v79h47v-79h15v172h-15v-79h-47v79h-15zM460 394q8 -4 21 -4q31 0 31 36v137h-16
v-137q0 -22 -16 -22q-10 0 -20 6v-16zM349 438l-16 31q23 21 23 42q0 12 -7 21.5t-20 9.5q-12 0 -20 -9.5t-8 -21.5q0 -13 14 -39q-23 -18 -23 -45q0 -17 9 -28t22 -11q17 0 27 24h1l12 -24l11 8l-16 30q10 23 13 39l-13 3q-2 -9 -9 -30zM523 323v-46h8v13l7 7l16 -20h9
l-19 26l18 20h-10l-21 -24v24h-8zM488 292l10 -15h9l-12 17q10 3 10 15q0 5 -4.5 9.5t-11.5 4.5h-21v-46h8v15h12zM426 276q11 0 17.5 7t6.5 17q0 9 -7 16.5t-17 7.5t-16.5 -7.5t-6.5 -16.5q0 -10 6.5 -17t16.5 -7zM370 301l-13 22h-9l18 -29v-17h8v17l18 29h-9zM193 323
v-46h33v7h-25v13h22v7h-22v12h25v7h-33zM132 323v-46h8v32l25 -32h7v46h-8v-32l-25 32h-7zM241 323l15 -47h8l10 34h1l11 -34h8l14 47h-8l-10 -35h-1l-10 35h-8l-11 -35h-1l-10 35h-8zM327 479q-12 22 -12 32q0 19 14 19q13 0 13 -19q0 -15 -15 -32zM342 423q-6 -21 -18 -21
q-17 0 -17 27q0 18 15 33zM488 299h-12v17h11q10 0 10 -8q0 -9 -9 -9zM426 283q-15 0 -15 17q0 6 4.5 11.5t10.5 5.5q7 0 11.5 -5.5t4.5 -11.5q0 -7 -4.5 -12t-11.5 -5z" />
    <glyph glyph-name="i.dot" horiz-adv-x="345" 
d="M325 629q0 -33 -24.5 -60.5t-61.5 -27.5q-27 0 -44.5 17.5t-17.5 46.5q0 33 23.5 60.5t60.5 27.5q29 0 46.5 -17t17.5 -47zM272 370q0 -42 -40.5 -145t-40.5 -130q0 -24 20 -24q30 0 71 101l47 -15q-55 -167 -159 -167q-40 0 -65 25t-25 69q0 52 41.5 158t41.5 133
q0 22 -15 22q-34 0 -81 -105l-48 20q68 159 164 159q40 0 64.5 -27t24.5 -74z" />
    <glyph glyph-name="caron.alt" horiz-adv-x="238" 
d="M256 629l-63 -104h-47l34 160q8 42 23 60.5t41 18.5q21 0 35.5 -14.5t14.5 -34.5q0 -24 -32 -77z" />
    </font>
</defs>
</svg>
